Chivo-Light.ufo
<glyph name="exclam" format="1">
  <advance width="269"/>
  <unicode hex="0021"/>
  <outline>
    <contour>
      <point x="79" y="686" type="line"/>
      <point x="143" y="686" type="line"/>
      <point x="143" y="686"/>
      <point x="135" y="339"/>
      <point x="131" y="141" type="curve"/>
      <point x="90" y="141" type="line"/>
    </contour>
    <contour>
      <point x="143" y="69" type="line"/>
      <point x="143" y="0" type="line"/>
      <point x="78" y="0" type="line"/>
      <point x="78" y="69" type="line"/>
    </contour>
  </outline>
</glyph>
<glyph name="dollar" format="1">
  <advance width="546"/>
  <unicode hex="0024"/>
  <outline>
    <contour>
      <point x="248" y="-66" type="line"/>
      <point x="257" y="19" type="line"/>
      <point x="132" y="24"/>
      <point x="31" y="71"/>
      <point x="31" y="202" type="curve" smooth="yes"/>
      <point x="31" y="207"/>
      <point x="32" y="218"/>
      <point x="32" y="218" type="curve"/>
      <point x="83" y="218" type="line"/>
      <point x="83" y="218"/>
      <point x="82" y="201"/>
      <point x="82" y="193" type="curve" smooth="yes"/>
      <point x="82" y="97"/>
      <point x="167" y="69"/>
      <point x="274" y="69" type="curve" smooth="yes"/>
      <point x="381" y="69"/>
      <point x="467" y="95"/>
      <point x="467" y="200" type="curve" smooth="yes"/>
      <point x="467" y="395"/>
      <point x="48" y="276"/>
      <point x="48" y="517" type="curve" smooth="yes"/>
      <point x="48" y="622"/>
      <point x="144" y="668"/>
      <point x="258" y="672" type="curve"/>
      <point x="248" y="762" type="line"/>
      <point x="298" y="762" type="line"/>
      <point x="288" y="672" type="line"/>
      <point x="406" y="669"/>
      <point x="500" y="622"/>
      <point x="500" y="506" type="curve" smooth="yes"/>
      <point x="500" y="494" type="line"/>
      <point x="450" y="494" type="line"/>
      <point x="450" y="515" type="line" smooth="yes"/>
      <point x="450" y="592"/>
      <point x="372" y="625"/>
      <point x="275" y="625" type="curve" smooth="yes"/>
      <point x="178" y="625"/>
      <point x="101" y="598"/>
      <point x="101" y="515" type="curve" smooth="yes"/>
      <point x="101" y="336"/>
      <point x="520" y="449"/>
      <point x="520" y="203" type="curve" smooth="yes"/>
      <point x="520" y="70"/>
      <point x="415" y="21"/>
      <point x="288" y="19" type="curve"/>
      <point x="298" y="-66" type="line"/>
    </contour>
  </outline>
</glyph>
<glyph name="ampersand" format="1">
  <advance width="662"/>
  <unicode hex="0026"/>
  <outline>
    <contour>
      <point x="356" y="688" type="curve"/>
      <point x="356" y="638" type="line"/>
      <point x="335" y="645"/>
      <point x="312" y="648"/>
      <point x="288" y="648" type="curve" smooth="yes"/>
      <point x="199" y="648"/>
      <point x="126" y="605"/>
      <point x="126" y="511" type="curve" smooth="yes"/>
      <point x="126" y="419"/>
      <point x="204" y="375"/>
      <point x="293" y="375" type="curve" smooth="yes"/>
      <point x="424" y="375" type="line"/>
      <point x="442" y="538" type="line"/>
      <point x="475" y="538" type="line"/>
      <point x="475" y="375" type="line"/>
      <point x="594" y="375" type="line"/>
      <point x="594" y="329" type="line"/>
      <point x="475" y="329" type="line"/>
      <point x="475" y="0" type="line"/>
      <point x="288" y="0" type="line" smooth="yes"/>
      <point x="163" y="0"/>
      <point x="58" y="71"/>
      <point x="58" y="192" type="curve" smooth="yes"/>
      <point x="58" y="286"/>
      <point x="113" y="332"/>
      <point x="186" y="353" type="curve"/>
      <point x="186" y="355" type="line"/>
      <point x="122" y="387"/>
      <point x="72" y="423"/>
      <point x="72" y="511" type="curve" smooth="yes"/>
      <point x="72" y="631"/>
      <point x="169" y="696"/>
      <point x="288" y="696" type="curve" smooth="yes"/>
      <point x="312" y="696"/>
      <point x="335" y="693"/>
    </contour>
    <contour>
      <point x="424" y="329" type="line"/>
      <point x="288" y="329" type="line" smooth="yes"/>
      <point x="192" y="329"/>
      <point x="111" y="291"/>
      <point x="111" y="191" type="curve" smooth="yes"/>
      <point x="111" y="98"/>
      <point x="187" y="46"/>
      <point x="288" y="46" type="curve" smooth="yes"/>
      <point x="424" y="46" type="line"/>
    </contour>
  </outline>
</glyph>
<glyph name="quotesingle" format="1">
  <advance width="210"/>
  <unicode hex="0027"/>
  <outline>
    <contour>
      <point x="64" y="686" type="line"/>
      <point x="116" y="686" type="line"/>
      <point x="116" y="539" type="line"/>
      <point x="105" y="414" type="line"/>
      <point x="75" y="414" type="line"/>
      <point x="64" y="539" type="line"/>
    </contour>
  </outline>
</glyph>
<glyph name="parenleft" format="1">
  <advance width="289"/>
  <unicode hex="0028"/>
  <outline>
    <contour>
      <point x="49" y="265" type="curve" smooth="yes"/>
      <point x="49" y="419"/>
      <point x="106" y="570"/>
      <point x="208" y="686" type="curve"/>
      <point x="237" y="686" type="line"/>
      <point x="162" y="572"/>
      <point x="101" y="422"/>
      <point x="101" y="265" type="curve" smooth="yes"/>
      <point x="101" y="107"/>
      <point x="162" y="-43"/>
      <point x="237" y="-157" type="curve"/>
      <point x="208" y="-157" type="line"/>
      <point x="106" y="-41"/>
      <point x="49" y="110"/>
    </contour>
  </outline>
</glyph>
<glyph name="parenright" format="1">
  <advance width="288"/>
  <unicode hex="0029"/>
  <outline>
    <contour>
      <point x="217" y="265" type="curve" smooth="yes"/>
      <point x="217" y="110"/>
      <point x="160" y="-41"/>
      <point x="58" y="-157" type="curve"/>
      <point x="29" y="-157" type="line"/>
      <point x="104" y="-43"/>
      <point x="165" y="107"/>
      <point x="165" y="265" type="curve" smooth="yes"/>
      <point x="165" y="422"/>
      <point x="104" y="572"/>
      <point x="29" y="686" type="curve"/>
      <point x="58" y="686" type="line"/>
      <point x="160" y="570"/>
      <point x="217" y="419"/>
    </contour>
  </outline>
</glyph>
<glyph name="plus" format="1">
  <advance width="615"/>
  <unicode hex="002B"/>
  <outline>
    <contour>
      <point x="563" y="284" type="line"/>
      <point x="563" y="226" type="line"/>
      <point x="336" y="226" type="line"/>
      <point x="336" y="0" type="line"/>
      <point x="278" y="0" type="line"/>
      <point x="278" y="226" type="line"/>
      <point x="51" y="226" type="line"/>
      <point x="51" y="284" type="line"/>
      <point x="278" y="284" type="line"/>
      <point x="278" y="511" type="line"/>
      <point x="336" y="511" type="line"/>
      <point x="336" y="284" type="line"/>
    </contour>
  </outline>
</glyph>
<glyph name="period" format="1">
  <advance width="239"/>
  <unicode hex="002E"/>
  <outline>
    <contour>
      <point x="134" y="69" type="line"/>
      <point x="134" y="0" type="line"/>
      <point x="69" y="0" type="line"/>
      <point x="69" y="69" type="line"/>
    </contour>
  </outline>
</glyph>
<glyph name="zero" format="1">
  <advance width="615"/>
  <unicode hex="0030"/>
  <outline>
    <contour>
      <point x="513" y="475" type="curve" smooth="yes"/>
      <point x="513" y="211" type="line" smooth="yes"/>
      <point x="513" y="77"/>
      <point x="419" y="-10"/>
      <point x="292" y="-10" type="curve" smooth="yes"/>
      <point x="165" y="-10"/>
      <point x="71" y="77"/>
      <point x="71" y="211" type="curve" smooth="yes"/>
      <point x="71" y="475" type="line" smooth="yes"/>
      <point x="71" y="609"/>
      <point x="165" y="696"/>
      <point x="292" y="696" type="curve" smooth="yes"/>
      <point x="419" y="696"/>
      <point x="513" y="609"/>
    </contour>
    <contour>
      <point x="459" y="205" type="curve" smooth="yes"/>
      <point x="459" y="481" type="line" smooth="yes"/>
      <point x="459" y="577"/>
      <point x="388" y="648"/>
      <point x="292" y="648" type="curve" smooth="yes"/>
      <point x="196" y="648"/>
      <point x="125" y="577"/>
      <point x="125" y="481" type="curve" smooth="yes"/>
      <point x="125" y="205" type="line" smooth="yes"/>
      <point x="125" y="109"/>
      <point x="196" y="38"/>
      <point x="292" y="38" type="curve" smooth="yes"/>
      <point x="388" y="38"/>
      <point x="459" y="109"/>
    </contour>
  </outline>
</glyph>
<glyph name="one" format="1">
  <advance width="615"/>
  <unicode hex="0031"/>
  <outline>
    <contour>
      <point x="97" y="48" type="line"/>
      <point x="292" y="48" type="line"/>
      <point x="292" y="619" type="line"/>
      <point x="97" y="619" type="line"/>
      <point x="97" y="653" type="line"/>
      <point x="152" y="659"/>
      <point x="230" y="665"/>
      <point x="323" y="696" type="curve"/>
      <point x="346" y="696" type="line"/>
      <point x="346" y="48" type="line"/>
      <point x="541" y="48" type="line"/>
      <point x="541" y="0" type="line"/>
      <point x="97" y="0" type="line"/>
    </contour>
  </outline>
</glyph>
<glyph name="three" format="1">
  <advance width="615"/>
  <unicode hex="0033"/>
  <outline>
    <contour>
      <point x="111" y="199" type="line"/>
      <point x="111" y="181" type="line" smooth="yes"/>
      <point x="111" y="90"/>
      <point x="183" y="36"/>
      <point x="287" y="36" type="curve" smooth="yes"/>
      <point x="388" y="36"/>
      <point x="464" y="88"/>
      <point x="464" y="181" type="curve" smooth="yes"/>
      <point x="464" y="281"/>
      <point x="383" y="327"/>
      <point x="287" y="327" type="curve" smooth="yes"/>
      <point x="210" y="327" type="line"/>
      <point x="210" y="375" type="line"/>
      <point x="282" y="375" type="line" smooth="yes"/>
      <point x="371" y="375"/>
      <point x="449" y="419"/>
      <point x="449" y="511" type="curve" smooth="yes"/>
      <point x="449" y="605"/>
      <point x="376" y="648"/>
      <point x="287" y="648" type="curve" smooth="yes"/>
      <point x="196" y="648"/>
      <point x="125" y="599"/>
      <point x="125" y="511" type="curve" smooth="yes"/>
      <point x="125" y="497" type="line"/>
      <point x="72" y="497" type="line"/>
      <point x="72" y="511" type="line" smooth="yes"/>
      <point x="72" y="629"/>
      <point x="168" y="696"/>
      <point x="287" y="696" type="curve" smooth="yes"/>
      <point x="406" y="696"/>
      <point x="503" y="631"/>
      <point x="503" y="511" type="curve" smooth="yes"/>
      <point x="503" y="423"/>
      <point x="454" y="387"/>
      <point x="390" y="355" type="curve"/>
      <point x="390" y="351" type="line"/>
      <point x="462" y="330"/>
      <point x="517" y="276"/>
      <point x="517" y="182" type="curve" smooth="yes"/>
      <point x="517" y="61"/>
      <point x="412" y="-10"/>
      <point x="287" y="-10" type="curve" smooth="yes"/>
      <point x="155" y="-10"/>
      <point x="58" y="65"/>
      <point x="58" y="182" type="curve" smooth="yes"/>
      <point x="58" y="199" type="line"/>
    </contour>
  </outline>
</glyph>
<glyph name="four" format="1">
  <advance width="615"/>
  <unicode hex="0034"/>
  <outline>
    <contour>
      <point x="396" y="235" type="line"/>
      <point x="396" y="492" type="line"/>
      <point x="406" y="512"/>
      <point x="424" y="550"/>
      <point x="433" y="573" type="curve"/>
      <point x="452" y="573" type="line"/>
      <point x="452" y="235" type="line"/>
      <point x="534" y="235" type="line"/>
      <point x="534" y="187" type="line"/>
      <point x="452" y="187" type="line"/>
      <point x="452" y="0" type="line"/>
      <point x="396" y="0" type="line"/>
      <point x="396" y="187" type="line"/>
      <point x="50" y="187" type="line"/>
      <point x="50" y="235" type="line"/>
      <point x="90" y="284"/>
      <point x="226" y="532"/>
      <point x="286" y="696" type="curve"/>
      <point x="342" y="696" type="line"/>
      <point x="285" y="521"/>
      <point x="167" y="301"/>
      <point x="107" y="235" type="curve"/>
    </contour>
  </outline>
</glyph>
<glyph name="five" format="1">
  <advance width="615"/>
  <unicode hex="0035"/>
  <outline>
    <contour>
      <point x="71" y="211" type="curve"/>
      <point x="125" y="211" type="line"/>
      <point x="125" y="116"/>
      <point x="189" y="38"/>
      <point x="292" y="38" type="curve" smooth="yes"/>
      <point x="396" y="38"/>
      <point x="459" y="120"/>
      <point x="459" y="215" type="curve" smooth="yes"/>
      <point x="459" y="316"/>
      <point x="384" y="392"/>
      <point x="292" y="392" type="curve" smooth="yes"/>
      <point x="229" y="392"/>
      <point x="169" y="356"/>
      <point x="140" y="303" type="curve"/>
      <point x="92" y="310" type="line"/>
      <point x="120" y="686" type="line"/>
      <point x="483" y="686" type="line"/>
      <point x="483" y="632" type="line"/>
      <point x="170" y="632" type="line"/>
      <point x="151" y="382" type="line"/>
      <point x="193" y="421"/>
      <point x="246" y="441"/>
      <point x="299" y="441" type="curve" smooth="yes"/>
      <point x="425" y="441"/>
      <point x="513" y="349"/>
      <point x="513" y="215" type="curve" smooth="yes"/>
      <point x="513" y="93"/>
      <point x="428" y="-10"/>
      <point x="292" y="-10" type="curve" smooth="yes"/>
      <point x="154" y="-10"/>
      <point x="71" y="89"/>
    </contour>
  </outline>
</glyph>
<glyph name="six" format="1">
  <advance width="615"/>
  <unicode hex="0036"/>
  <outline>
    <contour>
      <point x="133" y="481" type="curve" smooth="yes"/>
      <point x="133" y="341" type="line"/>
      <point x="171" y="396"/>
      <point x="238" y="429"/>
      <point x="308" y="429" type="curve" smooth="yes"/>
      <point x="428" y="429"/>
      <point x="521" y="338"/>
      <point x="521" y="211" type="curve" smooth="yes"/>
      <point x="521" y="77"/>
      <point x="427" y="-10"/>
      <point x="300" y="-10" type="curve" smooth="yes"/>
      <point x="173" y="-10"/>
      <point x="79" y="77"/>
      <point x="79" y="211" type="curve" smooth="yes"/>
      <point x="79" y="475" type="line" smooth="yes"/>
      <point x="79" y="609"/>
      <point x="169" y="696"/>
      <point x="296" y="696" type="curve" smooth="yes"/>
      <point x="423" y="696"/>
      <point x="509" y="609"/>
      <point x="509" y="475" type="curve"/>
      <point x="457" y="475" type="line"/>
      <point x="457" y="481" type="line" smooth="yes"/>
      <point x="457" y="577"/>
      <point x="392" y="648"/>
      <point x="296" y="648" type="curve" smooth="yes"/>
      <point x="200" y="648"/>
      <point x="133" y="577"/>
    </contour>
    <contour>
      <point x="133" y="214" type="curve" smooth="yes"/>
      <point x="133" y="205" type="line" smooth="yes"/>
      <point x="133" y="109"/>
      <point x="204" y="38"/>
      <point x="300" y="38" type="curve" smooth="yes"/>
      <point x="396" y="38"/>
      <point x="467" y="109"/>
      <point x="467" y="205" type="curve" smooth="yes"/>
      <point x="467" y="214" type="line" smooth="yes"/>
      <point x="467" y="310"/>
      <point x="396" y="381"/>
      <point x="300" y="381" type="curve" smooth="yes"/>
      <point x="204" y="381"/>
      <point x="133" y="310"/>
    </contour>
  </outline>
</glyph>
<glyph name="seven" format="1">
  <advance width="615"/>
  <unicode hex="0037"/>
  <outline>
    <contour>
      <point x="544" y="686" type="line"/>
      <point x="544" y="656" type="line"/>
      <point x="423" y="521"/>
      <point x="264" y="282"/>
      <point x="264" y="46" type="curve" smooth="yes"/>
      <point x="264" y="27"/>
      <point x="264" y="26"/>
      <point x="266" y="0" type="curve"/>
      <point x="204" y="0" type="line"/>
      <point x="204" y="263"/>
      <point x="346" y="491"/>
      <point x="462" y="632" type="curve"/>
      <point x="73" y="632" type="line"/>
      <point x="73" y="686" type="line"/>
    </contour>
  </outline>
</glyph>
<glyph name="eight" format="1">
  <advance width="615"/>
  <unicode hex="0038"/>
  <outline>
    <contour>
      <point x="400" y="356" type="curve"/>
      <point x="400" y="352" type="line"/>
      <point x="473" y="323"/>
      <point x="523" y="278"/>
      <point x="523" y="183" type="curve" smooth="yes"/>
      <point x="523" y="67"/>
      <point x="445" y="-10"/>
      <point x="295" y="-10" type="curve" smooth="yes"/>
      <point x="160" y="-10"/>
      <point x="67" y="56"/>
      <point x="67" y="183" type="curve" smooth="yes"/>
      <point x="67" y="275"/>
      <point x="117" y="328"/>
      <point x="189" y="352" type="curve"/>
      <point x="189" y="356" type="line"/>
      <point x="131" y="385"/>
      <point x="90" y="425"/>
      <point x="90" y="512" type="curve" smooth="yes"/>
      <point x="90" y="627"/>
      <point x="172" y="696"/>
      <point x="295" y="696" type="curve" smooth="yes"/>
      <point x="418" y="696"/>
      <point x="500" y="627"/>
      <point x="500" y="512" type="curve" smooth="yes"/>
      <point x="500" y="425"/>
      <point x="458" y="385"/>
    </contour>
    <contour>
      <point x="144" y="512" type="curve" smooth="yes"/>
      <point x="144" y="425"/>
      <point x="211" y="376"/>
      <point x="294" y="376" type="curve" smooth="yes"/>
      <point x="377" y="376"/>
      <point x="445" y="423"/>
      <point x="445" y="512" type="curve" smooth="yes"/>
      <point x="445" y="600"/>
      <point x="386" y="648"/>
      <point x="294" y="648" type="curve" smooth="yes"/>
      <point x="202" y="648"/>
      <point x="144" y="598"/>
    </contour>
    <contour>
      <point x="469" y="183" type="curve" smooth="yes"/>
      <point x="469" y="272"/>
      <point x="404" y="328"/>
      <point x="295" y="328" type="curve" smooth="yes"/>
      <point x="186" y="328"/>
      <point x="121" y="271"/>
      <point x="121" y="183" type="curve" smooth="yes"/>
      <point x="121" y="95"/>
      <point x="175" y="38"/>
      <point x="295" y="38" type="curve" smooth="yes"/>
      <point x="413" y="38"/>
      <point x="469" y="94"/>
    </contour>
  </outline>
</glyph>
<glyph name="nine" format="1">
  <advance width="615"/>
  <unicode hex="0039"/>
  <outline>
    <contour>
      <point x="451" y="205" type="curve" smooth="yes"/>
      <point x="451" y="346" type="line"/>
      <point x="413" y="291"/>
      <point x="346" y="257"/>
      <point x="276" y="257" type="curve" smooth="yes"/>
      <point x="156" y="257"/>
      <point x="63" y="348"/>
      <point x="63" y="475" type="curve" smooth="yes"/>
      <point x="63" y="609"/>
      <point x="157" y="696"/>
      <point x="284" y="696" type="curve" smooth="yes"/>
      <point x="411" y="696"/>
      <point x="505" y="609"/>
      <point x="505" y="475" type="curve" smooth="yes"/>
      <point x="505" y="211" type="line" smooth="yes"/>
      <point x="505" y="77"/>
      <point x="413" y="-10"/>
      <point x="286" y="-10" type="curve" smooth="yes"/>
      <point x="159" y="-10"/>
      <point x="71" y="77"/>
      <point x="71" y="211" type="curve"/>
      <point x="123" y="211" type="line"/>
      <point x="123" y="205" type="line" smooth="yes"/>
      <point x="123" y="109"/>
      <point x="190" y="38"/>
      <point x="286" y="38" type="curve" smooth="yes"/>
      <point x="382" y="38"/>
      <point x="451" y="109"/>
    </contour>
    <contour>
      <point x="451" y="472" type="curve" smooth="yes"/>
      <point x="451" y="481" type="line" smooth="yes"/>
      <point x="451" y="577"/>
      <point x="380" y="648"/>
      <point x="284" y="648" type="curve" smooth="yes"/>
      <point x="188" y="648"/>
      <point x="117" y="577"/>
      <point x="117" y="481" type="curve" smooth="yes"/>
      <point x="117" y="472" type="line" smooth="yes"/>
      <point x="117" y="376"/>
      <point x="188" y="305"/>
      <point x="284" y="305" type="curve" smooth="yes"/>
      <point x="380" y="305"/>
      <point x="451" y="376"/>
    </contour>
  </outline>
</glyph>
<glyph name="colon" format="1">
  <advance width="239"/>
  <unicode hex="003A"/>
  <outline>
    <contour>
      <point x="134" y="511" type="line"/>
      <point x="134" y="442" type="line"/>
      <point x="69" y="442" type="line"/>
      <point x="69" y="511" type="line"/>
    </contour>
    <contour>
      <point x="134" y="69" type="line"/>
      <point x="134" y="0" type="line"/>
      <point x="69" y="0" type="line"/>
      <point x="69" y="69" type="line"/>
    </contour>
  </outline>
</glyph>
<glyph name="less" format="1">
  <advance width="615"/>
  <unicode hex="003C"/>
  <outline>
    <contour>
      <point x="553" y="495" type="line"/>
      <point x="553" y="433" type="line"/>
      <point x="91" y="254" type="line"/>
      <point x="553" y="75" type="line"/>
      <point x="553" y="13" type="line"/>
      <point x="44" y="210" type="line"/>
      <point x="44" y="298" type="line"/>
    </contour>
  </outline>
</glyph>
<glyph name="equal" format="1">
  <advance width="615"/>
  <unicode hex="003D"/>
  <outline>
    <contour>
      <point x="55" y="386" type="line"/>
      <point x="555" y="386" type="line"/>
      <point x="555" y="328" type="line"/>
      <point x="55" y="328" type="line"/>
    </contour>
    <contour>
      <point x="55" y="178" type="line"/>
      <point x="555" y="178" type="line"/>
      <point x="555" y="120" type="line"/>
      <point x="55" y="120" type="line"/>
    </contour>
  </outline>
</glyph>
<glyph name="greater" format="1">
  <advance width="615"/>
  <unicode hex="003E"/>
  <outline>
    <contour>
      <point x="62" y="13" type="line"/>
      <point x="62" y="75" type="line"/>
      <point x="524" y="254" type="line"/>
      <point x="62" y="433" type="line"/>
      <point x="62" y="495" type="line"/>
      <point x="571" y="298" type="line"/>
      <point x="571" y="210" type="line"/>
    </contour>
  </outline>
</glyph>
<glyph name="question" format="1">
  <advance width="502"/>
  <unicode hex="003F"/>
  <outline>
    <contour>
      <point x="212" y="166" type="line"/>
      <point x="212" y="244" type="line" smooth="yes"/>
      <point x="212" y="366"/>
      <point x="370" y="366"/>
      <point x="370" y="513" type="curve" smooth="yes"/>
      <point x="370" y="554"/>
      <point x="352" y="648"/>
      <point x="232" y="648" type="curve" smooth="yes"/>
      <point x="93" y="648"/>
      <point x="80" y="529"/>
      <point x="80" y="494" type="curve" smooth="yes"/>
      <point x="80" y="484"/>
      <point x="83" y="465"/>
      <point x="83" y="465" type="curve"/>
      <point x="29" y="465" type="line"/>
      <point x="29" y="465"/>
      <point x="26" y="474"/>
      <point x="26" y="498" type="curve" smooth="yes"/>
      <point x="26" y="529"/>
      <point x="42" y="697"/>
      <point x="231" y="697" type="curve" smooth="yes"/>
      <point x="420" y="697"/>
      <point x="424" y="531"/>
      <point x="424" y="515" type="curve" smooth="yes"/>
      <point x="424" y="337"/>
      <point x="266" y="347"/>
      <point x="266" y="231" type="curve" smooth="yes"/>
      <point x="266" y="166" type="line"/>
    </contour>
    <contour>
      <point x="271" y="69" type="line"/>
      <point x="271" y="0" type="line"/>
      <point x="206" y="0" type="line"/>
      <point x="206" y="69" type="line"/>
    </contour>
  </outline>
</glyph>
<glyph name="at" format="1">
  <advance width="885"/>
  <unicode hex="0040"/>
  <outline>
    <contour>
      <point x="790" y="321" type="curve" smooth="yes"/>
      <point x="790" y="551"/>
      <point x="651" y="646"/>
      <point x="452" y="646" type="curve" smooth="yes"/>
      <point x="230" y="646"/>
      <point x="91" y="521"/>
      <point x="91" y="261" type="curve" smooth="yes"/>
      <point x="91" y="20"/>
      <point x="195" y="-102"/>
      <point x="418" y="-102" type="curve" smooth="yes"/>
      <point x="464" y="-102"/>
      <point x="547" y="-88"/>
      <point x="583" y="-70" type="curve"/>
      <point x="583" y="-126" type="line"/>
      <point x="541" y="-142"/>
      <point x="461" y="-153"/>
      <point x="418" y="-153" type="curve" smooth="yes"/>
      <point x="183" y="-153"/>
      <point x="38" y="-27"/>
      <point x="38" y="262" type="curve" smooth="yes"/>
      <point x="38" y="580"/>
      <point x="229" y="697"/>
      <point x="453" y="697" type="curve" smooth="yes"/>
      <point x="676" y="697"/>
      <point x="843" y="588"/>
      <point x="843" y="320" type="curve" smooth="yes"/>
      <point x="843" y="97"/>
      <point x="741" y="23"/>
      <point x="669" y="23" type="curve" smooth="yes"/>
      <point x="595" y="23"/>
      <point x="579" y="60"/>
      <point x="579" y="115" type="curve"/>
      <point x="538" y="49"/>
      <point x="477" y="22"/>
      <point x="398" y="22" type="curve" smooth="yes"/>
      <point x="323" y="22"/>
      <point x="243" y="50"/>
      <point x="243" y="156" type="curve" smooth="yes"/>
      <point x="243" y="297"/>
      <point x="384" y="309"/>
      <point x="579" y="309" type="curve"/>
      <point x="579" y="370" type="line" smooth="yes"/>
      <point x="579" y="452"/>
      <point x="542" y="478"/>
      <point x="450" y="478" type="curve" smooth="yes"/>
      <point x="371" y="478"/>
      <point x="310" y="451"/>
      <point x="310" y="380" type="curve" smooth="yes"/>
      <point x="310" y="365" type="line"/>
      <point x="262" y="365" type="line"/>
      <point x="261" y="373"/>
      <point x="260" y="381"/>
      <point x="260" y="389" type="curve" smooth="yes"/>
      <point x="260" y="474"/>
      <point x="344" y="521"/>
      <point x="450" y="521" type="curve" smooth="yes"/>
      <point x="570" y="521"/>
      <point x="628" y="476"/>
      <point x="628" y="379" type="curve" smooth="yes"/>
      <point x="628" y="105" type="line" smooth="yes"/>
      <point x="628" y="77"/>
      <point x="639" y="66"/>
      <point x="667" y="66" type="curve" smooth="yes"/>
      <point x="731" y="66"/>
      <point x="790" y="133"/>
    </contour>
    <contour>
      <point x="579" y="234" type="curve" smooth="yes"/>
      <point x="579" y="267" type="line"/>
      <point x="405" y="267"/>
      <point x="294" y="260"/>
      <point x="294" y="156" type="curve" smooth="yes"/>
      <point x="294" y="93"/>
      <point x="332" y="65"/>
      <point x="408" y="65" type="curve" smooth="yes"/>
      <point x="491" y="65"/>
      <point x="579" y="117"/>
    </contour>
  </outline>
</glyph>
<glyph name="B" format="1">
  <advance width="651"/>
  <unicode hex="0042"/>
  <outline>
    <contour>
      <point x="92" y="686" type="line"/>
      <point x="366" y="686" type="line" smooth="yes"/>
      <point x="465" y="686"/>
      <point x="546" y="611"/>
      <point x="546" y="518" type="curve" smooth="yes"/>
      <point x="546" y="416"/>
      <point x="478" y="372"/>
      <point x="425" y="359" type="curve"/>
      <point x="425" y="353" type="line"/>
      <point x="461" y="348"/>
      <point x="562" y="317"/>
      <point x="562" y="183" type="curve" smooth="yes"/>
      <point x="562" y="82"/>
      <point x="477" y="0"/>
      <point x="372" y="0" type="curve" smooth="yes"/>
      <point x="92" y="0" type="line"/>
    </contour>
    <contour>
      <point x="146" y="374" type="line"/>
      <point x="356" y="374" type="line" smooth="yes"/>
      <point x="431" y="374"/>
      <point x="491" y="431"/>
      <point x="491" y="506" type="curve" smooth="yes"/>
      <point x="491" y="581"/>
      <point x="431" y="638"/>
      <point x="356" y="638" type="curve" smooth="yes"/>
      <point x="146" y="638" type="line"/>
    </contour>
    <contour>
      <point x="146" y="48" type="line"/>
      <point x="366" y="48" type="line" smooth="yes"/>
      <point x="444" y="48"/>
      <point x="508" y="108"/>
      <point x="508" y="186" type="curve" smooth="yes"/>
      <point x="508" y="264"/>
      <point x="444" y="326"/>
      <point x="366" y="326" type="curve" smooth="yes"/>
      <point x="146" y="326" type="line"/>
    </contour>
  </outline>
</glyph>
<glyph name="D" format="1">
  <advance width="675"/>
  <unicode hex="0044"/>
  <outline>
    <contour>
      <point x="92" y="686" type="line"/>
      <point x="312" y="686" type="line" smooth="yes"/>
      <point x="459" y="686"/>
      <point x="578" y="615"/>
      <point x="578" y="356" type="curve" smooth="yes"/>
      <point x="578" y="331" type="line" smooth="yes"/>
      <point x="578" y="74"/>
      <point x="459" y="0"/>
      <point x="312" y="0" type="curve" smooth="yes"/>
      <point x="92" y="0" type="line"/>
    </contour>
    <contour>
      <point x="146" y="48" type="line"/>
      <point x="312" y="48" type="line" smooth="yes"/>
      <point x="429" y="48"/>
      <point x="524" y="104"/>
      <point x="524" y="322" type="curve" smooth="yes"/>
      <point x="524" y="365" type="line" smooth="yes"/>
      <point x="524" y="577"/>
      <point x="429" y="638"/>
      <point x="312" y="638" type="curve" smooth="yes"/>
      <point x="146" y="638" type="line"/>
    </contour>
  </outline>
</glyph>
<glyph name="E" format="1">
  <advance width="593"/>
  <unicode hex="0045"/>
  <outline>
    <contour>
      <point x="92" y="686" type="line"/>
      <point x="516" y="686" type="line"/>
      <point x="506" y="638" type="line"/>
      <point x="146" y="638" type="line"/>
      <point x="146" y="374" type="line"/>
      <point x="465" y="374" type="line"/>
      <point x="465" y="326" type="line"/>
      <point x="146" y="326" type="line"/>
      <point x="146" y="48" type="line"/>
      <point x="515" y="48" type="line"/>
      <point x="526" y="0" type="line"/>
      <point x="92" y="0" type="line"/>
    </contour>
    <contour>
      <point x="297" y="0" type="move" name="Bottom"/>
    </contour>
  </outline>
</glyph>
<glyph name="F" format="1">
  <advance width="550"/>
  <unicode hex="0046"/>
  <outline>
    <contour>
      <point x="146" y="638" type="line"/>
      <point x="146" y="374" type="line"/>
      <point x="439" y="374" type="line"/>
      <point x="439" y="326" type="line"/>
      <point x="146" y="326" type="line"/>
      <point x="146" y="0" type="line"/>
      <point x="92" y="0" type="line"/>
      <point x="92" y="686" type="line"/>
      <point x="498" y="686" type="line"/>
      <point x="489" y="638" type="line"/>
    </contour>
  </outline>
</glyph>
<glyph name="H" format="1">
  <advance width="693"/>
  <unicode hex="0048"/>
  <outline>
    <contour>
      <point x="517" y="326" type="line"/>
      <point x="146" y="326" type="line"/>
      <point x="146" y="0" type="line"/>
      <point x="92" y="0" type="line"/>
      <point x="92" y="686" type="line"/>
      <point x="146" y="686" type="line"/>
      <point x="146" y="374" type="line"/>
      <point x="517" y="374" type="line"/>
      <point x="517" y="686" type="line"/>
      <point x="571" y="686" type="line"/>
      <point x="571" y="0" type="line"/>
      <point x="517" y="0" type="line"/>
    </contour>
  </outline>
</glyph>
<glyph name="I" format="1">
  <advance width="364"/>
  <unicode hex="0049"/>
  <outline>
    <contour>
      <point x="265" y="686" type="line"/>
      <point x="265" y="637" type="line"/>
      <point x="186" y="637" type="line"/>
      <point x="186" y="49" type="line"/>
      <point x="265" y="49" type="line"/>
      <point x="265" y="0" type="line"/>
      <point x="53" y="0" type="line"/>
      <point x="53" y="49" type="line"/>
      <point x="132" y="49" type="line"/>
      <point x="132" y="637" type="line"/>
      <point x="53" y="637" type="line"/>
      <point x="53" y="686" type="line"/>
    </contour>
  </outline>
</glyph>
<glyph name="J" format="1">
  <advance width="526"/>
  <unicode hex="004A"/>
  <outline>
    <contour>
      <point x="79" y="185" type="line"/>
      <point x="79" y="172" type="line" smooth="yes"/>
      <point x="79" y="77"/>
      <point x="141" y="38"/>
      <point x="218" y="38" type="curve" smooth="yes"/>
      <point x="295" y="38"/>
      <point x="357" y="78"/>
      <point x="357" y="172" type="curve" smooth="yes"/>
      <point x="357" y="686" type="line"/>
      <point x="411" y="686" type="line"/>
      <point x="411" y="166" type="line" smooth="yes"/>
      <point x="411" y="50"/>
      <point x="325" y="-10"/>
      <point x="218" y="-10" type="curve" smooth="yes"/>
      <point x="111" y="-10"/>
      <point x="29" y="50"/>
      <point x="29" y="166" type="curve" smooth="yes"/>
      <point x="29" y="185" type="line"/>
    </contour>
  </outline>
</glyph>
<glyph name="K" format="1">
  <advance width="623"/>
  <unicode hex="004B"/>
  <outline>
    <contour>
      <point x="146" y="686" type="line"/>
      <point x="146" y="279" type="line"/>
      <point x="509" y="686" type="line"/>
      <point x="573" y="686" type="line"/>
      <point x="306" y="387" type="line"/>
      <point x="581" y="0" type="line"/>
      <point x="513" y="0" type="line"/>
      <point x="269" y="346" type="line"/>
      <point x="146" y="208" type="line"/>
      <point x="146" y="0" type="line"/>
      <point x="92" y="0" type="line"/>
      <point x="92" y="686" type="line"/>
    </contour>
    <contour>
      <point x="312" y="0" type="move" name="Bottom"/>
    </contour>
  </outline>
</glyph>
<glyph name="L" format="1">
  <advance width="536"/>
  <unicode hex="004C"/>
  <outline>
    <contour>
      <point x="92" y="686" type="line"/>
      <point x="146" y="686" type="line"/>
      <point x="146" y="48" type="line"/>
      <point x="486" y="48" type="line"/>
      <point x="498" y="0" type="line"/>
      <point x="92" y="0" type="line"/>
    </contour>
    <contour>
      <point x="268" y="0" type="move" name="Bottom"/>
    </contour>
  </outline>
</glyph>
<glyph name="M" format="1">
  <advance width="938"/>
  <unicode hex="004D"/>
  <outline>
    <contour>
      <point x="749" y="625" type="line"/>
      <point x="744" y="625" type="line"/>
      <point x="469" y="0" type="line"/>
      <point x="418" y="0" type="line"/>
      <point x="145" y="625" type="line"/>
      <point x="140" y="625" type="line"/>
      <point x="140" y="0" type="line"/>
      <point x="92" y="0" type="line"/>
      <point x="92" y="686" type="line"/>
      <point x="178" y="686" type="line"/>
      <point x="446" y="69" type="line"/>
      <point x="447" y="69" type="line"/>
      <point x="718" y="686" type="line"/>
      <point x="803" y="686" type="line"/>
      <point x="803" y="0" type="line"/>
      <point x="749" y="0" type="line"/>
    </contour>
  </outline>
</glyph>
<glyph name="P" format="1">
  <advance width="624"/>
  <unicode hex="0050"/>
  <outline>
    <contour>
      <point x="92" y="686" type="line"/>
      <point x="373" y="686" type="line" smooth="yes"/>
      <point x="476" y="686"/>
      <point x="560" y="602"/>
      <point x="560" y="499" type="curve" smooth="yes"/>
      <point x="560" y="396"/>
      <point x="476" y="312"/>
      <point x="373" y="312" type="curve" smooth="yes"/>
      <point x="146" y="312" type="line"/>
      <point x="146" y="0" type="line"/>
      <point x="92" y="0" type="line"/>
    </contour>
    <contour>
      <point x="146" y="359" type="line"/>
      <point x="366" y="359" type="line" smooth="yes"/>
      <point x="444" y="359"/>
      <point x="508" y="421"/>
      <point x="508" y="499" type="curve" smooth="yes"/>
      <point x="508" y="577"/>
      <point x="444" y="638"/>
      <point x="366" y="638" type="curve" smooth="yes"/>
      <point x="146" y="638" type="line"/>
    </contour>
  </outline>
</glyph>
<glyph name="T" format="1">
  <advance width="578"/>
  <unicode hex="0054"/>
  <outline>
    <contour>
      <point x="309" y="0" type="line"/>
      <point x="257" y="0" type="line"/>
      <point x="257" y="638" type="line"/>
      <point x="25" y="638" type="line"/>
      <point x="25" y="686" type="line"/>
      <point x="541" y="686" type="line"/>
      <point x="541" y="638" type="line"/>
      <point x="309" y="638" type="line"/>
    </contour>
    <contour>
      <point x="283" y="0" type="move" name="Bottom"/>
    </contour>
  </outline>
</glyph>
<glyph name="U" format="1">
  <advance width="680"/>
  <unicode hex="0055"/>
  <outline>
    <contour>
      <point x="563" y="686" type="line"/>
      <point x="563" y="220" type="line" smooth="yes"/>
      <point x="563" y="81"/>
      <point x="468" y="-10"/>
      <point x="324" y="-10" type="curve" smooth="yes"/>
      <point x="180" y="-10"/>
      <point x="86" y="81"/>
      <point x="86" y="220" type="curve" smooth="yes"/>
      <point x="86" y="686" type="line"/>
      <point x="140" y="686" type="line"/>
      <point x="140" y="222" type="line" smooth="yes"/>
      <point x="140" y="111"/>
      <point x="206" y="38"/>
      <point x="324" y="38" type="curve" smooth="yes"/>
      <point x="443" y="38"/>
      <point x="509" y="114"/>
      <point x="509" y="222" type="curve" smooth="yes"/>
      <point x="509" y="686" type="line"/>
    </contour>
  </outline>
</glyph>
<glyph name="V" format="1">
  <advance width="603"/>
  <unicode hex="0056"/>
  <outline>
    <contour>
      <point x="572" y="686" type="line"/>
      <point x="313" y="0" type="line"/>
      <point x="265" y="0" type="line"/>
      <point x="5" y="686" type="line"/>
      <point x="64" y="686" type="line"/>
      <point x="289" y="86" type="line"/>
      <point x="294" y="86" type="line"/>
      <point x="519" y="686" type="line"/>
    </contour>
  </outline>
</glyph>
<glyph name="W" format="1">
  <advance width="916"/>
  <unicode hex="0057"/>
  <outline>
    <contour>
      <point x="848" y="686" type="line"/>
      <point x="648" y="0" type="line"/>
      <point x="602" y="0" type="line"/>
      <point x="433" y="581" type="line"/>
      <point x="429" y="581" type="line"/>
      <point x="260" y="0" type="line"/>
      <point x="214" y="0" type="line"/>
      <point x="14" y="686" type="line"/>
      <point x="72" y="686" type="line"/>
      <point x="239" y="107" type="line"/>
      <point x="243" y="107" type="line"/>
      <point x="410" y="686" type="line"/>
      <point x="460" y="686" type="line"/>
      <point x="627" y="107" type="line"/>
      <point x="631" y="107" type="line"/>
      <point x="798" y="686" type="line"/>
    </contour>
  </outline>
</glyph>
<glyph name="X" format="1">
  <advance width="631"/>
  <unicode hex="0058"/>
  <outline>
    <contour>
      <point x="581" y="0" type="line"/>
      <point x="516" y="0" type="line"/>
      <point x="294" y="315" type="line"/>
      <point x="292" y="315" type="line"/>
      <point x="68" y="0" type="line"/>
      <point x="9" y="0" type="line"/>
      <point x="264" y="359" type="line"/>
      <point x="32" y="686" type="line"/>
      <point x="97" y="686" type="line"/>
      <point x="296" y="402" type="line"/>
      <point x="298" y="402" type="line"/>
      <point x="500" y="686" type="line"/>
      <point x="559" y="686" type="line"/>
      <point x="326" y="359" type="line"/>
    </contour>
  </outline>
</glyph>
<glyph name="Y" format="1">
  <advance width="572"/>
  <unicode hex="0059"/>
  <outline>
    <contour>
      <point x="295" y="0" type="line"/>
      <point x="241" y="0" type="line"/>
      <point x="241" y="266" type="line"/>
      <point x="-5" y="686" type="line"/>
      <point x="58" y="686" type="line"/>
      <point x="269" y="321" type="line"/>
      <point x="272" y="321" type="line"/>
      <point x="486" y="686" type="line"/>
      <point x="541" y="686" type="line"/>
      <point x="295" y="266" type="line"/>
    </contour>
  </outline>
</glyph>
<glyph name="Z" format="1">
  <advance width="596"/>
  <unicode hex="005A"/>
  <outline>
    <contour>
      <point x="32" y="25" type="line"/>
      <point x="445" y="638" type="line"/>
      <point x="56" y="638" type="line"/>
      <point x="56" y="686" type="line"/>
      <point x="527" y="686" type="line"/>
      <point x="527" y="662" type="line"/>
      <point x="113" y="48" type="line"/>
      <point x="535" y="48" type="line"/>
      <point x="535" y="0" type="line"/>
      <point x="32" y="0" type="line"/>
    </contour>
  </outline>
</glyph>
<glyph name="bracketleft" format="1">
  <advance width="293"/>
  <unicode hex="005B"/>
  <outline>
    <contour>
      <point x="85" y="686" type="line"/>
      <point x="226" y="686" type="line"/>
      <point x="226" y="648" type="line"/>
      <point x="138" y="648" type="line"/>
      <point x="138" y="-123" type="line"/>
      <point x="226" y="-123" type="line"/>
      <point x="226" y="-161" type="line"/>
      <point x="85" y="-161" type="line"/>
    </contour>
  </outline>
</glyph>
<glyph name="backslash" format="1">
  <advance width="600"/>
  <unicode hex="005C"/>
  <outline>
    <contour>
      <point x="15" y="686" type="line"/>
      <point x="75" y="686" type="line"/>
      <point x="467" y="0" type="line"/>
      <point x="407" y="0" type="line"/>
    </contour>
  </outline>
</glyph>
<glyph name="asciicircum" format="1">
  <advance width="596"/>
  <unicode hex="005E"/>
  <outline>
    <contour>
      <point x="531" y="0" type="line"/>
      <point x="469" y="0" type="line"/>
      <point x="290" y="464" type="line"/>
      <point x="111" y="0" type="line"/>
      <point x="49" y="0" type="line"/>
      <point x="246" y="511" type="line"/>
      <point x="334" y="511" type="line"/>
    </contour>
  </outline>
</glyph>
<glyph name="underscore" format="1">
  <advance width="694"/>
  <unicode hex="005F"/>
  <outline>
    <contour>
      <point x="97" y="-64" type="line"/>
      <point x="597" y="-64" type="line"/>
      <point x="597" y="-122" type="line"/>
      <point x="97" y="-122" type="line"/>
    </contour>
  </outline>
</glyph>
<glyph name="grave" format="1">
  <advance width="333"/>
  <unicode hex="0060"/>
  <outline>
    <contour>
      <point x="68" y="717" type="line"/>
      <point x="68" y="720" type="line"/>
      <point x="133" y="720" type="line"/>
      <point x="229" y="575" type="line"/>
      <point x="179" y="575" type="line"/>
    </contour>
  </outline>
</glyph>
<glyph name="b" format="1">
  <advance width="583"/>
  <unicode hex="0062"/>
  <outline>
    <contour>
      <point x="134" y="720" type="line"/>
      <point x="134" y="440" type="line"/>
      <point x="167" y="490"/>
      <point x="225" y="521"/>
      <point x="297" y="521" type="curve" smooth="yes"/>
      <point x="409" y="521"/>
      <point x="500" y="433"/>
      <point x="500" y="271" type="curve" smooth="yes"/>
      <point x="500" y="260" type="line" smooth="yes"/>
      <point x="500" y="70"/>
      <point x="409" y="-10"/>
      <point x="297" y="-10" type="curve" smooth="yes"/>
      <point x="219" y="-10"/>
      <point x="161" y="21"/>
      <point x="123" y="85" type="curve"/>
      <point x="104" y="0" type="line"/>
      <point x="83" y="0" type="line"/>
      <point x="83" y="720" type="line"/>
    </contour>
    <contour>
      <point x="133" y="269" type="curve" smooth="yes"/>
      <point x="133" y="257" type="line" smooth="yes"/>
      <point x="133" y="88"/>
      <point x="206" y="36"/>
      <point x="292" y="36" type="curve" smooth="yes"/>
      <point x="379" y="36"/>
      <point x="449" y="92"/>
      <point x="449" y="258" type="curve" smooth="yes"/>
      <point x="449" y="269" type="line" smooth="yes"/>
      <point x="449" y="412"/>
      <point x="379" y="475"/>
      <point x="292" y="475" type="curve" smooth="yes"/>
      <point x="205" y="475"/>
      <point x="133" y="413"/>
    </contour>
  </outline>
</glyph>
<glyph name="h" format="1">
  <advance width="593"/>
  <unicode hex="0068"/>
  <outline>
    <contour>
      <point x="435" y="0" type="line"/>
      <point x="435" y="314" type="line" smooth="yes"/>
      <point x="435" y="425"/>
      <point x="381" y="475"/>
      <point x="291" y="475" type="curve" smooth="yes"/>
      <point x="201" y="475"/>
      <point x="134" y="406"/>
      <point x="134" y="314" type="curve" smooth="yes"/>
      <point x="134" y="0" type="line"/>
      <point x="83" y="0" type="line"/>
      <point x="83" y="720" type="line"/>
      <point x="134" y="720" type="line"/>
      <point x="134" y="439" type="line"/>
      <point x="169" y="493"/>
      <point x="237" y="521"/>
      <point x="296" y="521" type="curve" smooth="yes"/>
      <point x="402" y="521"/>
      <point x="486" y="462"/>
      <point x="486" y="329" type="curve" smooth="yes"/>
      <point x="486" y="0" type="line"/>
    </contour>
  </outline>
</glyph>
<glyph name="i" format="1">
  <advance width="260"/>
  <unicode hex="0069"/>
  <outline>
    <contour>
      <point x="140" y="720" type="line"/>
      <point x="140" y="666" type="line"/>
      <point x="81" y="666" type="line"/>
      <point x="81" y="720" type="line"/>
    </contour>
    <contour>
      <point x="85" y="511" type="line"/>
      <point x="136" y="511" type="line"/>
      <point x="136" y="0" type="line"/>
      <point x="85" y="0" type="line"/>
    </contour>
  </outline>
</glyph>
<glyph name="j" format="1">
  <advance width="260"/>
  <unicode hex="006A"/>
  <outline>
    <contour>
      <point x="140" y="720" type="line"/>
      <point x="140" y="666" type="line"/>
      <point x="81" y="666" type="line"/>
      <point x="81" y="720" type="line"/>
    </contour>
    <contour>
      <point x="136" y="511" type="line"/>
      <point x="136" y="-75" type="line" smooth="yes"/>
      <point x="136" y="-152"/>
      <point x="93" y="-186"/>
      <point x="34" y="-186" type="curve" smooth="yes"/>
      <point x="9" y="-186"/>
      <point x="-17" y="-179"/>
      <point x="-34" y="-169" type="curve"/>
      <point x="-34" y="-124" type="line"/>
      <point x="-18" y="-131"/>
      <point x="13" y="-140"/>
      <point x="28" y="-140" type="curve" smooth="yes"/>
      <point x="56" y="-140"/>
      <point x="85" y="-132"/>
      <point x="85" y="-73" type="curve" smooth="yes"/>
      <point x="85" y="511" type="line"/>
    </contour>
  </outline>
</glyph>
<glyph name="l" format="1">
  <advance width="268"/>
  <unicode hex="006C"/>
  <outline>
    <contour>
      <point x="87" y="720" type="line"/>
      <point x="138" y="720" type="line"/>
      <point x="138" y="0" type="line"/>
      <point x="87" y="0" type="line"/>
    </contour>
    <contour>
      <point x="113" y="0" type="move" name="Bottom"/>
    </contour>
  </outline>
</glyph>
<glyph name="m" format="1">
  <advance width="867"/>
  <unicode hex="006D"/>
  <outline>
    <contour>
      <point x="586" y="521" type="curve" smooth="yes"/>
      <point x="681" y="521"/>
      <point x="758" y="462"/>
      <point x="758" y="329" type="curve" smooth="yes"/>
      <point x="758" y="0" type="line"/>
      <point x="707" y="0" type="line"/>
      <point x="707" y="314" type="line" smooth="yes"/>
      <point x="707" y="425"/>
      <point x="663" y="475"/>
      <point x="582" y="475" type="curve" smooth="yes"/>
      <point x="502" y="475"/>
      <point x="446" y="406"/>
      <point x="446" y="314" type="curve" smooth="yes"/>
      <point x="446" y="0" type="line"/>
      <point x="395" y="0" type="line"/>
      <point x="395" y="314" type="line" smooth="yes"/>
      <point x="395" y="425"/>
      <point x="351" y="475"/>
      <point x="270" y="475" type="curve" smooth="yes"/>
      <point x="190" y="475"/>
      <point x="134" y="406"/>
      <point x="134" y="314" type="curve" smooth="yes"/>
      <point x="134" y="0" type="line"/>
      <point x="83" y="0" type="line"/>
      <point x="83" y="511" type="line"/>
      <point x="117" y="511" type="line"/>
      <point x="129" y="435" type="line"/>
      <point x="159" y="489"/>
      <point x="214" y="521"/>
      <point x="274" y="521" type="curve" smooth="yes"/>
      <point x="340" y="521"/>
      <point x="398" y="493"/>
      <point x="428" y="434" type="curve"/>
      <point x="455" y="479"/>
      <point x="510" y="521"/>
    </contour>
  </outline>
</glyph>
<glyph name="o" format="1">
  <advance width="574"/>
  <unicode hex="006F"/>
  <outline>
    <contour>
      <point x="268" y="-10" type="curve" smooth="yes"/>
      <point x="142" y="-10"/>
      <point x="52" y="83"/>
      <point x="52" y="248" type="curve" smooth="yes"/>
      <point x="52" y="263" type="line" smooth="yes"/>
      <point x="52" y="428"/>
      <point x="142" y="521"/>
      <point x="268" y="521" type="curve" smooth="yes"/>
      <point x="394" y="521"/>
      <point x="484" y="428"/>
      <point x="484" y="263" type="curve" smooth="yes"/>
      <point x="484" y="248" type="line" smooth="yes"/>
      <point x="484" y="83"/>
      <point x="394" y="-10"/>
    </contour>
    <contour>
      <point x="268" y="36" type="curve" smooth="yes"/>
      <point x="360" y="36"/>
      <point x="433" y="103"/>
      <point x="433" y="242" type="curve" smooth="yes"/>
      <point x="433" y="269" type="line" smooth="yes"/>
      <point x="433" y="408"/>
      <point x="360" y="475"/>
      <point x="268" y="475" type="curve" smooth="yes"/>
      <point x="176" y="475"/>
      <point x="103" y="408"/>
      <point x="103" y="269" type="curve" smooth="yes"/>
      <point x="103" y="242" type="line" smooth="yes"/>
      <point x="103" y="103"/>
      <point x="176" y="36"/>
    </contour>
  </outline>
</glyph>
<glyph name="p" format="1">
  <advance width="583"/>
  <unicode hex="0070"/>
  <outline>
    <contour>
      <point x="117" y="511" type="line"/>
      <point x="128" y="434" type="line"/>
      <point x="166" y="493"/>
      <point x="222" y="521"/>
      <point x="297" y="521" type="curve" smooth="yes"/>
      <point x="409" y="521"/>
      <point x="500" y="441"/>
      <point x="500" y="251" type="curve" smooth="yes"/>
      <point x="500" y="240" type="line" smooth="yes"/>
      <point x="500" y="78"/>
      <point x="409" y="-10"/>
      <point x="297" y="-10" type="curve" smooth="yes"/>
      <point x="225" y="-10"/>
      <point x="167" y="21"/>
      <point x="134" y="71" type="curve"/>
      <point x="134" y="-181" type="line"/>
      <point x="83" y="-181" type="line"/>
      <point x="83" y="511" type="line"/>
    </contour>
    <contour>
      <point x="133" y="254" type="curve" smooth="yes"/>
      <point x="133" y="242" type="line" smooth="yes"/>
      <point x="133" y="98"/>
      <point x="205" y="36"/>
      <point x="292" y="36" type="curve" smooth="yes"/>
      <point x="379" y="36"/>
      <point x="449" y="99"/>
      <point x="449" y="242" type="curve" smooth="yes"/>
      <point x="449" y="253" type="line" smooth="yes"/>
      <point x="449" y="419"/>
      <point x="379" y="475"/>
      <point x="292" y="475" type="curve" smooth="yes"/>
      <point x="206" y="475"/>
      <point x="133" y="423"/>
    </contour>
  </outline>
</glyph>
<glyph name="q" format="1">
  <advance width="583"/>
  <unicode hex="0071"/>
  <outline>
    <contour>
      <point x="418" y="-180" type="line"/>
      <point x="418" y="71" type="line"/>
      <point x="385" y="21"/>
      <point x="327" y="-10"/>
      <point x="255" y="-10" type="curve" smooth="yes"/>
      <point x="143" y="-10"/>
      <point x="52" y="78"/>
      <point x="52" y="240" type="curve" smooth="yes"/>
      <point x="52" y="251" type="line" smooth="yes"/>
      <point x="52" y="441"/>
      <point x="143" y="521"/>
      <point x="255" y="521" type="curve" smooth="yes"/>
      <point x="333" y="521"/>
      <point x="391" y="490"/>
      <point x="429" y="426" type="curve"/>
      <point x="448" y="511" type="line"/>
      <point x="469" y="511" type="line"/>
      <point x="469" y="-180" type="line"/>
    </contour>
    <contour>
      <point x="419" y="242" type="curve" smooth="yes"/>
      <point x="419" y="254" type="line" smooth="yes"/>
      <point x="419" y="423"/>
      <point x="346" y="475"/>
      <point x="260" y="475" type="curve" smooth="yes"/>
      <point x="173" y="475"/>
      <point x="103" y="419"/>
      <point x="103" y="253" type="curve" smooth="yes"/>
      <point x="103" y="242" type="line" smooth="yes"/>
      <point x="103" y="99"/>
      <point x="173" y="36"/>
      <point x="260" y="36" type="curve" smooth="yes"/>
      <point x="347" y="36"/>
      <point x="419" y="98"/>
    </contour>
  </outline>
</glyph>
<glyph name="v" format="1">
  <advance width="512"/>
  <unicode hex="0076"/>
  <outline>
    <contour>
      <point x="218" y="0" type="line"/>
      <point x="12" y="511" type="line"/>
      <point x="67" y="511" type="line"/>
      <point x="242" y="74" type="line"/>
      <point x="244" y="74" type="line"/>
      <point x="420" y="511" type="line"/>
      <point x="470" y="511" type="line"/>
      <point x="263" y="0" type="line"/>
    </contour>
  </outline>
</glyph>
<glyph name="w" format="1">
  <advance width="811"/>
  <unicode hex="0077"/>
  <outline>
    <contour>
      <point x="197" y="0" type="line"/>
      <point x="20" y="511" type="line"/>
      <point x="73" y="511" type="line"/>
      <point x="218" y="93" type="line"/>
      <point x="221" y="93" type="line"/>
      <point x="366" y="511" type="line"/>
      <point x="425" y="511" type="line"/>
      <point x="570" y="93" type="line"/>
      <point x="573" y="93" type="line"/>
      <point x="718" y="511" type="line"/>
      <point x="767" y="511" type="line"/>
      <point x="589" y="0" type="line"/>
      <point x="549" y="0" type="line"/>
      <point x="394" y="446" type="line"/>
      <point x="392" y="446" type="line"/>
      <point x="237" y="0" type="line"/>
    </contour>
  </outline>
</glyph>
<glyph name="x" format="1">
  <advance width="519"/>
  <unicode hex="0078"/>
  <outline>
    <contour>
      <point x="236" y="221" type="line"/>
      <point x="235" y="221" type="line"/>
      <point x="76" y="0" type="line"/>
      <point x="18" y="0" type="line"/>
      <point x="208" y="262" type="line"/>
      <point x="26" y="511" type="line"/>
      <point x="90" y="511" type="line"/>
      <point x="238" y="303" type="line"/>
      <point x="239" y="303" type="line"/>
      <point x="389" y="511" type="line"/>
      <point x="447" y="511" type="line"/>
      <point x="266" y="262" type="line"/>
      <point x="456" y="0" type="line"/>
      <point x="393" y="0" type="line"/>
    </contour>
  </outline>
</glyph>
<glyph name="z" format="1">
  <advance width="463"/>
  <unicode hex="007A"/>
  <outline>
    <contour>
      <point x="36" y="24" type="line"/>
      <point x="313" y="465" type="line"/>
      <point x="53" y="465" type="line"/>
      <point x="53" y="511" type="line"/>
      <point x="388" y="511" type="line"/>
      <point x="388" y="487" type="line"/>
      <point x="110" y="46" type="line"/>
      <point x="396" y="46" type="line"/>
      <point x="396" y="0" type="line"/>
      <point x="36" y="0" type="line"/>
    </contour>
  </outline>
</glyph>
<glyph name="braceleft" format="1">
  <advance width="315"/>
  <unicode hex="007B"/>
  <outline>
    <contour>
      <point x="80" y="268" type="curve"/>
      <point x="80" y="259" type="line"/>
      <point x="147" y="259"/>
      <point x="161" y="221"/>
      <point x="163" y="156" type="curve" smooth="yes"/>
      <point x="170" y="-62" type="line" smooth="yes"/>
      <point x="171" y="-108"/>
      <point x="221" y="-121"/>
      <point x="249" y="-121" type="curve"/>
      <point x="249" y="-159" type="line"/>
      <point x="191" y="-159"/>
      <point x="117" y="-132"/>
      <point x="117" y="-47" type="curve" smooth="yes"/>
      <point x="117" y="167" type="line" smooth="yes"/>
      <point x="117" y="208"/>
      <point x="76" y="225"/>
      <point x="40" y="224" type="curve"/>
      <point x="40" y="303" type="line"/>
      <point x="76" y="302"/>
      <point x="117" y="319"/>
      <point x="117" y="360" type="curve" smooth="yes"/>
      <point x="117" y="574" type="line" smooth="yes"/>
      <point x="117" y="659"/>
      <point x="191" y="686"/>
      <point x="249" y="686" type="curve"/>
      <point x="249" y="648" type="line"/>
      <point x="221" y="648"/>
      <point x="171" y="635"/>
      <point x="170" y="589" type="curve" smooth="yes"/>
      <point x="163" y="371" type="line" smooth="yes"/>
      <point x="161" y="306"/>
      <point x="147" y="268"/>
    </contour>
  </outline>
</glyph>
<glyph name="bar" format="1">
  <advance width="248"/>
  <unicode hex="007C"/>
  <outline>
    <contour>
      <point x="84" y="720" type="line"/>
      <point x="136" y="720" type="line"/>
      <point x="136" y="-199" type="line"/>
      <point x="84" y="-199" type="line"/>
    </contour>
  </outline>
</glyph>
<glyph name="braceright" format="1">
  <advance width="315"/>
  <unicode hex="007D"/>
  <outline>
    <contour>
      <point x="209" y="259" type="curve"/>
      <point x="209" y="268" type="line"/>
      <point x="142" y="268"/>
      <point x="128" y="306"/>
      <point x="126" y="371" type="curve" smooth="yes"/>
      <point x="119" y="589" type="line" smooth="yes"/>
      <point x="118" y="635"/>
      <point x="68" y="648"/>
      <point x="40" y="648" type="curve"/>
      <point x="40" y="686" type="line"/>
      <point x="98" y="686"/>
      <point x="172" y="659"/>
      <point x="172" y="574" type="curve" smooth="yes"/>
      <point x="172" y="360" type="line" smooth="yes"/>
      <point x="172" y="319"/>
      <point x="213" y="302"/>
      <point x="249" y="303" type="curve"/>
      <point x="249" y="224" type="line"/>
      <point x="213" y="225"/>
      <point x="172" y="208"/>
      <point x="172" y="167" type="curve" smooth="yes"/>
      <point x="172" y="-47" type="line" smooth="yes"/>
      <point x="172" y="-132"/>
      <point x="98" y="-159"/>
      <point x="40" y="-159" type="curve"/>
      <point x="40" y="-121" type="line"/>
      <point x="68" y="-121"/>
      <point x="118" y="-108"/>
      <point x="119" y="-62" type="curve" smooth="yes"/>
      <point x="126" y="156" type="line" smooth="yes"/>
      <point x="128" y="221"/>
      <point x="142" y="259"/>
    </contour>
  </outline>
</glyph>
<glyph name="asciitilde" format="1">
  <advance width="689"/>
  <unicode hex="007E"/>
  <outline>
    <contour>
      <point x="628" y="374" type="curve"/>
      <point x="628" y="314" type="line"/>
      <point x="628" y="314"/>
      <point x="560" y="236"/>
      <point x="465" y="236" type="curve" smooth="yes"/>
      <point x="380" y="236"/>
      <point x="315" y="302"/>
      <point x="227" y="302" type="curve" smooth="yes"/>
      <point x="132" y="302"/>
      <point x="64" y="224"/>
      <point x="64" y="224" type="curve"/>
      <point x="64" y="284" type="line"/>
      <point x="64" y="284"/>
      <point x="132" y="362"/>
      <point x="227" y="362" type="curve" smooth="yes"/>
      <point x="312" y="362"/>
      <point x="377" y="296"/>
      <point x="465" y="296" type="curve" smooth="yes"/>
      <point x="560" y="296"/>
      <point x="628" y="374"/>
    </contour>
  </outline>
</glyph>
<glyph name="exclamdown" format="1">
  <advance width="254"/>
  <unicode hex="00A1"/>
  <outline>
    <contour>
      <point x="135" y="510" type="line"/>
      <point x="135" y="441" type="line"/>
      <point x="70" y="441" type="line"/>
      <point x="70" y="510" type="line"/>
    </contour>
    <contour>
      <point x="124" y="369" type="line"/>
      <point x="135" y="-176" type="line"/>
      <point x="69" y="-176" type="line"/>
      <point x="82" y="369" type="line"/>
    </contour>
  </outline>
</glyph>
<glyph name="cent" format="1">
  <advance width="527"/>
  <unicode hex="00A2"/>
  <outline>
    <contour>
      <point x="288" y="693" type="line"/>
      <point x="278" y="608" type="line"/>
      <point x="382" y="601"/>
      <point x="461" y="528"/>
      <point x="461" y="402" type="curve"/>
      <point x="411" y="402" type="line"/>
      <point x="411" y="511"/>
      <point x="343" y="563"/>
      <point x="261" y="563" type="curve" smooth="yes"/>
      <point x="169" y="563"/>
      <point x="99" y="496"/>
      <point x="99" y="357" type="curve" smooth="yes"/>
      <point x="99" y="330" type="line" smooth="yes"/>
      <point x="99" y="191"/>
      <point x="170" y="124"/>
      <point x="262" y="124" type="curve" smooth="yes"/>
      <point x="343" y="124"/>
      <point x="411" y="174"/>
      <point x="411" y="285" type="curve"/>
      <point x="461" y="285" type="line"/>
      <point x="461" y="158"/>
      <point x="382" y="85"/>
      <point x="278" y="79" type="curve"/>
      <point x="288" y="-6" type="line"/>
      <point x="238" y="-6" type="line"/>
      <point x="247" y="79" type="line"/>
      <point x="129" y="86"/>
      <point x="48" y="177"/>
      <point x="48" y="336" type="curve" smooth="yes"/>
      <point x="48" y="351" type="line" smooth="yes"/>
      <point x="48" y="510"/>
      <point x="128" y="602"/>
      <point x="247" y="609" type="curve"/>
      <point x="238" y="693" type="line"/>
    </contour>
  </outline>
</glyph>
<glyph name="sterling" format="1">
  <advance width="597"/>
  <unicode hex="00A3"/>
  <outline>
    <contour>
      <point x="168" y="362" type="line"/>
      <point x="168" y="524" type="line" smooth="yes"/>
      <point x="168" y="640"/>
      <point x="254" y="700"/>
      <point x="361" y="700" type="curve" smooth="yes"/>
      <point x="468" y="700"/>
      <point x="550" y="640"/>
      <point x="550" y="524" type="curve" smooth="yes"/>
      <point x="550" y="505" type="line"/>
      <point x="500" y="505" type="line"/>
      <point x="500" y="518" type="line" smooth="yes"/>
      <point x="500" y="613"/>
      <point x="438" y="652"/>
      <point x="361" y="652" type="curve" smooth="yes"/>
      <point x="284" y="652"/>
      <point x="222" y="612"/>
      <point x="222" y="518" type="curve" smooth="yes"/>
      <point x="222" y="362" type="line"/>
      <point x="450" y="362" type="line"/>
      <point x="450" y="314" type="line"/>
      <point x="222" y="314" type="line"/>
      <point x="222" y="277" type="line"/>
      <point x="209" y="48" type="line"/>
      <point x="533" y="48" type="line"/>
      <point x="533" y="0" type="line"/>
      <point x="67" y="0" type="line"/>
      <point x="67" y="48" type="line"/>
      <point x="168" y="48" type="line"/>
      <point x="168" y="314" type="line"/>
      <point x="29" y="314" type="line"/>
      <point x="29" y="362" type="line"/>
    </contour>
  </outline>
</glyph>
<glyph name="currency" format="1">
  <advance width="624"/>
  <unicode hex="00A4"/>
  <outline>
    <contour>
      <point x="562" y="544" type="line"/>
      <point x="507" y="490" type="line"/>
      <point x="544" y="448"/>
      <point x="560" y="392"/>
      <point x="560" y="336" type="curve" smooth="yes"/>
      <point x="560" y="280"/>
      <point x="544" y="224"/>
      <point x="507" y="182" type="curve"/>
      <point x="562" y="128" type="line"/>
      <point x="520" y="86" type="line"/>
      <point x="464" y="142" type="line"/>
      <point x="422" y="106"/>
      <point x="368" y="88"/>
      <point x="312" y="88" type="curve" smooth="yes"/>
      <point x="256" y="88"/>
      <point x="202" y="106"/>
      <point x="160" y="142" type="curve"/>
      <point x="104" y="86" type="line"/>
      <point x="62" y="128" type="line"/>
      <point x="117" y="182" type="line"/>
      <point x="80" y="224"/>
      <point x="64" y="280"/>
      <point x="64" y="336" type="curve" smooth="yes"/>
      <point x="64" y="392"/>
      <point x="80" y="448"/>
      <point x="117" y="490" type="curve"/>
      <point x="62" y="544" type="line"/>
      <point x="104" y="586" type="line"/>
      <point x="160" y="530" type="line"/>
      <point x="202" y="566"/>
      <point x="256" y="584"/>
      <point x="312" y="584" type="curve" smooth="yes"/>
      <point x="368" y="584"/>
      <point x="422" y="566"/>
      <point x="464" y="530" type="curve"/>
      <point x="520" y="586" type="line"/>
    </contour>
    <contour>
      <point x="312" y="535" type="curve" smooth="yes"/>
      <point x="204" y="535"/>
      <point x="112" y="446"/>
      <point x="112" y="336" type="curve" smooth="yes"/>
      <point x="112" y="226"/>
      <point x="204" y="136"/>
      <point x="312" y="136" type="curve" smooth="yes"/>
      <point x="420" y="136"/>
      <point x="511" y="226"/>
      <point x="511" y="336" type="curve" smooth="yes"/>
      <point x="511" y="446"/>
      <point x="420" y="535"/>
    </contour>
  </outline>
</glyph>
<glyph name="yen" format="1">
  <advance width="634"/>
  <unicode hex="00A5"/>
  <outline>
    <contour>
      <point x="174" y="433" type="line"/>
      <point x="26" y="686" type="line"/>
      <point x="89" y="686" type="line"/>
      <point x="300" y="321" type="line"/>
      <point x="303" y="321" type="line"/>
      <point x="517" y="686" type="line"/>
      <point x="572" y="686" type="line"/>
      <point x="423" y="433" type="line"/>
      <point x="546" y="433" type="line"/>
      <point x="546" y="384" type="line"/>
      <point x="395" y="384" type="line"/>
      <point x="343" y="295" type="line"/>
      <point x="546" y="295" type="line"/>
      <point x="546" y="248" type="line"/>
      <point x="326" y="248" type="line"/>
      <point x="326" y="0" type="line"/>
      <point x="272" y="0" type="line"/>
      <point x="272" y="248" type="line"/>
      <point x="52" y="248" type="line"/>
      <point x="52" y="295" type="line"/>
      <point x="255" y="295" type="line"/>
      <point x="203" y="384" type="line"/>
      <point x="52" y="384" type="line"/>
      <point x="52" y="433" type="line"/>
    </contour>
  </outline>
</glyph>
<glyph name="brokenbar" format="1">
  <advance width="269"/>
  <unicode hex="00A6"/>
  <outline>
    <contour>
      <point x="155" y="686" type="line"/>
      <point x="155" y="424" type="line"/>
      <point x="90" y="424" type="line"/>
      <point x="90" y="686" type="line"/>
    </contour>
    <contour>
      <point x="155" y="262" type="line"/>
      <point x="155" y="0" type="line"/>
      <point x="90" y="0" type="line"/>
      <point x="90" y="262" type="line"/>
    </contour>
  </outline>
</glyph>
<glyph name="section" format="1">
  <advance width="514"/>
  <unicode hex="00A7"/>
  <outline>
    <contour>
      <point x="447" y="243" type="curve" smooth="yes"/>
      <point x="447" y="175"/>
      <point x="415" y="137"/>
      <point x="344" y="100" type="curve"/>
      <point x="396" y="69"/>
      <point x="435" y="29"/>
      <point x="435" y="-35" type="curve" smooth="yes"/>
      <point x="435" y="-117"/>
      <point x="374" y="-185"/>
      <point x="237" y="-185" type="curve" smooth="yes"/>
      <point x="101" y="-185"/>
      <point x="50" y="-107"/>
      <point x="50" y="-47" type="curve" smooth="yes"/>
      <point x="50" y="-41"/>
      <point x="51" y="-33"/>
      <point x="51" y="-33" type="curve"/>
      <point x="101" y="-33" type="line"/>
      <point x="101" y="-46" type="line" smooth="yes"/>
      <point x="101" y="-69"/>
      <point x="110" y="-139"/>
      <point x="246" y="-139" type="curve" smooth="yes"/>
      <point x="378" y="-139"/>
      <point x="384" y="-65"/>
      <point x="384" y="-37" type="curve" smooth="yes"/>
      <point x="384" y="109"/>
      <point x="38" y="108"/>
      <point x="38" y="268" type="curve" smooth="yes"/>
      <point x="38" y="335"/>
      <point x="69" y="373"/>
      <point x="140" y="411" type="curve"/>
      <point x="89" y="442"/>
      <point x="50" y="482"/>
      <point x="50" y="546" type="curve" smooth="yes"/>
      <point x="50" y="628"/>
      <point x="111" y="696"/>
      <point x="248" y="696" type="curve" smooth="yes"/>
      <point x="384" y="696"/>
      <point x="435" y="618"/>
      <point x="435" y="558" type="curve" smooth="yes"/>
      <point x="435" y="552"/>
      <point x="434" y="544"/>
      <point x="434" y="544" type="curve"/>
      <point x="384" y="544" type="line"/>
      <point x="384" y="557" type="line" smooth="yes"/>
      <point x="384" y="580"/>
      <point x="375" y="650"/>
      <point x="239" y="650" type="curve" smooth="yes"/>
      <point x="107" y="650"/>
      <point x="101" y="576"/>
      <point x="101" y="548" type="curve" smooth="yes"/>
      <point x="101" y="402"/>
      <point x="447" y="403"/>
    </contour>
    <contour>
      <point x="396" y="231" type="curve" smooth="yes"/>
      <point x="396" y="315"/>
      <point x="273" y="343"/>
      <point x="174" y="392" type="curve"/>
      <point x="140" y="376"/>
      <point x="89" y="346"/>
      <point x="89" y="280" type="curve" smooth="yes"/>
      <point x="89" y="195"/>
      <point x="211" y="167"/>
      <point x="310" y="118" type="curve"/>
      <point x="344" y="134"/>
      <point x="396" y="165"/>
    </contour>
  </outline>
</glyph>
<glyph name="dieresis" format="1">
  <advance width="440"/>
  <unicode hex="00A8"/>
  <outline>
    <contour>
      <point x="146" y="720" type="line"/>
      <point x="146" y="651" type="line"/>
      <point x="81" y="651" type="line"/>
      <point x="81" y="720" type="line"/>
    </contour>
    <contour>
      <point x="322" y="720" type="line"/>
      <point x="322" y="651" type="line"/>
      <point x="257" y="651" type="line"/>
      <point x="257" y="720" type="line"/>
    </contour>
  </outline>
</glyph>
<glyph name="copyright" format="1">
  <advance width="780"/>
  <unicode hex="00A9"/>
  <outline>
    <contour>
      <point x="744" y="344" type="curve" smooth="yes"/>
      <point x="744" y="147"/>
      <point x="585" y="-10"/>
      <point x="390" y="-10" type="curve" smooth="yes"/>
      <point x="194" y="-10"/>
      <point x="36" y="147"/>
      <point x="36" y="344" type="curve" smooth="yes"/>
      <point x="36" y="539"/>
      <point x="194" y="696"/>
      <point x="390" y="696" type="curve" smooth="yes"/>
      <point x="585" y="696"/>
      <point x="744" y="539"/>
    </contour>
    <contour>
      <point x="718" y="344" type="curve" smooth="yes"/>
      <point x="718" y="524"/>
      <point x="570" y="670"/>
      <point x="390" y="670" type="curve" smooth="yes"/>
      <point x="209" y="670"/>
      <point x="62" y="524"/>
      <point x="62" y="344" type="curve" smooth="yes"/>
      <point x="62" y="162"/>
      <point x="209" y="16"/>
      <point x="390" y="16" type="curve" smooth="yes"/>
      <point x="570" y="16"/>
      <point x="718" y="162"/>
    </contour>
    <contour>
      <point x="517" y="394" type="line"/>
      <point x="517" y="401" type="line" smooth="yes"/>
      <point x="517" y="484"/>
      <point x="461" y="522"/>
      <point x="394" y="522" type="curve" smooth="yes"/>
      <point x="326" y="522"/>
      <point x="271" y="484"/>
      <point x="271" y="401" type="curve" smooth="yes"/>
      <point x="271" y="287" type="line" smooth="yes"/>
      <point x="271" y="202"/>
      <point x="326" y="165"/>
      <point x="394" y="165" type="curve" smooth="yes"/>
      <point x="466" y="165"/>
      <point x="518" y="207"/>
      <point x="518" y="292" type="curve"/>
      <point x="553" y="292" type="line"/>
      <point x="553" y="177"/>
      <point x="482" y="129"/>
      <point x="394" y="129" type="curve" smooth="yes"/>
      <point x="304" y="129"/>
      <point x="231" y="176"/>
      <point x="231" y="294" type="curve" smooth="yes"/>
      <point x="231" y="393" type="line" smooth="yes"/>
      <point x="231" y="510"/>
      <point x="304" y="558"/>
      <point x="394" y="558" type="curve" smooth="yes"/>
      <point x="482" y="558"/>
      <point x="553" y="509"/>
      <point x="553" y="394" type="curve"/>
    </contour>
  </outline>
</glyph>
<glyph name="ordfeminine" format="1">
  <advance width="415"/>
  <unicode hex="00AA"/>
  <outline>
    <contour>
      <point x="301" y="603" type="curve" smooth="yes"/>
      <point x="301" y="425" type="line" smooth="yes"/>
      <point x="301" y="414"/>
      <point x="306" y="410"/>
      <point x="312" y="410" type="curve" smooth="yes"/>
      <point x="320" y="410"/>
      <point x="334" y="416"/>
      <point x="347" y="424" type="curve"/>
      <point x="347" y="387" type="line"/>
      <point x="335" y="378"/>
      <point x="320" y="373"/>
      <point x="304" y="373" type="curve" smooth="yes"/>
      <point x="275" y="373"/>
      <point x="264" y="392"/>
      <point x="261" y="421" type="curve"/>
      <point x="235" y="388"/>
      <point x="201" y="373"/>
      <point x="155" y="373" type="curve" smooth="yes"/>
      <point x="104" y="373"/>
      <point x="55" y="391"/>
      <point x="55" y="463" type="curve" smooth="yes"/>
      <point x="55" y="554"/>
      <point x="142" y="564"/>
      <point x="261" y="564" type="curve"/>
      <point x="261" y="597" type="line" smooth="yes"/>
      <point x="261" y="644"/>
      <point x="239" y="660"/>
      <point x="187" y="660" type="curve" smooth="yes"/>
      <point x="141" y="660"/>
      <point x="106" y="644"/>
      <point x="106" y="603" type="curve" smooth="yes"/>
      <point x="106" y="594" type="line"/>
      <point x="68" y="594" type="line"/>
      <point x="66" y="598"/>
      <point x="66" y="607"/>
      <point x="66" y="609" type="curve" smooth="yes"/>
      <point x="66" y="666"/>
      <point x="119" y="697"/>
      <point x="187" y="697" type="curve" smooth="yes"/>
      <point x="264" y="697"/>
      <point x="301" y="667"/>
    </contour>
    <contour>
      <point x="261" y="512" type="curve" smooth="yes"/>
      <point x="261" y="527" type="line"/>
      <point x="160" y="527"/>
      <point x="95" y="522"/>
      <point x="95" y="462" type="curve" smooth="yes"/>
      <point x="95" y="426"/>
      <point x="115" y="410"/>
      <point x="161" y="410" type="curve" smooth="yes"/>
      <point x="210" y="410"/>
      <point x="261" y="441"/>
    </contour>
  </outline>
</glyph>
<glyph name="guillemetleft" format="1">
  <advance width="460"/>
  <unicode hex="00AB"/>
  <outline>
    <contour>
      <point x="49" y="337" type="line"/>
      <point x="172" y="511" type="line"/>
      <point x="213" y="511" type="line"/>
      <point x="116" y="337" type="line"/>
      <point x="213" y="163" type="line"/>
      <point x="172" y="163" type="line"/>
    </contour>
    <contour>
      <point x="231" y="337" type="line"/>
      <point x="355" y="511" type="line"/>
      <point x="396" y="511" type="line"/>
      <point x="299" y="337" type="line"/>
      <point x="396" y="163" type="line"/>
      <point x="355" y="163" type="line"/>
    </contour>
  </outline>
</glyph>
<glyph name="logicalnot" format="1">
  <advance width="617"/>
  <unicode hex="00AC"/>
  <outline>
    <contour>
      <point x="491" y="184" type="line"/>
      <point x="491" y="376" type="line"/>
      <point x="37" y="376" type="line"/>
      <point x="37" y="435" type="line"/>
      <point x="549" y="435" type="line"/>
      <point x="549" y="184" type="line"/>
    </contour>
  </outline>
</glyph>
<glyph name="registered" format="1">
  <advance width="780"/>
  <unicode hex="00AE"/>
  <outline>
    <contour>
      <point x="744" y="344" type="curve" smooth="yes"/>
      <point x="744" y="147"/>
      <point x="585" y="-10"/>
      <point x="390" y="-10" type="curve" smooth="yes"/>
      <point x="194" y="-10"/>
      <point x="36" y="147"/>
      <point x="36" y="344" type="curve" smooth="yes"/>
      <point x="36" y="539"/>
      <point x="194" y="696"/>
      <point x="390" y="696" type="curve" smooth="yes"/>
      <point x="585" y="696"/>
      <point x="744" y="539"/>
    </contour>
    <contour>
      <point x="718" y="344" type="curve" smooth="yes"/>
      <point x="718" y="524"/>
      <point x="570" y="670"/>
      <point x="390" y="670" type="curve" smooth="yes"/>
      <point x="209" y="670"/>
      <point x="62" y="524"/>
      <point x="62" y="344" type="curve" smooth="yes"/>
      <point x="62" y="162"/>
      <point x="209" y="16"/>
      <point x="390" y="16" type="curve" smooth="yes"/>
      <point x="570" y="16"/>
      <point x="718" y="162"/>
    </contour>
    <contour>
      <point x="562" y="151" type="curve"/>
      <point x="562" y="137" type="line"/>
      <point x="562" y="137"/>
      <point x="551" y="134"/>
      <point x="543" y="134" type="curve" smooth="yes"/>
      <point x="522" y="134"/>
      <point x="493" y="145"/>
      <point x="493" y="215" type="curve" smooth="yes"/>
      <point x="493" y="320"/>
      <point x="439" y="328"/>
      <point x="420" y="328" type="curve" smooth="yes"/>
      <point x="295" y="328" type="line"/>
      <point x="295" y="135" type="line"/>
      <point x="254" y="135" type="line"/>
      <point x="254" y="547" type="line"/>
      <point x="423" y="547" type="line" smooth="yes"/>
      <point x="483" y="547"/>
      <point x="538" y="506"/>
      <point x="538" y="443" type="curve" smooth="yes"/>
      <point x="538" y="395"/>
      <point x="506" y="360"/>
      <point x="475" y="347" type="curve"/>
      <point x="475" y="343" type="line"/>
      <point x="494" y="335"/>
      <point x="531" y="311"/>
      <point x="531" y="229" type="curve" smooth="yes"/>
      <point x="531" y="185"/>
      <point x="531" y="163"/>
    </contour>
    <contour>
      <point x="295" y="363" type="line"/>
      <point x="425" y="363" type="line" smooth="yes"/>
      <point x="467" y="363"/>
      <point x="501" y="397"/>
      <point x="501" y="438" type="curve" smooth="yes"/>
      <point x="501" y="480"/>
      <point x="467" y="511"/>
      <point x="425" y="511" type="curve" smooth="yes"/>
      <point x="295" y="511" type="line"/>
    </contour>
  </outline>
</glyph>
<glyph name="degree" format="1">
  <advance width="394"/>
  <unicode hex="00B0"/>
  <outline>
    <contour>
      <point x="347" y="546" type="curve" smooth="yes"/>
      <point x="347" y="463"/>
      <point x="279" y="396"/>
      <point x="197" y="396" type="curve" smooth="yes"/>
      <point x="114" y="396"/>
      <point x="48" y="463"/>
      <point x="47" y="546" type="curve" smooth="yes"/>
      <point x="47" y="628"/>
      <point x="114" y="696"/>
      <point x="197" y="696" type="curve" smooth="yes"/>
      <point x="279" y="696"/>
      <point x="347" y="628"/>
    </contour>
    <contour>
      <point x="91" y="545" type="curve" smooth="yes"/>
      <point x="91" y="486"/>
      <point x="138" y="439"/>
      <point x="197" y="439" type="curve" smooth="yes"/>
      <point x="256" y="439"/>
      <point x="303" y="486"/>
      <point x="303" y="545" type="curve" smooth="yes"/>
      <point x="303" y="604"/>
      <point x="256" y="651"/>
      <point x="197" y="651" type="curve" smooth="yes"/>
      <point x="138" y="651"/>
      <point x="91" y="604"/>
    </contour>
  </outline>
</glyph>
<glyph name="plusminus" format="1">
  <advance width="615"/>
  <unicode hex="00B1"/>
  <outline>
    <contour>
      <point x="563" y="344" type="line"/>
      <point x="563" y="286" type="line"/>
      <point x="336" y="286" type="line"/>
      <point x="336" y="120" type="line"/>
      <point x="278" y="120" type="line"/>
      <point x="278" y="286" type="line"/>
      <point x="51" y="286" type="line"/>
      <point x="51" y="344" type="line"/>
      <point x="278" y="344" type="line"/>
      <point x="278" y="511" type="line"/>
      <point x="336" y="511" type="line"/>
      <point x="336" y="344" type="line"/>
    </contour>
    <contour>
      <point x="57" y="58" type="line"/>
      <point x="557" y="58" type="line"/>
      <point x="557" y="0" type="line"/>
      <point x="57" y="0" type="line"/>
    </contour>
  </outline>
</glyph>
<glyph name="threesuperior" format="1">
  <advance width="363"/>
  <unicode hex="00B3"/>
  <outline>
    <contour>
      <point x="82" y="536" type="line"/>
      <point x="82" y="520" type="line" smooth="yes"/>
      <point x="82" y="476"/>
      <point x="118" y="449"/>
      <point x="170" y="449" type="curve" smooth="yes"/>
      <point x="221" y="449"/>
      <point x="258" y="474"/>
      <point x="258" y="520" type="curve" smooth="yes"/>
      <point x="258" y="570"/>
      <point x="218" y="593"/>
      <point x="170" y="593" type="curve" smooth="yes"/>
      <point x="123" y="593" type="line"/>
      <point x="123" y="630" type="line"/>
      <point x="167" y="630" type="line" smooth="yes"/>
      <point x="212" y="630"/>
      <point x="250" y="651"/>
      <point x="250" y="696" type="curve" smooth="yes"/>
      <point x="250" y="742"/>
      <point x="214" y="764"/>
      <point x="170" y="764" type="curve" smooth="yes"/>
      <point x="124" y="764"/>
      <point x="90" y="739"/>
      <point x="90" y="696" type="curve" smooth="yes"/>
      <point x="90" y="683" type="line"/>
      <point x="50" y="683" type="line"/>
      <point x="50" y="696" type="line" smooth="yes"/>
      <point x="50" y="763"/>
      <point x="103" y="801"/>
      <point x="170" y="801" type="curve" smooth="yes"/>
      <point x="236" y="801"/>
      <point x="291" y="765"/>
      <point x="291" y="696" type="curve" smooth="yes"/>
      <point x="291" y="650"/>
      <point x="270" y="632"/>
      <point x="239" y="614" type="curve"/>
      <point x="273" y="599"/>
      <point x="298" y="568"/>
      <point x="298" y="521" type="curve" smooth="yes"/>
      <point x="298" y="453"/>
      <point x="239" y="413"/>
      <point x="170" y="413" type="curve" smooth="yes"/>
      <point x="96" y="413"/>
      <point x="42" y="455"/>
      <point x="42" y="521" type="curve" smooth="yes"/>
      <point x="42" y="536" type="line"/>
    </contour>
  </outline>
</glyph>
<glyph name="acute" format="1">
  <advance width="333"/>
  <unicode hex="00B4"/>
  <outline>
    <contour>
      <point x="164" y="720" type="line"/>
      <point x="229" y="720" type="line"/>
      <point x="229" y="717" type="line"/>
      <point x="118" y="575" type="line"/>
      <point x="68" y="575" type="line"/>
    </contour>
  </outline>
</glyph>
<glyph name="micro" format="1">
  <advance width="612"/>
  <unicode hex="00B5"/>
  <outline>
    <contour>
      <point x="277" y="36" type="curve" smooth="yes"/>
      <point x="367" y="36"/>
      <point x="434" y="105"/>
      <point x="434" y="197" type="curve" smooth="yes"/>
      <point x="434" y="511" type="line"/>
      <point x="485" y="511" type="line"/>
      <point x="485" y="69" type="line" smooth="yes"/>
      <point x="485" y="45"/>
      <point x="497" y="36"/>
      <point x="512" y="36" type="curve" smooth="yes"/>
      <point x="527" y="36"/>
      <point x="547" y="43"/>
      <point x="562" y="52" type="curve"/>
      <point x="562" y="9" type="line"/>
      <point x="544" y="-3"/>
      <point x="522" y="-10"/>
      <point x="498" y="-10" type="curve" smooth="yes"/>
      <point x="449" y="-10"/>
      <point x="434" y="36"/>
      <point x="434" y="76" type="curve"/>
      <point x="399" y="22"/>
      <point x="339" y="-10"/>
      <point x="272" y="-10" type="curve" smooth="yes"/>
      <point x="217" y="-10"/>
      <point x="159" y="9"/>
      <point x="127" y="51" type="curve"/>
      <point x="127" y="51"/>
      <point x="133" y="22"/>
      <point x="133" y="1" type="curve" smooth="yes"/>
      <point x="133" y="-161" type="line"/>
      <point x="82" y="-161" type="line"/>
      <point x="82" y="511" type="line"/>
      <point x="133" y="511" type="line"/>
      <point x="133" y="189" type="line" smooth="yes"/>
      <point x="133" y="87"/>
      <point x="189" y="36"/>
    </contour>
  </outline>
</glyph>
<glyph name="paragraph" format="1">
  <advance width="524"/>
  <unicode hex="00B6"/>
  <outline>
    <contour>
      <point x="212" y="-174" type="line"/>
      <point x="212" y="249" type="line"/>
      <point x="106" y="265"/>
      <point x="25" y="356"/>
      <point x="25" y="466" type="curve" smooth="yes"/>
      <point x="25" y="601"/>
      <point x="123" y="686"/>
      <point x="244" y="686" type="curve" smooth="yes"/>
      <point x="454" y="686" type="line"/>
      <point x="454" y="637" type="line"/>
      <point x="388" y="637" type="line"/>
      <point x="388" y="-174" type="line"/>
      <point x="336" y="-174" type="line"/>
      <point x="336" y="637" type="line"/>
      <point x="264" y="637" type="line"/>
      <point x="264" y="-174" type="line"/>
    </contour>
  </outline>
</glyph>
<glyph name="cedilla" format="1">
  <advance width="350"/>
  <unicode hex="00B8"/>
  <outline>
    <contour>
      <point x="70" y="-184" type="curve"/>
      <point x="70" y="-138" type="line"/>
      <point x="83" y="-145"/>
      <point x="106" y="-151"/>
      <point x="139" y="-151" type="curve" smooth="yes"/>
      <point x="176" y="-151"/>
      <point x="215" y="-140"/>
      <point x="215" y="-97" type="curve" smooth="yes"/>
      <point x="215" y="-66"/>
      <point x="184" y="-51"/>
      <point x="157" y="-51" type="curve" smooth="yes"/>
      <point x="135" y="-51" type="line"/>
      <point x="135" y="-17" type="line"/>
      <point x="160" y="-17" type="line" smooth="yes"/>
      <point x="214" y="-17"/>
      <point x="266" y="-37"/>
      <point x="266" y="-106" type="curve" smooth="yes"/>
      <point x="266" y="-179"/>
      <point x="194" y="-197"/>
      <point x="148" y="-197" type="curve" smooth="yes"/>
      <point x="123" y="-197"/>
      <point x="94" y="-193"/>
    </contour>
  </outline>
</glyph>
<glyph name="onesuperior" format="1">
  <advance width="334"/>
  <unicode hex="00B9"/>
  <outline>
    <contour>
      <point x="50" y="460" type="line"/>
      <point x="152" y="460" type="line"/>
      <point x="152" y="745" type="line"/>
      <point x="50" y="745" type="line"/>
      <point x="50" y="774" type="line"/>
      <point x="92" y="776"/>
      <point x="119" y="780"/>
      <point x="172" y="797" type="curve"/>
      <point x="194" y="797" type="line"/>
      <point x="194" y="460" type="line"/>
      <point x="271" y="460" type="line"/>
      <point x="271" y="422" type="line"/>
      <point x="50" y="422" type="line"/>
    </contour>
  </outline>
</glyph>
<glyph name="ordmasculine" format="1">
  <advance width="392"/>
  <unicode hex="00BA"/>
  <outline>
    <contour>
      <point x="184" y="377" type="curve" smooth="yes"/>
      <point x="108" y="377"/>
      <point x="53" y="433"/>
      <point x="53" y="533" type="curve" smooth="yes"/>
      <point x="53" y="542" type="line" smooth="yes"/>
      <point x="53" y="642"/>
      <point x="108" y="698"/>
      <point x="184" y="698" type="curve" smooth="yes"/>
      <point x="262" y="698"/>
      <point x="317" y="642"/>
      <point x="317" y="542" type="curve" smooth="yes"/>
      <point x="317" y="533" type="line" smooth="yes"/>
      <point x="317" y="433"/>
      <point x="262" y="377"/>
    </contour>
    <contour>
      <point x="184" y="413" type="curve" smooth="yes"/>
      <point x="236" y="413"/>
      <point x="276" y="450"/>
      <point x="276" y="530" type="curve" smooth="yes"/>
      <point x="276" y="545" type="line" smooth="yes"/>
      <point x="276" y="624"/>
      <point x="236" y="661"/>
      <point x="184" y="661" type="curve" smooth="yes"/>
      <point x="133" y="661"/>
      <point x="93" y="624"/>
      <point x="93" y="545" type="curve" smooth="yes"/>
      <point x="93" y="530" type="line" smooth="yes"/>
      <point x="93" y="450"/>
      <point x="133" y="413"/>
    </contour>
  </outline>
</glyph>
<glyph name="guillemetright" format="1">
  <advance width="460"/>
  <unicode hex="00BB"/>
  <outline>
    <contour>
      <point x="153" y="337" type="line"/>
      <point x="56" y="511" type="line"/>
      <point x="97" y="511" type="line"/>
      <point x="221" y="337" type="line"/>
      <point x="97" y="163" type="line"/>
      <point x="56" y="163" type="line"/>
    </contour>
    <contour>
      <point x="336" y="337" type="line"/>
      <point x="239" y="511" type="line"/>
      <point x="280" y="511" type="line"/>
      <point x="403" y="337" type="line"/>
      <point x="280" y="163" type="line"/>
      <point x="239" y="163" type="line"/>
    </contour>
  </outline>
</glyph>
<glyph name="onequarter" format="1">
  <advance width="702"/>
  <unicode hex="00BC"/>
  <outline>
    <contour>
      <point x="36" y="349" type="line"/>
      <point x="138" y="349" type="line"/>
      <point x="138" y="634" type="line"/>
      <point x="36" y="634" type="line"/>
      <point x="36" y="663" type="line"/>
      <point x="78" y="665"/>
      <point x="105" y="669"/>
      <point x="158" y="686" type="curve"/>
      <point x="180" y="686" type="line"/>
      <point x="180" y="349" type="line"/>
      <point x="257" y="349" type="line"/>
      <point x="257" y="311" type="line"/>
      <point x="36" y="311" type="line"/>
    </contour>
    <contour>
      <point x="127" y="0" type="line"/>
      <point x="547" y="686" type="line"/>
      <point x="591" y="686" type="line"/>
      <point x="174" y="0" type="line"/>
    </contour>
    <contour>
      <point x="608" y="135" type="line"/>
      <point x="608" y="265" type="line"/>
      <point x="615" y="279"/>
      <point x="623" y="295"/>
      <point x="629" y="311" type="curve"/>
      <point x="649" y="311" type="line"/>
      <point x="649" y="135" type="line"/>
      <point x="692" y="135" type="line"/>
      <point x="692" y="98" type="line"/>
      <point x="649" y="98" type="line"/>
      <point x="649" y="0" type="line"/>
      <point x="608" y="0" type="line"/>
      <point x="608" y="98" type="line"/>
      <point x="427" y="98" type="line"/>
      <point x="427" y="132" type="line"/>
      <point x="448" y="157"/>
      <point x="520" y="287"/>
      <point x="552" y="375" type="curve"/>
      <point x="595" y="375" type="line"/>
      <point x="566" y="290"/>
      <point x="510" y="181"/>
      <point x="476" y="135" type="curve"/>
    </contour>
  </outline>
</glyph>
<glyph name="onehalf" format="1">
  <advance width="726"/>
  <unicode hex="00BD"/>
  <outline>
    <contour>
      <point x="33" y="349" type="line"/>
      <point x="135" y="349" type="line"/>
      <point x="135" y="634" type="line"/>
      <point x="33" y="634" type="line"/>
      <point x="33" y="663" type="line"/>
      <point x="75" y="665"/>
      <point x="102" y="669"/>
      <point x="155" y="686" type="curve"/>
      <point x="177" y="686" type="line"/>
      <point x="177" y="349" type="line"/>
      <point x="254" y="349" type="line"/>
      <point x="254" y="311" type="line"/>
      <point x="33" y="311" type="line"/>
    </contour>
    <contour>
      <point x="124" y="0" type="line"/>
      <point x="544" y="686" type="line"/>
      <point x="588" y="686" type="line"/>
      <point x="171" y="0" type="line"/>
    </contour>
    <contour>
      <point x="439" y="0" type="line"/>
      <point x="439" y="19" type="line" smooth="yes"/>
      <point x="439" y="64"/>
      <point x="462" y="91"/>
      <point x="498" y="115" type="curve" smooth="yes"/>
      <point x="605" y="186" type="line" smooth="yes"/>
      <point x="627" y="201"/>
      <point x="650" y="225"/>
      <point x="650" y="263" type="curve" smooth="yes"/>
      <point x="650" y="311"/>
      <point x="621" y="345"/>
      <point x="569" y="345" type="curve" smooth="yes"/>
      <point x="520" y="345"/>
      <point x="484" y="309"/>
      <point x="484" y="261" type="curve" smooth="yes"/>
      <point x="484" y="256"/>
      <point x="484" y="249"/>
      <point x="485" y="242" type="curve"/>
      <point x="444" y="242" type="line"/>
      <point x="443" y="247"/>
      <point x="443" y="255"/>
      <point x="443" y="257" type="curve" smooth="yes"/>
      <point x="443" y="333"/>
      <point x="499" y="383"/>
      <point x="569" y="383" type="curve" smooth="yes"/>
      <point x="645" y="383"/>
      <point x="691" y="331"/>
      <point x="691" y="265" type="curve" smooth="yes"/>
      <point x="691" y="206"/>
      <point x="657" y="173"/>
      <point x="624" y="151" type="curve" smooth="yes"/>
      <point x="512" y="76" type="line" smooth="yes"/>
      <point x="491" y="62"/>
      <point x="485" y="48"/>
      <point x="485" y="38" type="curve"/>
      <point x="693" y="38" type="line"/>
      <point x="693" y="0" type="line"/>
    </contour>
  </outline>
</glyph>
<glyph name="threequarters" format="1">
  <advance width="698"/>
  <unicode hex="00BE"/>
  <outline>
    <contour>
      <point x="71" y="427" type="line"/>
      <point x="71" y="411" type="line" smooth="yes"/>
      <point x="71" y="367"/>
      <point x="107" y="340"/>
      <point x="159" y="340" type="curve" smooth="yes"/>
      <point x="210" y="340"/>
      <point x="247" y="365"/>
      <point x="247" y="411" type="curve" smooth="yes"/>
      <point x="247" y="461"/>
      <point x="207" y="484"/>
      <point x="159" y="484" type="curve" smooth="yes"/>
      <point x="112" y="484" type="line"/>
      <point x="112" y="521" type="line"/>
      <point x="156" y="521" type="line" smooth="yes"/>
      <point x="201" y="521"/>
      <point x="239" y="542"/>
      <point x="239" y="587" type="curve" smooth="yes"/>
      <point x="239" y="633"/>
      <point x="203" y="655"/>
      <point x="159" y="655" type="curve" smooth="yes"/>
      <point x="113" y="655"/>
      <point x="79" y="630"/>
      <point x="79" y="587" type="curve" smooth="yes"/>
      <point x="79" y="574" type="line"/>
      <point x="39" y="574" type="line"/>
      <point x="39" y="587" type="line" smooth="yes"/>
      <point x="39" y="654"/>
      <point x="92" y="692"/>
      <point x="159" y="692" type="curve" smooth="yes"/>
      <point x="225" y="692"/>
      <point x="280" y="656"/>
      <point x="280" y="587" type="curve" smooth="yes"/>
      <point x="280" y="541"/>
      <point x="259" y="523"/>
      <point x="228" y="505" type="curve"/>
      <point x="262" y="490"/>
      <point x="287" y="459"/>
      <point x="287" y="412" type="curve" smooth="yes"/>
      <point x="287" y="344"/>
      <point x="228" y="304"/>
      <point x="159" y="304" type="curve" smooth="yes"/>
      <point x="85" y="304"/>
      <point x="31" y="346"/>
      <point x="31" y="412" type="curve" smooth="yes"/>
      <point x="31" y="427" type="line"/>
    </contour>
    <contour>
      <point x="147" y="0" type="line"/>
      <point x="567" y="686" type="line"/>
      <point x="611" y="686" type="line"/>
      <point x="194" y="0" type="line"/>
    </contour>
    <contour>
      <point x="628" y="135" type="line"/>
      <point x="628" y="265" type="line"/>
      <point x="635" y="279"/>
      <point x="643" y="295"/>
      <point x="649" y="311" type="curve"/>
      <point x="669" y="311" type="line"/>
      <point x="669" y="135" type="line"/>
      <point x="712" y="135" type="line"/>
      <point x="712" y="98" type="line"/>
      <point x="669" y="98" type="line"/>
      <point x="669" y="0" type="line"/>
      <point x="628" y="0" type="line"/>
      <point x="628" y="98" type="line"/>
      <point x="447" y="98" type="line"/>
      <point x="447" y="132" type="line"/>
      <point x="468" y="157"/>
      <point x="540" y="287"/>
      <point x="572" y="375" type="curve"/>
      <point x="615" y="375" type="line"/>
      <point x="586" y="290"/>
      <point x="530" y="181"/>
      <point x="496" y="135" type="curve"/>
    </contour>
  </outline>
</glyph>
<glyph name="questiondown" format="1">
  <advance width="495"/>
  <unicode hex="00BF"/>
  <outline>
    <contour>
      <point x="188" y="442" type="line"/>
      <point x="188" y="511" type="line"/>
      <point x="253" y="511" type="line"/>
      <point x="253" y="442" type="line"/>
    </contour>
    <contour>
      <point x="247" y="345" type="line"/>
      <point x="247" y="267" type="line" smooth="yes"/>
      <point x="247" y="145"/>
      <point x="89" y="145"/>
      <point x="89" y="-2" type="curve" smooth="yes"/>
      <point x="89" y="-43"/>
      <point x="107" y="-137"/>
      <point x="227" y="-137" type="curve" smooth="yes"/>
      <point x="366" y="-137"/>
      <point x="379" y="-18"/>
      <point x="379" y="17" type="curve" smooth="yes"/>
      <point x="379" y="27"/>
      <point x="376" y="46"/>
      <point x="376" y="46" type="curve"/>
      <point x="430" y="46" type="line"/>
      <point x="430" y="46"/>
      <point x="433" y="37"/>
      <point x="433" y="13" type="curve" smooth="yes"/>
      <point x="433" y="-18"/>
      <point x="417" y="-186"/>
      <point x="228" y="-186" type="curve" smooth="yes"/>
      <point x="39" y="-186"/>
      <point x="35" y="-20"/>
      <point x="35" y="-4" type="curve" smooth="yes"/>
      <point x="35" y="174"/>
      <point x="193" y="164"/>
      <point x="193" y="280" type="curve" smooth="yes"/>
      <point x="193" y="345" type="line"/>
    </contour>
  </outline>
</glyph>
<glyph name="Agrave" format="1">
  <advance width="652"/>
  <unicode hex="00C0"/>
  <outline>
    <contour>
      <point x="189" y="892" type="line"/>
      <point x="189" y="895" type="line"/>
      <point x="254" y="895" type="line"/>
      <point x="350" y="750" type="line"/>
      <point x="300" y="750" type="line"/>
    </contour>
    <contour>
      <point x="130" y="170" type="line"/>
      <point x="60" y="0" type="line"/>
      <point x="4" y="0" type="line"/>
      <point x="288" y="686" type="line"/>
      <point x="338" y="686" type="line"/>
      <point x="622" y="0" type="line"/>
      <point x="563" y="0" type="line"/>
      <point x="492" y="170" type="line"/>
    </contour>
    <contour>
      <point x="472" y="219" type="line"/>
      <point x="313" y="612" type="line"/>
      <point x="309" y="612" type="line"/>
      <point x="150" y="219" type="line"/>
    </contour>
  </outline>
</glyph>
<glyph name="Acircumflex" format="1">
  <advance width="652"/>
  <unicode hex="00C2"/>
  <outline>
    <contour>
      <point x="343" y="895" type="line"/>
      <point x="477" y="750" type="line"/>
      <point x="417" y="750" type="line"/>
      <point x="314" y="847" type="line"/>
      <point x="211" y="750" type="line"/>
      <point x="151" y="750" type="line"/>
      <point x="285" y="895" type="line"/>
    </contour>
    <contour>
      <point x="130" y="170" type="line"/>
      <point x="60" y="0" type="line"/>
      <point x="4" y="0" type="line"/>
      <point x="288" y="686" type="line"/>
      <point x="338" y="686" type="line"/>
      <point x="622" y="0" type="line"/>
      <point x="563" y="0" type="line"/>
      <point x="492" y="170" type="line"/>
    </contour>
    <contour>
      <point x="472" y="219" type="line"/>
      <point x="313" y="612" type="line"/>
      <point x="309" y="612" type="line"/>
      <point x="150" y="219" type="line"/>
    </contour>
  </outline>
</glyph>
<glyph name="Atilde" format="1">
  <advance width="652"/>
  <unicode hex="00C3"/>
  <outline>
    <contour>
      <point x="457" y="832" type="curve"/>
      <point x="494" y="832" type="line"/>
      <point x="494" y="800"/>
      <point x="472" y="750"/>
      <point x="393" y="750" type="curve" smooth="yes"/>
      <point x="329" y="750"/>
      <point x="280" y="782"/>
      <point x="226" y="782" type="curve" smooth="yes"/>
      <point x="193" y="782"/>
      <point x="176" y="773"/>
      <point x="169" y="750" type="curve"/>
      <point x="132" y="750" type="line"/>
      <point x="132" y="782"/>
      <point x="155" y="832"/>
      <point x="233" y="832" type="curve" smooth="yes"/>
      <point x="297" y="832"/>
      <point x="346" y="800"/>
      <point x="400" y="800" type="curve" smooth="yes"/>
      <point x="433" y="800"/>
      <point x="450" y="809"/>
    </contour>
    <contour>
      <point x="130" y="170" type="line"/>
      <point x="60" y="0" type="line"/>
      <point x="4" y="0" type="line"/>
      <point x="288" y="686" type="line"/>
      <point x="338" y="686" type="line"/>
      <point x="622" y="0" type="line"/>
      <point x="563" y="0" type="line"/>
      <point x="492" y="170" type="line"/>
    </contour>
    <contour>
      <point x="472" y="219" type="line"/>
      <point x="313" y="612" type="line"/>
      <point x="309" y="612" type="line"/>
      <point x="150" y="219" type="line"/>
    </contour>
  </outline>
</glyph>
<glyph name="Adieresis" format="1">
  <advance width="652"/>
  <unicode hex="00C4"/>
  <outline>
    <contour>
      <point x="259" y="819" type="line"/>
      <point x="259" y="750" type="line"/>
      <point x="194" y="750" type="line"/>
      <point x="194" y="819" type="line"/>
    </contour>
    <contour>
      <point x="435" y="819" type="line"/>
      <point x="435" y="750" type="line"/>
      <point x="370" y="750" type="line"/>
      <point x="370" y="819" type="line"/>
    </contour>
    <contour>
      <point x="130" y="170" type="line"/>
      <point x="60" y="0" type="line"/>
      <point x="4" y="0" type="line"/>
      <point x="288" y="686" type="line"/>
      <point x="338" y="686" type="line"/>
      <point x="622" y="0" type="line"/>
      <point x="563" y="0" type="line"/>
      <point x="492" y="170" type="line"/>
    </contour>
    <contour>
      <point x="472" y="219" type="line"/>
      <point x="313" y="612" type="line"/>
      <point x="309" y="612" type="line"/>
      <point x="150" y="219" type="line"/>
    </contour>
  </outline>
</glyph>
<glyph name="Aring" format="1">
  <advance width="652"/>
  <unicode hex="00C5"/>
  <outline>
    <contour>
      <point x="415" y="820" type="curve" smooth="yes"/>
      <point x="415" y="765"/>
      <point x="370" y="720"/>
      <point x="314" y="720" type="curve" smooth="yes"/>
      <point x="259" y="720"/>
      <point x="213" y="764"/>
      <point x="213" y="820" type="curve" smooth="yes"/>
      <point x="213" y="876"/>
      <point x="258" y="921"/>
      <point x="314" y="921" type="curve" smooth="yes"/>
      <point x="369" y="921"/>
      <point x="415" y="877"/>
    </contour>
    <contour>
      <point x="379" y="820" type="curve" smooth="yes"/>
      <point x="379" y="857"/>
      <point x="349" y="885"/>
      <point x="314" y="885" type="curve" smooth="yes"/>
      <point x="278" y="885"/>
      <point x="249" y="856"/>
      <point x="249" y="820" type="curve" smooth="yes"/>
      <point x="249" y="784"/>
      <point x="279" y="756"/>
      <point x="314" y="756" type="curve" smooth="yes"/>
      <point x="350" y="756"/>
      <point x="379" y="785"/>
    </contour>
    <contour>
      <point x="130" y="170" type="line"/>
      <point x="60" y="0" type="line"/>
      <point x="4" y="0" type="line"/>
      <point x="288" y="686" type="line"/>
      <point x="338" y="686" type="line"/>
      <point x="622" y="0" type="line"/>
      <point x="563" y="0" type="line"/>
      <point x="492" y="170" type="line"/>
    </contour>
    <contour>
      <point x="472" y="219" type="line"/>
      <point x="313" y="612" type="line"/>
      <point x="309" y="612" type="line"/>
      <point x="150" y="219" type="line"/>
    </contour>
  </outline>
</glyph>
<glyph name="AE" format="1">
  <advance width="983"/>
  <unicode hex="00C6"/>
  <outline>
    <contour>
      <point x="517" y="170" type="line"/>
      <point x="163" y="170" type="line"/>
      <point x="69" y="0" type="line"/>
      <point x="7" y="0" type="line"/>
      <point x="388" y="686" type="line"/>
      <point x="903" y="686" type="line"/>
      <point x="891" y="638" type="line"/>
      <point x="447" y="638" type="line"/>
      <point x="519" y="374" type="line"/>
      <point x="852" y="374" type="line"/>
      <point x="852" y="326" type="line"/>
      <point x="532" y="326" type="line"/>
      <point x="608" y="48" type="line"/>
      <point x="904" y="48" type="line"/>
      <point x="913" y="0" type="line"/>
      <point x="564" y="0" type="line"/>
    </contour>
    <contour>
      <point x="504" y="219" type="line"/>
      <point x="401" y="608" type="line"/>
      <point x="398" y="607" type="line"/>
      <point x="190" y="219" type="line"/>
    </contour>
  </outline>
</glyph>
<glyph name="Ccedilla" format="1">
  <advance width="663"/>
  <unicode hex="00C7"/>
  <outline>
    <contour>
      <point x="521" y="251" type="curve"/>
      <point x="574" y="251" type="line"/>
      <point x="574" y="48"/>
      <point x="452" y="-10"/>
      <point x="320" y="-10" type="curve" smooth="yes"/>
      <point x="173" y="-10"/>
      <point x="62" y="55"/>
      <point x="62" y="330" type="curve" smooth="yes"/>
      <point x="62" y="356" type="line" smooth="yes"/>
      <point x="62" y="631"/>
      <point x="173" y="696"/>
      <point x="320" y="696" type="curve" smooth="yes"/>
      <point x="452" y="696"/>
      <point x="574" y="642"/>
      <point x="574" y="434" type="curve"/>
      <point x="521" y="434" type="line"/>
      <point x="521" y="606"/>
      <point x="425" y="648"/>
      <point x="320" y="648" type="curve" smooth="yes"/>
      <point x="203" y="648"/>
      <point x="116" y="595"/>
      <point x="116" y="368" type="curve" smooth="yes"/>
      <point x="116" y="318" type="line" smooth="yes"/>
      <point x="116" y="91"/>
      <point x="203" y="38"/>
      <point x="320" y="38" type="curve" smooth="yes"/>
      <point x="425" y="38"/>
      <point x="521" y="81"/>
    </contour>
    <contour>
      <point x="221" y="-184" type="curve"/>
      <point x="221" y="-138" type="line"/>
      <point x="234" y="-145"/>
      <point x="257" y="-151"/>
      <point x="290" y="-151" type="curve" smooth="yes"/>
      <point x="327" y="-151"/>
      <point x="366" y="-140"/>
      <point x="366" y="-97" type="curve" smooth="yes"/>
      <point x="366" y="-66"/>
      <point x="335" y="-51"/>
      <point x="308" y="-51" type="curve" smooth="yes"/>
      <point x="286" y="-51" type="line"/>
      <point x="286" y="-17" type="line"/>
      <point x="311" y="-17" type="line" smooth="yes"/>
      <point x="365" y="-17"/>
      <point x="417" y="-37"/>
      <point x="417" y="-106" type="curve" smooth="yes"/>
      <point x="417" y="-179"/>
      <point x="345" y="-197"/>
      <point x="299" y="-197" type="curve" smooth="yes"/>
      <point x="274" y="-197"/>
      <point x="245" y="-193"/>
    </contour>
  </outline>
</glyph>
<glyph name="Egrave" format="1">
  <advance width="593"/>
  <unicode hex="00C8"/>
  <outline>
    <contour>
      <point x="184" y="892" type="line"/>
      <point x="184" y="895" type="line"/>
      <point x="249" y="895" type="line"/>
      <point x="345" y="750" type="line"/>
      <point x="295" y="750" type="line"/>
    </contour>
    <contour>
      <point x="92" y="686" type="line"/>
      <point x="516" y="686" type="line"/>
      <point x="506" y="638" type="line"/>
      <point x="146" y="638" type="line"/>
      <point x="146" y="374" type="line"/>
      <point x="465" y="374" type="line"/>
      <point x="465" y="326" type="line"/>
      <point x="146" y="326" type="line"/>
      <point x="146" y="48" type="line"/>
      <point x="515" y="48" type="line"/>
      <point x="526" y="0" type="line"/>
      <point x="92" y="0" type="line"/>
    </contour>
  </outline>
</glyph>
<glyph name="Eacute" format="1">
  <advance width="593"/>
  <unicode hex="00C9"/>
  <outline>
    <contour>
      <point x="379" y="895" type="line"/>
      <point x="444" y="895" type="line"/>
      <point x="444" y="892" type="line"/>
      <point x="333" y="750" type="line"/>
      <point x="283" y="750" type="line"/>
    </contour>
    <contour>
      <point x="92" y="686" type="line"/>
      <point x="516" y="686" type="line"/>
      <point x="506" y="638" type="line"/>
      <point x="146" y="638" type="line"/>
      <point x="146" y="374" type="line"/>
      <point x="465" y="374" type="line"/>
      <point x="465" y="326" type="line"/>
      <point x="146" y="326" type="line"/>
      <point x="146" y="48" type="line"/>
      <point x="515" y="48" type="line"/>
      <point x="526" y="0" type="line"/>
      <point x="92" y="0" type="line"/>
    </contour>
  </outline>
</glyph>
<glyph name="Edieresis" format="1">
  <advance width="593"/>
  <unicode hex="00CB"/>
  <outline>
    <contour>
      <point x="247" y="819" type="line"/>
      <point x="247" y="750" type="line"/>
      <point x="182" y="750" type="line"/>
      <point x="182" y="819" type="line"/>
    </contour>
    <contour>
      <point x="423" y="819" type="line"/>
      <point x="423" y="750" type="line"/>
      <point x="358" y="750" type="line"/>
      <point x="358" y="819" type="line"/>
    </contour>
    <contour>
      <point x="92" y="686" type="line"/>
      <point x="516" y="686" type="line"/>
      <point x="506" y="638" type="line"/>
      <point x="146" y="638" type="line"/>
      <point x="146" y="374" type="line"/>
      <point x="465" y="374" type="line"/>
      <point x="465" y="326" type="line"/>
      <point x="146" y="326" type="line"/>
      <point x="146" y="48" type="line"/>
      <point x="515" y="48" type="line"/>
      <point x="526" y="0" type="line"/>
      <point x="92" y="0" type="line"/>
    </contour>
  </outline>
</glyph>
<glyph name="Igrave" format="1">
  <advance width="364"/>
  <unicode hex="00CC"/>
  <outline>
    <contour>
      <point x="10" y="892" type="line"/>
      <point x="10" y="895" type="line"/>
      <point x="75" y="895" type="line"/>
      <point x="171" y="750" type="line"/>
      <point x="121" y="750" type="line"/>
    </contour>
    <contour>
      <point x="244" y="686" type="line"/>
      <point x="244" y="637" type="line"/>
      <point x="165" y="637" type="line"/>
      <point x="165" y="49" type="line"/>
      <point x="244" y="49" type="line"/>
      <point x="244" y="0" type="line"/>
      <point x="32" y="0" type="line"/>
      <point x="32" y="49" type="line"/>
      <point x="111" y="49" type="line"/>
      <point x="111" y="637" type="line"/>
      <point x="32" y="637" type="line"/>
      <point x="32" y="686" type="line"/>
    </contour>
  </outline>
</glyph>
<glyph name="Icircumflex" format="1">
  <advance width="364"/>
  <unicode hex="00CE"/>
  <outline>
    <contour>
      <point x="165" y="895" type="line"/>
      <point x="299" y="750" type="line"/>
      <point x="239" y="750" type="line"/>
      <point x="136" y="847" type="line"/>
      <point x="33" y="750" type="line"/>
      <point x="-27" y="750" type="line"/>
      <point x="107" y="895" type="line"/>
    </contour>
    <contour>
      <point x="242" y="686" type="line"/>
      <point x="242" y="637" type="line"/>
      <point x="163" y="637" type="line"/>
      <point x="163" y="49" type="line"/>
      <point x="242" y="49" type="line"/>
      <point x="242" y="0" type="line"/>
      <point x="30" y="0" type="line"/>
      <point x="30" y="49" type="line"/>
      <point x="109" y="49" type="line"/>
      <point x="109" y="637" type="line"/>
      <point x="30" y="637" type="line"/>
      <point x="30" y="686" type="line"/>
    </contour>
  </outline>
</glyph>
<glyph name="Idieresis" format="1">
  <advance width="364"/>
  <unicode hex="00CF"/>
  <outline>
    <contour>
      <point x="94" y="820" type="line"/>
      <point x="94" y="751" type="line"/>
      <point x="29" y="751" type="line"/>
      <point x="29" y="820" type="line"/>
    </contour>
    <contour>
      <point x="270" y="820" type="line"/>
      <point x="270" y="751" type="line"/>
      <point x="205" y="751" type="line"/>
      <point x="205" y="820" type="line"/>
    </contour>
    <contour>
      <point x="255" y="686" type="line"/>
      <point x="255" y="637" type="line"/>
      <point x="176" y="637" type="line"/>
      <point x="176" y="49" type="line"/>
      <point x="255" y="49" type="line"/>
      <point x="255" y="0" type="line"/>
      <point x="43" y="0" type="line"/>
      <point x="43" y="49" type="line"/>
      <point x="122" y="49" type="line"/>
      <point x="122" y="637" type="line"/>
      <point x="43" y="637" type="line"/>
      <point x="43" y="686" type="line"/>
    </contour>
  </outline>
</glyph>
<glyph name="Ntilde" format="1">
  <advance width="694"/>
  <unicode hex="00D1"/>
  <outline>
    <contour>
      <point x="484" y="832" type="curve"/>
      <point x="521" y="832" type="line"/>
      <point x="521" y="800"/>
      <point x="499" y="750"/>
      <point x="420" y="750" type="curve" smooth="yes"/>
      <point x="356" y="750"/>
      <point x="307" y="782"/>
      <point x="253" y="782" type="curve" smooth="yes"/>
      <point x="220" y="782"/>
      <point x="203" y="773"/>
      <point x="196" y="750" type="curve"/>
      <point x="159" y="750" type="line"/>
      <point x="159" y="782"/>
      <point x="182" y="832"/>
      <point x="260" y="832" type="curve" smooth="yes"/>
      <point x="324" y="832"/>
      <point x="373" y="800"/>
      <point x="427" y="800" type="curve" smooth="yes"/>
      <point x="460" y="800"/>
      <point x="477" y="809"/>
    </contour>
    <contour>
      <point x="143" y="583" type="line"/>
      <point x="140" y="583" type="line"/>
      <point x="140" y="0" type="line"/>
      <point x="92" y="0" type="line"/>
      <point x="92" y="686" type="line"/>
      <point x="138" y="686" type="line"/>
      <point x="520" y="103" type="line"/>
      <point x="523" y="103" type="line"/>
      <point x="523" y="686" type="line"/>
      <point x="571" y="686" type="line"/>
      <point x="571" y="0" type="line"/>
      <point x="523" y="0" type="line"/>
    </contour>
  </outline>
</glyph>
<glyph name="Oacute" format="1">
  <advance width="690"/>
  <unicode hex="00D3"/>
  <outline>
    <contour>
      <point x="401" y="895" type="line"/>
      <point x="466" y="895" type="line"/>
      <point x="466" y="892" type="line"/>
      <point x="355" y="750" type="line"/>
      <point x="305" y="750" type="line"/>
    </contour>
    <contour>
      <point x="327" y="-10" type="curve" smooth="yes"/>
      <point x="180" y="-10"/>
      <point x="61" y="55"/>
      <point x="61" y="330" type="curve" smooth="yes"/>
      <point x="61" y="356" type="line" smooth="yes"/>
      <point x="61" y="631"/>
      <point x="180" y="696"/>
      <point x="327" y="696" type="curve" smooth="yes"/>
      <point x="474" y="696"/>
      <point x="593" y="631"/>
      <point x="593" y="356" type="curve" smooth="yes"/>
      <point x="593" y="330" type="line" smooth="yes"/>
      <point x="593" y="55"/>
      <point x="474" y="-10"/>
    </contour>
    <contour>
      <point x="327" y="38" type="curve" smooth="yes"/>
      <point x="444" y="38"/>
      <point x="539" y="91"/>
      <point x="539" y="318" type="curve" smooth="yes"/>
      <point x="539" y="368" type="line" smooth="yes"/>
      <point x="539" y="595"/>
      <point x="444" y="648"/>
      <point x="327" y="648" type="curve" smooth="yes"/>
      <point x="210" y="648"/>
      <point x="115" y="595"/>
      <point x="115" y="368" type="curve" smooth="yes"/>
      <point x="115" y="318" type="line" smooth="yes"/>
      <point x="115" y="91"/>
      <point x="210" y="38"/>
    </contour>
  </outline>
</glyph>
<glyph name="Ocircumflex" format="1">
  <advance width="690"/>
  <unicode hex="00D4"/>
  <outline>
    <contour>
      <point x="361" y="895" type="line"/>
      <point x="495" y="750" type="line"/>
      <point x="435" y="750" type="line"/>
      <point x="332" y="847" type="line"/>
      <point x="229" y="750" type="line"/>
      <point x="169" y="750" type="line"/>
      <point x="303" y="895" type="line"/>
    </contour>
    <contour>
      <point x="327" y="-10" type="curve" smooth="yes"/>
      <point x="180" y="-10"/>
      <point x="61" y="55"/>
      <point x="61" y="330" type="curve" smooth="yes"/>
      <point x="61" y="356" type="line" smooth="yes"/>
      <point x="61" y="631"/>
      <point x="180" y="696"/>
      <point x="327" y="696" type="curve" smooth="yes"/>
      <point x="474" y="696"/>
      <point x="593" y="631"/>
      <point x="593" y="356" type="curve" smooth="yes"/>
      <point x="593" y="330" type="line" smooth="yes"/>
      <point x="593" y="55"/>
      <point x="474" y="-10"/>
    </contour>
    <contour>
      <point x="327" y="38" type="curve" smooth="yes"/>
      <point x="444" y="38"/>
      <point x="539" y="91"/>
      <point x="539" y="318" type="curve" smooth="yes"/>
      <point x="539" y="368" type="line" smooth="yes"/>
      <point x="539" y="595"/>
      <point x="444" y="648"/>
      <point x="327" y="648" type="curve" smooth="yes"/>
      <point x="210" y="648"/>
      <point x="115" y="595"/>
      <point x="115" y="368" type="curve" smooth="yes"/>
      <point x="115" y="318" type="line" smooth="yes"/>
      <point x="115" y="91"/>
      <point x="210" y="38"/>
    </contour>
  </outline>
</glyph>
<glyph name="Otilde" format="1">
  <advance width="690"/>
  <unicode hex="00D5"/>
  <outline>
    <contour>
      <point x="477" y="833" type="curve"/>
      <point x="514" y="833" type="line"/>
      <point x="514" y="801"/>
      <point x="492" y="751"/>
      <point x="413" y="751" type="curve" smooth="yes"/>
      <point x="349" y="751"/>
      <point x="300" y="783"/>
      <point x="246" y="783" type="curve" smooth="yes"/>
      <point x="213" y="783"/>
      <point x="196" y="774"/>
      <point x="189" y="751" type="curve"/>
      <point x="152" y="751" type="line"/>
      <point x="152" y="783"/>
      <point x="175" y="833"/>
      <point x="253" y="833" type="curve" smooth="yes"/>
      <point x="317" y="833"/>
      <point x="366" y="801"/>
      <point x="420" y="801" type="curve" smooth="yes"/>
      <point x="453" y="801"/>
      <point x="470" y="810"/>
    </contour>
    <contour>
      <point x="327" y="-10" type="curve" smooth="yes"/>
      <point x="180" y="-10"/>
      <point x="61" y="55"/>
      <point x="61" y="330" type="curve" smooth="yes"/>
      <point x="61" y="356" type="line" smooth="yes"/>
      <point x="61" y="631"/>
      <point x="180" y="696"/>
      <point x="327" y="696" type="curve" smooth="yes"/>
      <point x="474" y="696"/>
      <point x="593" y="631"/>
      <point x="593" y="356" type="curve" smooth="yes"/>
      <point x="593" y="330" type="line" smooth="yes"/>
      <point x="593" y="55"/>
      <point x="474" y="-10"/>
    </contour>
    <contour>
      <point x="327" y="38" type="curve" smooth="yes"/>
      <point x="444" y="38"/>
      <point x="539" y="91"/>
      <point x="539" y="318" type="curve" smooth="yes"/>
      <point x="539" y="368" type="line" smooth="yes"/>
      <point x="539" y="595"/>
      <point x="444" y="648"/>
      <point x="327" y="648" type="curve" smooth="yes"/>
      <point x="210" y="648"/>
      <point x="115" y="595"/>
      <point x="115" y="368" type="curve" smooth="yes"/>
      <point x="115" y="318" type="line" smooth="yes"/>
      <point x="115" y="91"/>
      <point x="210" y="38"/>
    </contour>
  </outline>
</glyph>
<glyph name="Oslash" format="1">
  <advance width="690"/>
  <unicode hex="00D8"/>
  <outline>
    <contour>
      <point x="594" y="754" type="line"/>
      <point x="517" y="626" type="line"/>
      <point x="564" y="575"/>
      <point x="593" y="491"/>
      <point x="593" y="356" type="curve" smooth="yes"/>
      <point x="593" y="330" type="line" smooth="yes"/>
      <point x="593" y="55"/>
      <point x="474" y="-10"/>
      <point x="327" y="-10" type="curve" smooth="yes"/>
      <point x="266" y="-10"/>
      <point x="210" y="1"/>
      <point x="165" y="34" type="curve"/>
      <point x="106" y="-65" type="line"/>
      <point x="61" y="-65" type="line"/>
      <point x="136" y="60" type="line"/>
      <point x="90" y="111"/>
      <point x="61" y="195"/>
      <point x="61" y="330" type="curve" smooth="yes"/>
      <point x="61" y="356" type="line" smooth="yes"/>
      <point x="61" y="631"/>
      <point x="180" y="696"/>
      <point x="327" y="696" type="curve" smooth="yes"/>
      <point x="388" y="696"/>
      <point x="444" y="684"/>
      <point x="489" y="652" type="curve"/>
      <point x="550" y="754" type="line"/>
    </contour>
    <contour>
      <point x="115" y="368" type="curve" smooth="yes"/>
      <point x="115" y="318" type="line" smooth="yes"/>
      <point x="115" y="217"/>
      <point x="133" y="151"/>
      <point x="164" y="108" type="curve"/>
      <point x="462" y="607" type="line"/>
      <point x="425" y="638"/>
      <point x="378" y="648"/>
      <point x="327" y="648" type="curve" smooth="yes"/>
      <point x="210" y="648"/>
      <point x="115" y="595"/>
    </contour>
    <contour>
      <point x="327" y="38" type="curve" smooth="yes"/>
      <point x="444" y="38"/>
      <point x="539" y="91"/>
      <point x="539" y="318" type="curve" smooth="yes"/>
      <point x="539" y="368" type="line" smooth="yes"/>
      <point x="539" y="469"/>
      <point x="520" y="535"/>
      <point x="489" y="578" type="curve"/>
      <point x="191" y="79" type="line"/>
      <point x="228" y="48"/>
      <point x="275" y="38"/>
    </contour>
  </outline>
</glyph>
<glyph name="Yacute" format="1">
  <advance width="572"/>
  <unicode hex="00DD"/>
  <outline>
    <contour>
      <point x="351" y="895" type="line"/>
      <point x="416" y="895" type="line"/>
      <point x="416" y="892" type="line"/>
      <point x="305" y="750" type="line"/>
      <point x="255" y="750" type="line"/>
    </contour>
    <contour>
      <point x="295" y="0" type="line"/>
      <point x="241" y="0" type="line"/>
      <point x="241" y="266" type="line"/>
      <point x="-5" y="686" type="line"/>
      <point x="58" y="686" type="line"/>
      <point x="269" y="321" type="line"/>
      <point x="272" y="321" type="line"/>
      <point x="486" y="686" type="line"/>
      <point x="541" y="686" type="line"/>
      <point x="295" y="266" type="line"/>
    </contour>
  </outline>
</glyph>
<glyph name="Thorn" format="1">
  <advance width="633"/>
  <unicode hex="00DE"/>
  <outline>
    <contour>
      <point x="92" y="686" type="line"/>
      <point x="146" y="686" type="line"/>
      <point x="146" y="551" type="line"/>
      <point x="373" y="551" type="line" smooth="yes"/>
      <point x="476" y="551"/>
      <point x="560" y="467"/>
      <point x="560" y="364" type="curve" smooth="yes"/>
      <point x="560" y="261"/>
      <point x="476" y="177"/>
      <point x="373" y="177" type="curve" smooth="yes"/>
      <point x="146" y="177" type="line"/>
      <point x="146" y="0" type="line"/>
      <point x="92" y="0" type="line"/>
    </contour>
    <contour>
      <point x="146" y="224" type="line"/>
      <point x="366" y="224" type="line" smooth="yes"/>
      <point x="444" y="224"/>
      <point x="508" y="286"/>
      <point x="508" y="364" type="curve" smooth="yes"/>
      <point x="508" y="442"/>
      <point x="444" y="503"/>
      <point x="366" y="503" type="curve" smooth="yes"/>
      <point x="146" y="503" type="line"/>
    </contour>
  </outline>
</glyph>
<glyph name="ae" format="1">
  <advance width="895"/>
  <unicode hex="00E6"/>
  <outline>
    <contour>
      <point x="759" y="189" type="curve"/>
      <point x="809" y="189" type="line"/>
      <point x="809" y="61"/>
      <point x="720" y="-10"/>
      <point x="610" y="-10" type="curve" smooth="yes"/>
      <point x="523" y="-10"/>
      <point x="455" y="34"/>
      <point x="420" y="115" type="curve"/>
      <point x="377" y="22"/>
      <point x="286" y="-10"/>
      <point x="209" y="-10" type="curve" smooth="yes"/>
      <point x="119" y="-10"/>
      <point x="48" y="20"/>
      <point x="48" y="133" type="curve" smooth="yes"/>
      <point x="48" y="282"/>
      <point x="194" y="296"/>
      <point x="396" y="296" type="curve"/>
      <point x="396" y="360" type="line" smooth="yes"/>
      <point x="396" y="447"/>
      <point x="358" y="475"/>
      <point x="263" y="475" type="curve" smooth="yes"/>
      <point x="181" y="475"/>
      <point x="117" y="446"/>
      <point x="117" y="371" type="curve" smooth="yes"/>
      <point x="117" y="355" type="line"/>
      <point x="68" y="355" type="line"/>
      <point x="67" y="363"/>
      <point x="66" y="372"/>
      <point x="66" y="381" type="curve" smooth="yes"/>
      <point x="66" y="471"/>
      <point x="153" y="521"/>
      <point x="263" y="521" type="curve" smooth="yes"/>
      <point x="359" y="521"/>
      <point x="417" y="492"/>
      <point x="438" y="430" type="curve"/>
      <point x="476" y="489"/>
      <point x="536" y="521"/>
      <point x="609" y="521" type="curve" smooth="yes"/>
      <point x="721" y="521"/>
      <point x="809" y="447"/>
      <point x="809" y="314" type="curve" smooth="yes"/>
      <point x="809" y="250" type="line"/>
      <point x="447" y="250" type="line"/>
      <point x="447" y="242" type="line" smooth="yes"/>
      <point x="447" y="103"/>
      <point x="518" y="36"/>
      <point x="610" y="36" type="curve" smooth="yes"/>
      <point x="689" y="36"/>
      <point x="759" y="84"/>
    </contour>
    <contour>
      <point x="609" y="475" type="curve" smooth="yes"/>
      <point x="523" y="475"/>
      <point x="456" y="416"/>
      <point x="448" y="296" type="curve"/>
      <point x="759" y="296" type="line"/>
      <point x="759" y="314" type="line" smooth="yes"/>
      <point x="759" y="423"/>
      <point x="691" y="475"/>
    </contour>
    <contour>
      <point x="396" y="216" type="curve" smooth="yes"/>
      <point x="396" y="250" type="line"/>
      <point x="216" y="250"/>
      <point x="99" y="243"/>
      <point x="99" y="132" type="curve" smooth="yes"/>
      <point x="99" y="66"/>
      <point x="128" y="36"/>
      <point x="219" y="36" type="curve" smooth="yes"/>
      <point x="305" y="36"/>
      <point x="396" y="92"/>
    </contour>
  </outline>
</glyph>
<glyph name="ccedilla" format="1">
  <advance width="544"/>
  <unicode hex="00E7"/>
  <outline>
    <contour>
      <point x="414" y="197" type="curve"/>
      <point x="464" y="197" type="line"/>
      <point x="464" y="64"/>
      <point x="377" y="-10"/>
      <point x="265" y="-10" type="curve" smooth="yes"/>
      <point x="139" y="-10"/>
      <point x="51" y="83"/>
      <point x="51" y="248" type="curve" smooth="yes"/>
      <point x="51" y="263" type="line" smooth="yes"/>
      <point x="51" y="428"/>
      <point x="138" y="521"/>
      <point x="264" y="521" type="curve" smooth="yes"/>
      <point x="376" y="521"/>
      <point x="464" y="447"/>
      <point x="464" y="314" type="curve"/>
      <point x="414" y="314" type="line"/>
      <point x="414" y="423"/>
      <point x="346" y="475"/>
      <point x="264" y="475" type="curve" smooth="yes"/>
      <point x="172" y="475"/>
      <point x="102" y="408"/>
      <point x="102" y="269" type="curve" smooth="yes"/>
      <point x="102" y="242" type="line" smooth="yes"/>
      <point x="102" y="103"/>
      <point x="173" y="36"/>
      <point x="265" y="36" type="curve" smooth="yes"/>
      <point x="346" y="36"/>
      <point x="414" y="86"/>
    </contour>
    <contour>
      <point x="166" y="-184" type="curve"/>
      <point x="166" y="-138" type="line"/>
      <point x="179" y="-145"/>
      <point x="202" y="-151"/>
      <point x="235" y="-151" type="curve" smooth="yes"/>
      <point x="272" y="-151"/>
      <point x="311" y="-140"/>
      <point x="311" y="-97" type="curve" smooth="yes"/>
      <point x="311" y="-66"/>
      <point x="280" y="-51"/>
      <point x="253" y="-51" type="curve" smooth="yes"/>
      <point x="231" y="-51" type="line"/>
      <point x="231" y="-17" type="line"/>
      <point x="256" y="-17" type="line" smooth="yes"/>
      <point x="310" y="-17"/>
      <point x="362" y="-37"/>
      <point x="362" y="-106" type="curve" smooth="yes"/>
      <point x="362" y="-179"/>
      <point x="290" y="-197"/>
      <point x="244" y="-197" type="curve" smooth="yes"/>
      <point x="219" y="-197"/>
      <point x="190" y="-193"/>
    </contour>
  </outline>
</glyph>
<glyph name="edieresis" format="1">
  <advance width="556"/>
  <unicode hex="00EB"/>
  <outline>
    <contour>
      <point x="215" y="720" type="line"/>
      <point x="215" y="651" type="line"/>
      <point x="150" y="651" type="line"/>
      <point x="150" y="720" type="line"/>
    </contour>
    <contour>
      <point x="391" y="720" type="line"/>
      <point x="391" y="651" type="line"/>
      <point x="326" y="651" type="line"/>
      <point x="326" y="720" type="line"/>
    </contour>
    <contour>
      <point x="414" y="189" type="curve"/>
      <point x="464" y="189" type="line"/>
      <point x="464" y="61"/>
      <point x="375" y="-10"/>
      <point x="265" y="-10" type="curve" smooth="yes"/>
      <point x="139" y="-10"/>
      <point x="51" y="83"/>
      <point x="51" y="248" type="curve" smooth="yes"/>
      <point x="51" y="263" type="line" smooth="yes"/>
      <point x="51" y="428"/>
      <point x="138" y="521"/>
      <point x="264" y="521" type="curve" smooth="yes"/>
      <point x="376" y="521"/>
      <point x="464" y="447"/>
      <point x="464" y="314" type="curve" smooth="yes"/>
      <point x="464" y="250" type="line"/>
      <point x="102" y="250" type="line"/>
      <point x="102" y="242" type="line" smooth="yes"/>
      <point x="102" y="103"/>
      <point x="173" y="36"/>
      <point x="265" y="36" type="curve" smooth="yes"/>
      <point x="344" y="36"/>
      <point x="414" y="84"/>
    </contour>
    <contour>
      <point x="264" y="475" type="curve" smooth="yes"/>
      <point x="178" y="475"/>
      <point x="111" y="416"/>
      <point x="103" y="296" type="curve"/>
      <point x="414" y="296" type="line"/>
      <point x="414" y="314" type="line" smooth="yes"/>
      <point x="414" y="423"/>
      <point x="346" y="475"/>
    </contour>
  </outline>
</glyph>
<glyph name="iacute" format="1">
  <advance width="260"/>
  <unicode hex="00ED"/>
  <outline>
    <contour>
      <point x="189" y="720" type="line"/>
      <point x="254" y="720" type="line"/>
      <point x="254" y="717" type="line"/>
      <point x="143" y="575" type="line"/>
      <point x="93" y="575" type="line"/>
    </contour>
    <contour>
      <point x="95" y="511" type="line"/>
      <point x="146" y="511" type="line"/>
      <point x="146" y="0" type="line"/>
      <point x="95" y="0" type="line"/>
    </contour>
  </outline>
</glyph>
<glyph name="icircumflex" format="1">
  <advance width="260"/>
  <unicode hex="00EE"/>
  <outline>
    <contour>
      <point x="161" y="720" type="line"/>
      <point x="295" y="575" type="line"/>
      <point x="235" y="575" type="line"/>
      <point x="132" y="672" type="line"/>
      <point x="29" y="575" type="line"/>
      <point x="-31" y="575" type="line"/>
      <point x="103" y="720" type="line"/>
    </contour>
    <contour>
      <point x="108" y="511" type="line"/>
      <point x="159" y="511" type="line"/>
      <point x="159" y="0" type="line"/>
      <point x="108" y="0" type="line"/>
    </contour>
  </outline>
</glyph>
<glyph name="idieresis" format="1">
  <advance width="260"/>
  <unicode hex="00EF"/>
  <outline>
    <contour>
      <point x="76" y="720" type="line"/>
      <point x="76" y="651" type="line"/>
      <point x="11" y="651" type="line"/>
      <point x="11" y="720" type="line"/>
    </contour>
    <contour>
      <point x="252" y="720" type="line"/>
      <point x="252" y="651" type="line"/>
      <point x="187" y="651" type="line"/>
      <point x="187" y="720" type="line"/>
    </contour>
    <contour>
      <point x="106" y="511" type="line"/>
      <point x="157" y="511" type="line"/>
      <point x="157" y="0" type="line"/>
      <point x="106" y="0" type="line"/>
    </contour>
  </outline>
</glyph>
<glyph name="eth" format="1">
  <advance width="575"/>
  <unicode hex="00F0"/>
  <outline>
    <contour>
      <point x="111" y="707" type="curve"/>
      <point x="148" y="724" type="line"/>
      <point x="178" y="705"/>
      <point x="211" y="684"/>
      <point x="243" y="661" type="curve"/>
      <point x="347" y="711" type="line"/>
      <point x="370" y="688" type="line"/>
      <point x="271" y="640" type="line"/>
      <point x="387" y="550"/>
      <point x="484" y="422"/>
      <point x="484" y="263" type="curve" smooth="yes"/>
      <point x="484" y="248" type="line" smooth="yes"/>
      <point x="484" y="83"/>
      <point x="394" y="-10"/>
      <point x="268" y="-10" type="curve" smooth="yes"/>
      <point x="142" y="-10"/>
      <point x="52" y="83"/>
      <point x="52" y="248" type="curve" smooth="yes"/>
      <point x="52" y="263" type="line" smooth="yes"/>
      <point x="52" y="428"/>
      <point x="142" y="521"/>
      <point x="268" y="521" type="curve" smooth="yes"/>
      <point x="295" y="521"/>
      <point x="320" y="516"/>
      <point x="343" y="508" type="curve"/>
      <point x="309" y="549"/>
      <point x="269" y="587"/>
      <point x="230" y="620" type="curve"/>
      <point x="128" y="570" type="line"/>
      <point x="102" y="593" type="line"/>
      <point x="203" y="642" type="line"/>
      <point x="168" y="669"/>
      <point x="135" y="691"/>
    </contour>
    <contour>
      <point x="268" y="36" type="curve" smooth="yes"/>
      <point x="360" y="36"/>
      <point x="433" y="103"/>
      <point x="433" y="242" type="curve" smooth="yes"/>
      <point x="433" y="269" type="line" smooth="yes"/>
      <point x="433" y="408"/>
      <point x="360" y="475"/>
      <point x="268" y="475" type="curve" smooth="yes"/>
      <point x="176" y="475"/>
      <point x="103" y="408"/>
      <point x="103" y="269" type="curve" smooth="yes"/>
      <point x="103" y="242" type="line" smooth="yes"/>
      <point x="103" y="103"/>
      <point x="176" y="36"/>
    </contour>
  </outline>
</glyph>
<glyph name="ntilde" format="1">
  <advance width="593"/>
  <unicode hex="00F1"/>
  <outline>
    <contour>
      <point x="435" y="719" type="curve"/>
      <point x="472" y="719" type="line"/>
      <point x="472" y="687"/>
      <point x="450" y="637"/>
      <point x="371" y="637" type="curve" smooth="yes"/>
      <point x="307" y="637"/>
      <point x="258" y="669"/>
      <point x="204" y="669" type="curve" smooth="yes"/>
      <point x="171" y="669"/>
      <point x="154" y="660"/>
      <point x="147" y="637" type="curve"/>
      <point x="110" y="637" type="line"/>
      <point x="110" y="669"/>
      <point x="133" y="719"/>
      <point x="211" y="719" type="curve" smooth="yes"/>
      <point x="275" y="719"/>
      <point x="324" y="687"/>
      <point x="378" y="687" type="curve" smooth="yes"/>
      <point x="411" y="687"/>
      <point x="428" y="696"/>
    </contour>
    <contour>
      <point x="435" y="0" type="line"/>
      <point x="435" y="314" type="line" smooth="yes"/>
      <point x="435" y="425"/>
      <point x="381" y="475"/>
      <point x="291" y="475" type="curve" smooth="yes"/>
      <point x="201" y="475"/>
      <point x="134" y="406"/>
      <point x="134" y="314" type="curve" smooth="yes"/>
      <point x="134" y="0" type="line"/>
      <point x="83" y="0" type="line"/>
      <point x="83" y="511" type="line"/>
      <point x="117" y="511" type="line"/>
      <point x="128" y="435" type="line"/>
      <point x="163" y="489"/>
      <point x="229" y="521"/>
      <point x="296" y="521" type="curve" smooth="yes"/>
      <point x="402" y="521"/>
      <point x="485" y="462"/>
      <point x="485" y="329" type="curve" smooth="yes"/>
      <point x="485" y="0" type="line"/>
    </contour>
  </outline>
</glyph>
<glyph name="otilde" format="1">
  <advance width="574"/>
  <unicode hex="00F5"/>
  <outline>
    <contour>
      <point x="414" y="720" type="curve"/>
      <point x="451" y="720" type="line"/>
      <point x="451" y="688"/>
      <point x="429" y="638"/>
      <point x="350" y="638" type="curve" smooth="yes"/>
      <point x="286" y="638"/>
      <point x="237" y="670"/>
      <point x="183" y="670" type="curve" smooth="yes"/>
      <point x="150" y="670"/>
      <point x="133" y="661"/>
      <point x="126" y="638" type="curve"/>
      <point x="89" y="638" type="line"/>
      <point x="89" y="670"/>
      <point x="112" y="720"/>
      <point x="190" y="720" type="curve" smooth="yes"/>
      <point x="254" y="720"/>
      <point x="303" y="688"/>
      <point x="357" y="688" type="curve" smooth="yes"/>
      <point x="390" y="688"/>
      <point x="407" y="697"/>
    </contour>
    <contour>
      <point x="268" y="-10" type="curve" smooth="yes"/>
      <point x="142" y="-10"/>
      <point x="52" y="83"/>
      <point x="52" y="248" type="curve" smooth="yes"/>
      <point x="52" y="263" type="line" smooth="yes"/>
      <point x="52" y="428"/>
      <point x="142" y="521"/>
      <point x="268" y="521" type="curve" smooth="yes"/>
      <point x="394" y="521"/>
      <point x="484" y="428"/>
      <point x="484" y="263" type="curve" smooth="yes"/>
      <point x="484" y="248" type="line" smooth="yes"/>
      <point x="484" y="83"/>
      <point x="394" y="-10"/>
    </contour>
    <contour>
      <point x="268" y="36" type="curve" smooth="yes"/>
      <point x="360" y="36"/>
      <point x="433" y="103"/>
      <point x="433" y="242" type="curve" smooth="yes"/>
      <point x="433" y="269" type="line" smooth="yes"/>
      <point x="433" y="408"/>
      <point x="360" y="475"/>
      <point x="268" y="475" type="curve" smooth="yes"/>
      <point x="176" y="475"/>
      <point x="103" y="408"/>
      <point x="103" y="269" type="curve" smooth="yes"/>
      <point x="103" y="242" type="line" smooth="yes"/>
      <point x="103" y="103"/>
      <point x="176" y="36"/>
    </contour>
  </outline>
</glyph>
<glyph name="divide" format="1">
  <advance width="615"/>
  <unicode hex="00F7"/>
  <outline>
    <contour>
      <point x="339" y="439" type="line"/>
      <point x="339" y="370" type="line"/>
      <point x="274" y="370" type="line"/>
      <point x="274" y="439" type="line"/>
    </contour>
    <contour>
      <point x="51" y="284" type="line"/>
      <point x="563" y="284" type="line"/>
      <point x="563" y="226" type="line"/>
      <point x="51" y="226" type="line"/>
    </contour>
    <contour>
      <point x="339" y="140" type="line"/>
      <point x="339" y="71" type="line"/>
      <point x="274" y="71" type="line"/>
      <point x="274" y="140" type="line"/>
    </contour>
  </outline>
</glyph>
<glyph name="uacute" format="1">
  <advance width="618"/>
  <unicode hex="00FA"/>
  <outline>
    <contour>
      <point x="353" y="720" type="line"/>
      <point x="418" y="720" type="line"/>
      <point x="418" y="717" type="line"/>
      <point x="307" y="575" type="line"/>
      <point x="257" y="575" type="line"/>
    </contour>
    <contour>
      <point x="430" y="76" type="curve"/>
      <point x="395" y="22"/>
      <point x="332" y="-10"/>
      <point x="265" y="-10" type="curve" smooth="yes"/>
      <point x="159" y="-10"/>
      <point x="78" y="49"/>
      <point x="78" y="182" type="curve" smooth="yes"/>
      <point x="78" y="511" type="line"/>
      <point x="129" y="511" type="line"/>
      <point x="129" y="197" type="line" smooth="yes"/>
      <point x="129" y="86"/>
      <point x="183" y="36"/>
      <point x="273" y="36" type="curve" smooth="yes"/>
      <point x="363" y="36"/>
      <point x="430" y="105"/>
      <point x="430" y="197" type="curve" smooth="yes"/>
      <point x="430" y="511" type="line"/>
      <point x="481" y="511" type="line"/>
      <point x="481" y="69" type="line" smooth="yes"/>
      <point x="481" y="45"/>
      <point x="493" y="36"/>
      <point x="508" y="36" type="curve" smooth="yes"/>
      <point x="523" y="36"/>
      <point x="543" y="43"/>
      <point x="558" y="52" type="curve"/>
      <point x="558" y="9" type="line"/>
      <point x="540" y="-3"/>
      <point x="518" y="-10"/>
      <point x="494" y="-10" type="curve" smooth="yes"/>
      <point x="445" y="-10"/>
      <point x="430" y="36"/>
    </contour>
  </outline>
</glyph>
<glyph name="ydieresis" format="1">
  <advance width="512"/>
  <unicode hex="00FF"/>
  <outline>
    <contour>
      <point x="189" y="720" type="line"/>
      <point x="189" y="651" type="line"/>
      <point x="124" y="651" type="line"/>
      <point x="124" y="720" type="line"/>
    </contour>
    <contour>
      <point x="365" y="720" type="line"/>
      <point x="365" y="651" type="line"/>
      <point x="300" y="651" type="line"/>
      <point x="300" y="720" type="line"/>
    </contour>
    <contour>
      <point x="470" y="511" type="line"/>
      <point x="268" y="13" type="line" smooth="yes"/>
      <point x="225" y="-94"/>
      <point x="201" y="-186"/>
      <point x="110" y="-186" type="curve" smooth="yes"/>
      <point x="88" y="-186"/>
      <point x="69" y="-182"/>
      <point x="47" y="-172" type="curve"/>
      <point x="47" y="-126" type="line"/>
      <point x="61" y="-132"/>
      <point x="83" y="-140"/>
      <point x="101" y="-140" type="curve" smooth="yes"/>
      <point x="158" y="-140"/>
      <point x="179" y="-81"/>
      <point x="195" y="-41" type="curve" smooth="yes"/>
      <point x="215" y="8" type="line"/>
      <point x="12" y="511" type="line"/>
      <point x="67" y="511" type="line"/>
      <point x="241" y="76" type="line"/>
      <point x="245" y="76" type="line"/>
      <point x="420" y="511" type="line"/>
    </contour>
  </outline>
</glyph>
<glyph name="Amacron" format="1">
  <advance width="652"/>
  <unicode hex="0100"/>
  <outline>
    <contour>
      <point x="154" y="911" type="line"/>
      <point x="472" y="911" type="line"/>
      <point x="472" y="867" type="line"/>
      <point x="154" y="867" type="line"/>
    </contour>
    <contour>
      <point x="130" y="170" type="line"/>
      <point x="60" y="0" type="line"/>
      <point x="4" y="0" type="line"/>
      <point x="288" y="686" type="line"/>
      <point x="338" y="686" type="line"/>
      <point x="622" y="0" type="line"/>
      <point x="563" y="0" type="line"/>
      <point x="492" y="170" type="line"/>
    </contour>
    <contour>
      <point x="472" y="219" type="line"/>
      <point x="313" y="612" type="line"/>
      <point x="309" y="612" type="line"/>
      <point x="150" y="219" type="line"/>
    </contour>
  </outline>
</glyph>
<glyph name="amacron" format="1">
  <advance width="585"/>
  <unicode hex="0101"/>
  <outline>
    <contour>
      <point x="104" y="736" type="line"/>
      <point x="422" y="736" type="line"/>
      <point x="422" y="692" type="line"/>
      <point x="104" y="692" type="line"/>
    </contour>
    <contour>
      <point x="447" y="370" type="curve" smooth="yes"/>
      <point x="447" y="69" type="line" smooth="yes"/>
      <point x="447" y="45"/>
      <point x="459" y="36"/>
      <point x="474" y="36" type="curve" smooth="yes"/>
      <point x="489" y="36"/>
      <point x="509" y="43"/>
      <point x="524" y="52" type="curve"/>
      <point x="524" y="9" type="line"/>
      <point x="506" y="-3"/>
      <point x="484" y="-10"/>
      <point x="460" y="-10" type="curve" smooth="yes"/>
      <point x="409" y="-10"/>
      <point x="396" y="34"/>
      <point x="396" y="89" type="curve"/>
      <point x="354" y="19"/>
      <point x="291" y="-10"/>
      <point x="209" y="-10" type="curve" smooth="yes"/>
      <point x="127" y="-10"/>
      <point x="48" y="20"/>
      <point x="48" y="133" type="curve" smooth="yes"/>
      <point x="48" y="282"/>
      <point x="194" y="296"/>
      <point x="396" y="296" type="curve"/>
      <point x="396" y="360" type="line" smooth="yes"/>
      <point x="396" y="447"/>
      <point x="358" y="475"/>
      <point x="263" y="475" type="curve" smooth="yes"/>
      <point x="181" y="475"/>
      <point x="117" y="446"/>
      <point x="117" y="371" type="curve" smooth="yes"/>
      <point x="117" y="355" type="line"/>
      <point x="68" y="355" type="line"/>
      <point x="67" y="363"/>
      <point x="66" y="372"/>
      <point x="66" y="381" type="curve" smooth="yes"/>
      <point x="66" y="471"/>
      <point x="153" y="521"/>
      <point x="263" y="521" type="curve" smooth="yes"/>
      <point x="387" y="521"/>
      <point x="447" y="473"/>
    </contour>
    <contour>
      <point x="396" y="216" type="curve" smooth="yes"/>
      <point x="396" y="250" type="line"/>
      <point x="216" y="250"/>
      <point x="99" y="243"/>
      <point x="99" y="132" type="curve" smooth="yes"/>
      <point x="99" y="66"/>
      <point x="134" y="36"/>
      <point x="219" y="36" type="curve" smooth="yes"/>
      <point x="305" y="36"/>
      <point x="396" y="92"/>
    </contour>
  </outline>
</glyph>
<glyph name="Abreve" format="1">
  <advance width="652"/>
  <unicode hex="0102"/>
  <outline>
    <contour>
      <point x="312" y="788" type="curve" smooth="yes"/>
      <point x="206" y="788"/>
      <point x="120" y="855"/>
      <point x="120" y="912" type="curve"/>
      <point x="176" y="912" type="line"/>
      <point x="192" y="862"/>
      <point x="247" y="837"/>
      <point x="312" y="837" type="curve" smooth="yes"/>
      <point x="377" y="837"/>
      <point x="432" y="862"/>
      <point x="449" y="912" type="curve"/>
      <point x="505" y="912" type="line"/>
      <point x="505" y="855"/>
      <point x="419" y="788"/>
    </contour>
    <contour>
      <point x="130" y="170" type="line"/>
      <point x="60" y="0" type="line"/>
      <point x="4" y="0" type="line"/>
      <point x="288" y="686" type="line"/>
      <point x="338" y="686" type="line"/>
      <point x="622" y="0" type="line"/>
      <point x="563" y="0" type="line"/>
      <point x="492" y="170" type="line"/>
    </contour>
    <contour>
      <point x="472" y="219" type="line"/>
      <point x="313" y="612" type="line"/>
      <point x="309" y="612" type="line"/>
      <point x="150" y="219" type="line"/>
    </contour>
  </outline>
</glyph>
<glyph name="Aogonek" format="1">
  <advance width="652"/>
  <unicode hex="0104"/>
  <outline>
    <contour>
      <point x="679" y="-86" type="curve"/>
      <point x="692" y="-119" type="line"/>
      <point x="666" y="-135"/>
      <point x="637" y="-143"/>
      <point x="608" y="-143" type="curve" smooth="yes"/>
      <point x="562" y="-143"/>
      <point x="511" y="-126"/>
      <point x="511" y="-71" type="curve" smooth="yes"/>
      <point x="511" y="-39"/>
      <point x="541" y="-16"/>
      <point x="565" y="0" type="curve"/>
      <point x="563" y="0" type="line"/>
      <point x="492" y="170" type="line"/>
      <point x="130" y="170" type="line"/>
      <point x="60" y="0" type="line"/>
      <point x="4" y="0" type="line"/>
      <point x="288" y="686" type="line"/>
      <point x="338" y="686" type="line"/>
      <point x="622" y="0" type="line"/>
      <point x="615" y="0" type="line"/>
      <point x="612" y="-2" type="line" smooth="yes"/>
      <point x="592" y="-16"/>
      <point x="568" y="-33"/>
      <point x="568" y="-60" type="curve" smooth="yes"/>
      <point x="568" y="-91"/>
      <point x="591" y="-100"/>
      <point x="612" y="-100" type="curve" smooth="yes"/>
      <point x="636" y="-100"/>
      <point x="658" y="-93"/>
    </contour>
    <contour>
      <point x="472" y="219" type="line"/>
      <point x="313" y="612" type="line"/>
      <point x="309" y="612" type="line"/>
      <point x="150" y="219" type="line"/>
    </contour>
  </outline>
</glyph>
<glyph name="cacute" format="1">
  <advance width="544"/>
  <unicode hex="0107"/>
  <outline>
    <contour>
      <point x="327" y="720" type="line"/>
      <point x="392" y="720" type="line"/>
      <point x="392" y="717" type="line"/>
      <point x="281" y="575" type="line"/>
      <point x="231" y="575" type="line"/>
    </contour>
    <contour>
      <point x="414" y="197" type="curve"/>
      <point x="464" y="197" type="line"/>
      <point x="464" y="64"/>
      <point x="377" y="-10"/>
      <point x="265" y="-10" type="curve" smooth="yes"/>
      <point x="139" y="-10"/>
      <point x="51" y="83"/>
      <point x="51" y="248" type="curve" smooth="yes"/>
      <point x="51" y="263" type="line" smooth="yes"/>
      <point x="51" y="428"/>
      <point x="138" y="521"/>
      <point x="264" y="521" type="curve" smooth="yes"/>
      <point x="376" y="521"/>
      <point x="464" y="447"/>
      <point x="464" y="314" type="curve"/>
      <point x="414" y="314" type="line"/>
      <point x="414" y="423"/>
      <point x="346" y="475"/>
      <point x="264" y="475" type="curve" smooth="yes"/>
      <point x="172" y="475"/>
      <point x="102" y="408"/>
      <point x="102" y="269" type="curve" smooth="yes"/>
      <point x="102" y="242" type="line" smooth="yes"/>
      <point x="102" y="103"/>
      <point x="173" y="36"/>
      <point x="265" y="36" type="curve" smooth="yes"/>
      <point x="346" y="36"/>
      <point x="414" y="86"/>
    </contour>
    <contour>
      <point x="272" y="0" type="move" name="Bottom"/>
    </contour>
  </outline>
</glyph>
<glyph name="Ccaron" format="1">
  <advance width="663"/>
  <unicode hex="010C"/>
  <outline>
    <contour>
      <point x="229" y="895" type="line"/>
      <point x="332" y="798" type="line"/>
      <point x="435" y="895" type="line"/>
      <point x="495" y="895" type="line"/>
      <point x="361" y="750" type="line"/>
      <point x="303" y="750" type="line"/>
      <point x="169" y="895" type="line"/>
    </contour>
    <contour>
      <point x="521" y="251" type="curve"/>
      <point x="574" y="251" type="line"/>
      <point x="574" y="48"/>
      <point x="452" y="-10"/>
      <point x="320" y="-10" type="curve" smooth="yes"/>
      <point x="173" y="-10"/>
      <point x="62" y="55"/>
      <point x="62" y="330" type="curve" smooth="yes"/>
      <point x="62" y="356" type="line" smooth="yes"/>
      <point x="62" y="631"/>
      <point x="173" y="696"/>
      <point x="320" y="696" type="curve" smooth="yes"/>
      <point x="452" y="696"/>
      <point x="574" y="642"/>
      <point x="574" y="434" type="curve"/>
      <point x="521" y="434" type="line"/>
      <point x="521" y="606"/>
      <point x="425" y="648"/>
      <point x="320" y="648" type="curve" smooth="yes"/>
      <point x="203" y="648"/>
      <point x="116" y="595"/>
      <point x="116" y="368" type="curve" smooth="yes"/>
      <point x="116" y="318" type="line" smooth="yes"/>
      <point x="116" y="91"/>
      <point x="203" y="38"/>
      <point x="320" y="38" type="curve" smooth="yes"/>
      <point x="425" y="38"/>
      <point x="521" y="81"/>
    </contour>
    <contour>
      <point x="332" y="0" type="move" name="Bottom"/>
    </contour>
  </outline>
</glyph>
<glyph name="Dcaron" format="1">
  <advance width="675"/>
  <unicode hex="010E"/>
  <outline>
    <contour>
      <point x="185" y="895" type="line"/>
      <point x="288" y="798" type="line"/>
      <point x="391" y="895" type="line"/>
      <point x="451" y="895" type="line"/>
      <point x="317" y="750" type="line"/>
      <point x="259" y="750" type="line"/>
      <point x="125" y="895" type="line"/>
    </contour>
    <contour>
      <point x="92" y="686" type="line"/>
      <point x="312" y="686" type="line" smooth="yes"/>
      <point x="459" y="686"/>
      <point x="578" y="615"/>
      <point x="578" y="356" type="curve" smooth="yes"/>
      <point x="578" y="331" type="line" smooth="yes"/>
      <point x="578" y="74"/>
      <point x="459" y="0"/>
      <point x="312" y="0" type="curve" smooth="yes"/>
      <point x="92" y="0" type="line"/>
    </contour>
    <contour>
      <point x="146" y="48" type="line"/>
      <point x="312" y="48" type="line" smooth="yes"/>
      <point x="429" y="48"/>
      <point x="524" y="104"/>
      <point x="524" y="322" type="curve" smooth="yes"/>
      <point x="524" y="365" type="line" smooth="yes"/>
      <point x="524" y="577"/>
      <point x="429" y="638"/>
      <point x="312" y="638" type="curve" smooth="yes"/>
      <point x="146" y="638" type="line"/>
    </contour>
  </outline>
</glyph>
<glyph name="dcaron" format="1">
  <advance width="583"/>
  <unicode hex="010F"/>
  <outline>
    <contour>
      <point x="435" y="0" type="line"/>
      <point x="424" y="77" type="line"/>
      <point x="386" y="18"/>
      <point x="330" y="-10"/>
      <point x="255" y="-10" type="curve" smooth="yes"/>
      <point x="143" y="-10"/>
      <point x="52" y="70"/>
      <point x="52" y="260" type="curve" smooth="yes"/>
      <point x="52" y="271" type="line" smooth="yes"/>
      <point x="52" y="433"/>
      <point x="143" y="521"/>
      <point x="255" y="521" type="curve" smooth="yes"/>
      <point x="327" y="521"/>
      <point x="385" y="490"/>
      <point x="418" y="440" type="curve"/>
      <point x="418" y="720" type="line"/>
      <point x="469" y="720" type="line"/>
      <point x="469" y="0" type="line"/>
    </contour>
    <contour>
      <point x="567" y="516" type="line"/>
      <point x="533" y="516" type="line" smooth="yes"/>
      <point x="534" y="516"/>
      <point x="556" y="617"/>
      <point x="556" y="617" type="curve"/>
      <point x="532" y="617" type="line"/>
      <point x="532" y="686" type="line"/>
      <point x="597" y="686" type="line"/>
      <point x="597" y="628" type="line"/>
    </contour>
    <contour>
      <point x="419" y="257" type="curve" smooth="yes"/>
      <point x="419" y="269" type="line" smooth="yes"/>
      <point x="419" y="413"/>
      <point x="347" y="475"/>
      <point x="260" y="475" type="curve" smooth="yes"/>
      <point x="173" y="475"/>
      <point x="103" y="412"/>
      <point x="103" y="269" type="curve" smooth="yes"/>
      <point x="103" y="258" type="line" smooth="yes"/>
      <point x="103" y="92"/>
      <point x="173" y="36"/>
      <point x="260" y="36" type="curve" smooth="yes"/>
      <point x="346" y="36"/>
      <point x="419" y="88"/>
    </contour>
  </outline>
</glyph>
<glyph name="Dcroat" format="1">
  <advance width="681"/>
  <unicode hex="0110"/>
  <outline>
    <contour>
      <point x="105" y="367" type="line"/>
      <point x="105" y="686" type="line"/>
      <point x="325" y="686" type="line" smooth="yes"/>
      <point x="472" y="686"/>
      <point x="591" y="615"/>
      <point x="591" y="356" type="curve" smooth="yes"/>
      <point x="591" y="331" type="line" smooth="yes"/>
      <point x="591" y="74"/>
      <point x="472" y="0"/>
      <point x="325" y="0" type="curve" smooth="yes"/>
      <point x="105" y="0" type="line"/>
      <point x="105" y="319" type="line"/>
      <point x="5" y="319" type="line"/>
      <point x="5" y="367" type="line"/>
    </contour>
    <contour>
      <point x="159" y="48" type="line"/>
      <point x="325" y="48" type="line" smooth="yes"/>
      <point x="442" y="48"/>
      <point x="537" y="104"/>
      <point x="537" y="322" type="curve" smooth="yes"/>
      <point x="537" y="365" type="line" smooth="yes"/>
      <point x="537" y="577"/>
      <point x="442" y="638"/>
      <point x="325" y="638" type="curve" smooth="yes"/>
      <point x="159" y="638" type="line"/>
      <point x="159" y="367" type="line"/>
      <point x="331" y="367" type="line"/>
      <point x="331" y="319" type="line"/>
      <point x="159" y="319" type="line"/>
    </contour>
  </outline>
</glyph>
<glyph name="Edotaccent" format="1">
  <advance width="593"/>
  <unicode hex="0116"/>
  <outline>
    <contour>
      <point x="363" y="845" type="curve" smooth="yes"/>
      <point x="363" y="807"/>
      <point x="333" y="779"/>
      <point x="296" y="779" type="curve" smooth="yes"/>
      <point x="261" y="779"/>
      <point x="231" y="809"/>
      <point x="231" y="845" type="curve" smooth="yes"/>
      <point x="231" y="882"/>
      <point x="260" y="911"/>
      <point x="297" y="911" type="curve" smooth="yes"/>
      <point x="334" y="911"/>
      <point x="363" y="881"/>
    </contour>
    <contour>
      <point x="92" y="686" type="line"/>
      <point x="516" y="686" type="line"/>
      <point x="506" y="638" type="line"/>
      <point x="146" y="638" type="line"/>
      <point x="146" y="374" type="line"/>
      <point x="465" y="374" type="line"/>
      <point x="465" y="326" type="line"/>
      <point x="146" y="326" type="line"/>
      <point x="146" y="48" type="line"/>
      <point x="515" y="48" type="line"/>
      <point x="526" y="0" type="line"/>
      <point x="92" y="0" type="line"/>
    </contour>
    <contour>
      <point x="297" y="0" type="move" name="Bottom"/>
    </contour>
  </outline>
</glyph>
<glyph name="Eogonek" format="1">
  <advance width="593"/>
  <unicode hex="0118"/>
  <outline>
    <contour>
      <point x="576" y="-86" type="curve"/>
      <point x="589" y="-119" type="line"/>
      <point x="563" y="-135"/>
      <point x="534" y="-143"/>
      <point x="505" y="-143" type="curve" smooth="yes"/>
      <point x="459" y="-143"/>
      <point x="408" y="-126"/>
      <point x="408" y="-71" type="curve" smooth="yes"/>
      <point x="408" y="-39"/>
      <point x="438" y="-16"/>
      <point x="462" y="0" type="curve"/>
      <point x="92" y="0" type="line"/>
      <point x="92" y="686" type="line"/>
      <point x="516" y="686" type="line"/>
      <point x="506" y="638" type="line"/>
      <point x="146" y="638" type="line"/>
      <point x="146" y="374" type="line"/>
      <point x="465" y="374" type="line"/>
      <point x="465" y="326" type="line"/>
      <point x="146" y="326" type="line"/>
      <point x="146" y="48" type="line"/>
      <point x="515" y="48" type="line"/>
      <point x="526" y="0" type="line"/>
      <point x="512" y="0" type="line"/>
      <point x="509" y="-2" type="line" smooth="yes"/>
      <point x="489" y="-16"/>
      <point x="465" y="-33"/>
      <point x="465" y="-60" type="curve" smooth="yes"/>
      <point x="465" y="-91"/>
      <point x="488" y="-100"/>
      <point x="509" y="-100" type="curve" smooth="yes"/>
      <point x="533" y="-100"/>
      <point x="555" y="-93"/>
    </contour>
    <contour>
      <point x="297" y="0" type="move" name="Bottom"/>
    </contour>
  </outline>
</glyph>
<glyph name="eogonek" format="1">
  <advance width="556"/>
  <unicode hex="0119"/>
  <outline>
    <contour>
      <point x="102" y="250" type="line"/>
      <point x="102" y="242" type="line" smooth="yes"/>
      <point x="102" y="103"/>
      <point x="173" y="36"/>
      <point x="265" y="36" type="curve" smooth="yes"/>
      <point x="344" y="36"/>
      <point x="414" y="84"/>
      <point x="414" y="189" type="curve"/>
      <point x="464" y="189" type="line"/>
      <point x="464" y="89"/>
      <point x="410" y="24"/>
      <point x="333" y="0" type="curve"/>
      <point x="338" y="0" type="line"/>
      <point x="335" y="-2" type="line" smooth="yes"/>
      <point x="315" y="-16"/>
      <point x="291" y="-33"/>
      <point x="291" y="-60" type="curve" smooth="yes"/>
      <point x="291" y="-91"/>
      <point x="314" y="-100"/>
      <point x="335" y="-100" type="curve" smooth="yes"/>
      <point x="359" y="-100"/>
      <point x="381" y="-93"/>
      <point x="402" y="-86" type="curve"/>
      <point x="415" y="-119" type="line"/>
      <point x="389" y="-135"/>
      <point x="360" y="-143"/>
      <point x="331" y="-143" type="curve" smooth="yes"/>
      <point x="285" y="-143"/>
      <point x="234" y="-126"/>
      <point x="234" y="-71" type="curve" smooth="yes"/>
      <point x="234" y="-45"/>
      <point x="254" y="-25"/>
      <point x="274" y="-10" type="curve"/>
      <point x="265" y="-10" type="line" smooth="yes"/>
      <point x="139" y="-10"/>
      <point x="51" y="83"/>
      <point x="51" y="248" type="curve" smooth="yes"/>
      <point x="51" y="263" type="line" smooth="yes"/>
      <point x="51" y="428"/>
      <point x="138" y="521"/>
      <point x="264" y="521" type="curve" smooth="yes"/>
      <point x="376" y="521"/>
      <point x="464" y="447"/>
      <point x="464" y="314" type="curve" smooth="yes"/>
      <point x="464" y="250" type="line"/>
    </contour>
    <contour>
      <point x="264" y="475" type="curve" smooth="yes"/>
      <point x="178" y="475"/>
      <point x="111" y="416"/>
      <point x="103" y="296" type="curve"/>
      <point x="414" y="296" type="line"/>
      <point x="414" y="314" type="line" smooth="yes"/>
      <point x="414" y="423"/>
      <point x="346" y="475"/>
    </contour>
    <contour>
      <point x="278" y="0" type="move" name="Bottom"/>
    </contour>
  </outline>
</glyph>
<glyph name="Ecaron" format="1">
  <advance width="593"/>
  <unicode hex="011A"/>
  <outline>
    <contour>
      <point x="194" y="895" type="line"/>
      <point x="297" y="798" type="line"/>
      <point x="400" y="895" type="line"/>
      <point x="460" y="895" type="line"/>
      <point x="326" y="750" type="line"/>
      <point x="268" y="750" type="line"/>
      <point x="134" y="895" type="line"/>
    </contour>
    <contour>
      <point x="92" y="686" type="line"/>
      <point x="516" y="686" type="line"/>
      <point x="506" y="638" type="line"/>
      <point x="146" y="638" type="line"/>
      <point x="146" y="374" type="line"/>
      <point x="465" y="374" type="line"/>
      <point x="465" y="326" type="line"/>
      <point x="146" y="326" type="line"/>
      <point x="146" y="48" type="line"/>
      <point x="515" y="48" type="line"/>
      <point x="526" y="0" type="line"/>
      <point x="92" y="0" type="line"/>
    </contour>
    <contour>
      <point x="297" y="0" type="move" name="Bottom"/>
    </contour>
  </outline>
</glyph>
<glyph name="Gcommaaccent" format="1">
  <advance width="677"/>
  <unicode hex="0122"/>
  <outline>
    <contour>
      <point x="292" y="303" type="line"/>
      <point x="292" y="350" type="line"/>
      <point x="574" y="350" type="line"/>
      <point x="574" y="119" type="line" smooth="yes"/>
      <point x="574" y="48"/>
      <point x="580" y="0"/>
      <point x="580" y="0" type="curve"/>
      <point x="543" y="0" type="line"/>
      <point x="543" y="0"/>
      <point x="535" y="30"/>
      <point x="527" y="92" type="curve"/>
      <point x="485" y="18"/>
      <point x="405" y="-10"/>
      <point x="320" y="-10" type="curve" smooth="yes"/>
      <point x="173" y="-10"/>
      <point x="62" y="55"/>
      <point x="62" y="330" type="curve" smooth="yes"/>
      <point x="62" y="356" type="line" smooth="yes"/>
      <point x="62" y="631"/>
      <point x="173" y="696"/>
      <point x="320" y="696" type="curve" smooth="yes"/>
      <point x="449" y="696"/>
      <point x="574" y="645"/>
      <point x="574" y="449" type="curve"/>
      <point x="521" y="449" type="line"/>
      <point x="521" y="608"/>
      <point x="422" y="648"/>
      <point x="320" y="648" type="curve" smooth="yes"/>
      <point x="203" y="648"/>
      <point x="116" y="595"/>
      <point x="116" y="368" type="curve" smooth="yes"/>
      <point x="116" y="318" type="line" smooth="yes"/>
      <point x="116" y="91"/>
      <point x="203" y="38"/>
      <point x="320" y="38" type="curve" smooth="yes"/>
      <point x="425" y="38"/>
      <point x="524" y="79"/>
      <point x="524" y="251" type="curve" smooth="yes"/>
      <point x="524" y="303" type="line"/>
    </contour>
    <contour>
      <point x="340" y="-250" type="line"/>
      <point x="306" y="-250" type="line" smooth="yes"/>
      <point x="307" y="-250"/>
      <point x="329" y="-149"/>
      <point x="329" y="-149" type="curve"/>
      <point x="305" y="-149" type="line"/>
      <point x="305" y="-80" type="line"/>
      <point x="370" y="-80" type="line"/>
      <point x="370" y="-138" type="line"/>
    </contour>
    <contour>
      <point x="339" y="0" type="move" name="Bottom"/>
    </contour>
  </outline>
</glyph>
<glyph name="Imacron" format="1">
  <advance width="364"/>
  <unicode hex="012A"/>
  <outline>
    <contour>
      <point x="0" y="911" type="line"/>
      <point x="318" y="911" type="line"/>
      <point x="318" y="867" type="line"/>
      <point x="0" y="867" type="line"/>
    </contour>
    <contour>
      <point x="265" y="686" type="line"/>
      <point x="265" y="637" type="line"/>
      <point x="186" y="637" type="line"/>
      <point x="186" y="49" type="line"/>
      <point x="265" y="49" type="line"/>
      <point x="265" y="0" type="line"/>
      <point x="53" y="0" type="line"/>
      <point x="53" y="49" type="line"/>
      <point x="132" y="49" type="line"/>
      <point x="132" y="637" type="line"/>
      <point x="53" y="637" type="line"/>
      <point x="53" y="686" type="line"/>
    </contour>
  </outline>
</glyph>
<glyph name="imacron" format="1">
  <advance width="260"/>
  <unicode hex="012B"/>
  <outline>
    <contour>
      <point x="-50" y="736" type="line"/>
      <point x="268" y="736" type="line"/>
      <point x="268" y="692" type="line"/>
      <point x="-50" y="692" type="line"/>
    </contour>
    <contour>
      <point x="83" y="511" type="line"/>
      <point x="134" y="511" type="line"/>
      <point x="134" y="0" type="line"/>
      <point x="83" y="0" type="line"/>
    </contour>
  </outline>
</glyph>
<glyph name="Iogonek" format="1">
  <advance width="364"/>
  <unicode hex="012E"/>
  <outline>
    <contour>
      <point x="310" y="-86" type="curve"/>
      <point x="323" y="-119" type="line"/>
      <point x="297" y="-135"/>
      <point x="268" y="-143"/>
      <point x="239" y="-143" type="curve" smooth="yes"/>
      <point x="193" y="-143"/>
      <point x="142" y="-126"/>
      <point x="142" y="-71" type="curve" smooth="yes"/>
      <point x="142" y="-39"/>
      <point x="172" y="-16"/>
      <point x="196" y="0" type="curve"/>
      <point x="53" y="0" type="line"/>
      <point x="53" y="49" type="line"/>
      <point x="132" y="49" type="line"/>
      <point x="132" y="637" type="line"/>
      <point x="53" y="637" type="line"/>
      <point x="53" y="686" type="line"/>
      <point x="265" y="686" type="line"/>
      <point x="265" y="637" type="line"/>
      <point x="186" y="637" type="line"/>
      <point x="186" y="49" type="line"/>
      <point x="265" y="49" type="line"/>
      <point x="265" y="0" type="line"/>
      <point x="246" y="0" type="line"/>
      <point x="243" y="-2" type="line" smooth="yes"/>
      <point x="223" y="-16"/>
      <point x="199" y="-33"/>
      <point x="199" y="-60" type="curve" smooth="yes"/>
      <point x="199" y="-91"/>
      <point x="222" y="-100"/>
      <point x="243" y="-100" type="curve" smooth="yes"/>
      <point x="267" y="-100"/>
      <point x="289" y="-93"/>
    </contour>
  </outline>
</glyph>
<glyph name="iogonek" format="1">
  <advance width="260"/>
  <unicode hex="012F"/>
  <outline>
    <contour>
      <point x="140" y="666" type="line"/>
      <point x="81" y="666" type="line"/>
      <point x="81" y="720" type="line"/>
      <point x="140" y="720" type="line"/>
    </contour>
    <contour>
      <point x="191" y="-86" type="curve"/>
      <point x="204" y="-119" type="line"/>
      <point x="178" y="-135"/>
      <point x="149" y="-143"/>
      <point x="120" y="-143" type="curve" smooth="yes"/>
      <point x="74" y="-143"/>
      <point x="23" y="-126"/>
      <point x="23" y="-71" type="curve" smooth="yes"/>
      <point x="23" y="-39"/>
      <point x="53" y="-16"/>
      <point x="77" y="0" type="curve"/>
      <point x="83" y="0" type="line"/>
      <point x="83" y="511" type="line"/>
      <point x="134" y="511" type="line"/>
      <point x="134" y="0" type="line"/>
      <point x="127" y="0" type="line"/>
      <point x="124" y="-2" type="line" smooth="yes"/>
      <point x="104" y="-16"/>
      <point x="80" y="-33"/>
      <point x="80" y="-60" type="curve" smooth="yes"/>
      <point x="80" y="-91"/>
      <point x="103" y="-100"/>
      <point x="124" y="-100" type="curve" smooth="yes"/>
      <point x="148" y="-100"/>
      <point x="170" y="-93"/>
    </contour>
  </outline>
</glyph>
<glyph name="Idotaccent" format="1">
  <advance width="364"/>
  <unicode hex="0130"/>
  <outline>
    <contour>
      <point x="225" y="845" type="curve" smooth="yes"/>
      <point x="225" y="807"/>
      <point x="195" y="779"/>
      <point x="158" y="779" type="curve" smooth="yes"/>
      <point x="123" y="779"/>
      <point x="93" y="809"/>
      <point x="93" y="845" type="curve" smooth="yes"/>
      <point x="93" y="882"/>
      <point x="122" y="911"/>
      <point x="159" y="911" type="curve" smooth="yes"/>
      <point x="196" y="911"/>
      <point x="225" y="881"/>
    </contour>
    <contour>
      <point x="265" y="686" type="line"/>
      <point x="265" y="637" type="line"/>
      <point x="186" y="637" type="line"/>
      <point x="186" y="49" type="line"/>
      <point x="265" y="49" type="line"/>
      <point x="265" y="0" type="line"/>
      <point x="53" y="0" type="line"/>
      <point x="53" y="49" type="line"/>
      <point x="132" y="49" type="line"/>
      <point x="132" y="637" type="line"/>
      <point x="53" y="637" type="line"/>
      <point x="53" y="686" type="line"/>
    </contour>
  </outline>
</glyph>
<glyph name="Kcommaaccent" format="1">
  <advance width="623"/>
  <unicode hex="0136"/>
  <outline>
    <contour>
      <point x="146" y="686" type="line"/>
      <point x="146" y="279" type="line"/>
      <point x="509" y="686" type="line"/>
      <point x="573" y="686" type="line"/>
      <point x="306" y="387" type="line"/>
      <point x="581" y="0" type="line"/>
      <point x="513" y="0" type="line"/>
      <point x="269" y="346" type="line"/>
      <point x="146" y="208" type="line"/>
      <point x="146" y="0" type="line"/>
      <point x="92" y="0" type="line"/>
      <point x="92" y="686" type="line"/>
    </contour>
    <contour>
      <point x="313" y="-250" type="line"/>
      <point x="279" y="-250" type="line" smooth="yes"/>
      <point x="280" y="-250"/>
      <point x="302" y="-149"/>
      <point x="302" y="-149" type="curve"/>
      <point x="278" y="-149" type="line"/>
      <point x="278" y="-80" type="line"/>
      <point x="343" y="-80" type="line"/>
      <point x="343" y="-138" type="line"/>
    </contour>
    <contour>
      <point x="312" y="0" type="move" name="Bottom"/>
    </contour>
  </outline>
</glyph>
<glyph name="kcommaaccent" format="1">
  <advance width="535"/>
  <unicode hex="0137"/>
  <outline>
    <contour>
      <point x="134" y="127" type="line"/>
      <point x="134" y="0" type="line"/>
      <point x="83" y="0" type="line"/>
      <point x="83" y="720" type="line"/>
      <point x="134" y="720" type="line"/>
      <point x="134" y="186" type="line"/>
      <point x="424" y="511" type="line"/>
      <point x="487" y="511" type="line"/>
      <point x="272" y="270" type="line"/>
      <point x="504" y="0" type="line"/>
      <point x="438" y="0" type="line"/>
      <point x="238" y="232" type="line"/>
    </contour>
    <contour>
      <point x="269" y="-250" type="line"/>
      <point x="235" y="-250" type="line" smooth="yes"/>
      <point x="236" y="-250"/>
      <point x="258" y="-149"/>
      <point x="258" y="-149" type="curve"/>
      <point x="234" y="-149" type="line"/>
      <point x="234" y="-80" type="line"/>
      <point x="299" y="-80" type="line"/>
      <point x="299" y="-138" type="line"/>
    </contour>
    <contour>
      <point x="268" y="0" type="move" name="Bottom"/>
    </contour>
  </outline>
</glyph>
<glyph name="Lacute" format="1">
  <advance width="536"/>
  <unicode hex="0139"/>
  <outline>
    <contour>
      <point x="184" y="895" type="line"/>
      <point x="249" y="895" type="line"/>
      <point x="249" y="892" type="line"/>
      <point x="138" y="750" type="line"/>
      <point x="88" y="750" type="line"/>
    </contour>
    <contour>
      <point x="92" y="686" type="line"/>
      <point x="146" y="686" type="line"/>
      <point x="146" y="48" type="line"/>
      <point x="486" y="48" type="line"/>
      <point x="498" y="0" type="line"/>
      <point x="92" y="0" type="line"/>
    </contour>
    <contour>
      <point x="268" y="0" type="move" name="Bottom"/>
    </contour>
  </outline>
</glyph>
<glyph name="Lcommaaccent" format="1">
  <advance width="536"/>
  <unicode hex="013B"/>
  <outline>
    <contour>
      <point x="92" y="686" type="line"/>
      <point x="146" y="686" type="line"/>
      <point x="146" y="48" type="line"/>
      <point x="486" y="48" type="line"/>
      <point x="498" y="0" type="line"/>
      <point x="92" y="0" type="line"/>
    </contour>
    <contour>
      <point x="269" y="-250" type="line"/>
      <point x="235" y="-250" type="line" smooth="yes"/>
      <point x="236" y="-250"/>
      <point x="258" y="-149"/>
      <point x="258" y="-149" type="curve"/>
      <point x="234" y="-149" type="line"/>
      <point x="234" y="-80" type="line"/>
      <point x="299" y="-80" type="line"/>
      <point x="299" y="-138" type="line"/>
    </contour>
    <contour>
      <point x="268" y="0" type="move" name="Bottom"/>
    </contour>
  </outline>
</glyph>
<glyph name="lcommaaccent" format="1">
  <advance width="268"/>
  <unicode hex="013C"/>
  <outline>
    <contour>
      <point x="87" y="720" type="line"/>
      <point x="138" y="720" type="line"/>
      <point x="138" y="0" type="line"/>
      <point x="87" y="0" type="line"/>
    </contour>
    <contour>
      <point x="114" y="-250" type="line"/>
      <point x="80" y="-250" type="line" smooth="yes"/>
      <point x="81" y="-250"/>
      <point x="103" y="-149"/>
      <point x="103" y="-149" type="curve"/>
      <point x="79" y="-149" type="line"/>
      <point x="79" y="-80" type="line"/>
      <point x="144" y="-80" type="line"/>
      <point x="144" y="-138" type="line"/>
    </contour>
    <contour>
      <point x="113" y="0" type="move" name="Bottom"/>
    </contour>
  </outline>
</glyph>
<glyph name="Lcaron" format="1">
  <advance width="536"/>
  <unicode hex="013D"/>
  <outline>
    <contour>
      <point x="92" y="686" type="line"/>
      <point x="146" y="686" type="line"/>
      <point x="146" y="48" type="line"/>
      <point x="486" y="48" type="line"/>
      <point x="498" y="0" type="line"/>
      <point x="92" y="0" type="line"/>
    </contour>
    <contour>
      <point x="520" y="516" type="line"/>
      <point x="486" y="516" type="line" smooth="yes"/>
      <point x="487" y="516"/>
      <point x="509" y="617"/>
      <point x="509" y="617" type="curve"/>
      <point x="485" y="617" type="line"/>
      <point x="485" y="686" type="line"/>
      <point x="550" y="686" type="line"/>
      <point x="550" y="628" type="line"/>
    </contour>
    <contour>
      <point x="268" y="0" type="move" name="Bottom"/>
    </contour>
  </outline>
</glyph>
<glyph name="lcaron" format="1">
  <advance width="268"/>
  <unicode hex="013E"/>
  <outline>
    <contour>
      <point x="87" y="720" type="line"/>
      <point x="138" y="720" type="line"/>
      <point x="138" y="0" type="line"/>
      <point x="87" y="0" type="line"/>
    </contour>
    <contour>
      <point x="252" y="516" type="line"/>
      <point x="218" y="516" type="line" smooth="yes"/>
      <point x="219" y="516"/>
      <point x="241" y="617"/>
      <point x="241" y="617" type="curve"/>
      <point x="217" y="617" type="line"/>
      <point x="217" y="686" type="line"/>
      <point x="282" y="686" type="line"/>
      <point x="282" y="628" type="line"/>
    </contour>
    <contour>
      <point x="113" y="0" type="move" name="Bottom"/>
    </contour>
  </outline>
</glyph>
<glyph name="Lslash" format="1">
  <advance width="539"/>
  <unicode hex="0141"/>
  <outline>
    <contour>
      <point x="161" y="358" type="line"/>
      <point x="161" y="48" type="line"/>
      <point x="501" y="48" type="line"/>
      <point x="513" y="0" type="line"/>
      <point x="107" y="0" type="line"/>
      <point x="107" y="331" type="line"/>
      <point x="33" y="294" type="line"/>
      <point x="33" y="338" type="line"/>
      <point x="107" y="375" type="line"/>
      <point x="107" y="686" type="line"/>
      <point x="161" y="686" type="line"/>
      <point x="161" y="402" type="line"/>
      <point x="313" y="479" type="line"/>
      <point x="313" y="435" type="line"/>
    </contour>
  </outline>
</glyph>
<glyph name="lslash" format="1">
  <advance width="298"/>
  <unicode hex="0142"/>
  <outline>
    <contour>
      <point x="114" y="338" type="line"/>
      <point x="20" y="291" type="line"/>
      <point x="20" y="335" type="line"/>
      <point x="114" y="382" type="line"/>
      <point x="114" y="720" type="line"/>
      <point x="165" y="720" type="line"/>
      <point x="165" y="407" type="line"/>
      <point x="259" y="455" type="line"/>
      <point x="259" y="411" type="line"/>
      <point x="165" y="363" type="line"/>
      <point x="165" y="0" type="line"/>
      <point x="114" y="0" type="line"/>
    </contour>
  </outline>
</glyph>
<glyph name="Nacute" format="1">
  <advance width="694"/>
  <unicode hex="0143"/>
  <outline>
    <contour>
      <point x="412" y="895" type="line"/>
      <point x="477" y="895" type="line"/>
      <point x="477" y="892" type="line"/>
      <point x="366" y="750" type="line"/>
      <point x="316" y="750" type="line"/>
    </contour>
    <contour>
      <point x="143" y="583" type="line"/>
      <point x="140" y="583" type="line"/>
      <point x="140" y="0" type="line"/>
      <point x="92" y="0" type="line"/>
      <point x="92" y="686" type="line"/>
      <point x="138" y="686" type="line"/>
      <point x="520" y="103" type="line"/>
      <point x="523" y="103" type="line"/>
      <point x="523" y="686" type="line"/>
      <point x="571" y="686" type="line"/>
      <point x="571" y="0" type="line"/>
      <point x="523" y="0" type="line"/>
    </contour>
    <contour>
      <point x="347" y="0" type="move" name="Bottom"/>
    </contour>
  </outline>
</glyph>
<glyph name="ncommaaccent" format="1">
  <advance width="593"/>
  <unicode hex="0146"/>
  <outline>
    <contour>
      <point x="435" y="0" type="line"/>
      <point x="435" y="314" type="line" smooth="yes"/>
      <point x="435" y="425"/>
      <point x="381" y="475"/>
      <point x="291" y="475" type="curve" smooth="yes"/>
      <point x="201" y="475"/>
      <point x="134" y="406"/>
      <point x="134" y="314" type="curve" smooth="yes"/>
      <point x="134" y="0" type="line"/>
      <point x="83" y="0" type="line"/>
      <point x="83" y="511" type="line"/>
      <point x="117" y="511" type="line"/>
      <point x="128" y="435" type="line"/>
      <point x="163" y="489"/>
      <point x="229" y="521"/>
      <point x="296" y="521" type="curve" smooth="yes"/>
      <point x="402" y="521"/>
      <point x="485" y="462"/>
      <point x="485" y="329" type="curve" smooth="yes"/>
      <point x="485" y="0" type="line"/>
    </contour>
    <contour>
      <point x="298" y="-250" type="line"/>
      <point x="264" y="-250" type="line" smooth="yes"/>
      <point x="265" y="-250"/>
      <point x="287" y="-149"/>
      <point x="287" y="-149" type="curve"/>
      <point x="263" y="-149" type="line"/>
      <point x="263" y="-80" type="line"/>
      <point x="328" y="-80" type="line"/>
      <point x="328" y="-138" type="line"/>
    </contour>
    <contour>
      <point x="297" y="0" type="move" name="Bottom"/>
    </contour>
  </outline>
</glyph>
<glyph name="ncaron" format="1">
  <advance width="593"/>
  <unicode hex="0148"/>
  <outline>
    <contour>
      <point x="194" y="720" type="line"/>
      <point x="297" y="623" type="line"/>
      <point x="400" y="720" type="line"/>
      <point x="460" y="720" type="line"/>
      <point x="326" y="575" type="line"/>
      <point x="268" y="575" type="line"/>
      <point x="134" y="720" type="line"/>
    </contour>
    <contour>
      <point x="435" y="0" type="line"/>
      <point x="435" y="314" type="line" smooth="yes"/>
      <point x="435" y="425"/>
      <point x="381" y="475"/>
      <point x="291" y="475" type="curve" smooth="yes"/>
      <point x="201" y="475"/>
      <point x="134" y="406"/>
      <point x="134" y="314" type="curve" smooth="yes"/>
      <point x="134" y="0" type="line"/>
      <point x="83" y="0" type="line"/>
      <point x="83" y="511" type="line"/>
      <point x="117" y="511" type="line"/>
      <point x="128" y="435" type="line"/>
      <point x="163" y="489"/>
      <point x="229" y="521"/>
      <point x="296" y="521" type="curve" smooth="yes"/>
      <point x="402" y="521"/>
      <point x="485" y="462"/>
      <point x="485" y="329" type="curve" smooth="yes"/>
      <point x="485" y="0" type="line"/>
    </contour>
    <contour>
      <point x="297" y="0" type="move" name="Bottom"/>
    </contour>
  </outline>
</glyph>
<glyph name="OE" format="1">
  <advance width="1032"/>
  <unicode hex="0152"/>
  <outline>
    <contour>
      <point x="539" y="0" type="line"/>
      <point x="539" y="87" type="line"/>
      <point x="490" y="12"/>
      <point x="413" y="-10"/>
      <point x="327" y="-10" type="curve" smooth="yes"/>
      <point x="180" y="-10"/>
      <point x="61" y="55"/>
      <point x="61" y="330" type="curve" smooth="yes"/>
      <point x="61" y="356" type="line" smooth="yes"/>
      <point x="61" y="631"/>
      <point x="180" y="696"/>
      <point x="327" y="696" type="curve" smooth="yes"/>
      <point x="413" y="696"/>
      <point x="490" y="673"/>
      <point x="539" y="598" type="curve"/>
      <point x="539" y="686" type="line"/>
      <point x="963" y="686" type="line"/>
      <point x="953" y="638" type="line"/>
      <point x="593" y="638" type="line"/>
      <point x="593" y="374" type="line"/>
      <point x="912" y="374" type="line"/>
      <point x="912" y="326" type="line"/>
      <point x="593" y="326" type="line"/>
      <point x="593" y="48" type="line"/>
      <point x="962" y="48" type="line"/>
      <point x="973" y="0" type="line"/>
    </contour>
    <contour>
      <point x="327" y="38" type="curve" smooth="yes"/>
      <point x="444" y="38"/>
      <point x="539" y="91"/>
      <point x="539" y="318" type="curve" smooth="yes"/>
      <point x="539" y="368" type="line" smooth="yes"/>
      <point x="539" y="595"/>
      <point x="444" y="648"/>
      <point x="327" y="648" type="curve" smooth="yes"/>
      <point x="210" y="648"/>
      <point x="115" y="595"/>
      <point x="115" y="368" type="curve" smooth="yes"/>
      <point x="115" y="318" type="line" smooth="yes"/>
      <point x="115" y="91"/>
      <point x="210" y="38"/>
    </contour>
  </outline>
</glyph>
<glyph name="Racute" format="1">
  <advance width="670"/>
  <unicode hex="0154"/>
  <outline>
    <contour>
      <point x="370" y="895" type="line"/>
      <point x="435" y="895" type="line"/>
      <point x="435" y="892" type="line"/>
      <point x="324" y="750" type="line"/>
      <point x="274" y="750" type="line"/>
    </contour>
    <contour>
      <point x="599" y="20" type="curve"/>
      <point x="599" y="1" type="line"/>
      <point x="599" y="1"/>
      <point x="588" y="-3"/>
      <point x="574" y="-3" type="curve" smooth="yes"/>
      <point x="543" y="-3"/>
      <point x="496" y="15"/>
      <point x="496" y="127" type="curve" smooth="yes"/>
      <point x="496" y="313"/>
      <point x="399" y="326"/>
      <point x="367" y="326" type="curve" smooth="yes"/>
      <point x="146" y="326" type="line"/>
      <point x="146" y="0" type="line"/>
      <point x="92" y="0" type="line"/>
      <point x="92" y="686" type="line"/>
      <point x="371" y="686" type="line" smooth="yes"/>
      <point x="468" y="686"/>
      <point x="561" y="619"/>
      <point x="561" y="516" type="curve" smooth="yes"/>
      <point x="561" y="443"/>
      <point x="508" y="367"/>
      <point x="438" y="354" type="curve"/>
      <point x="438" y="349" type="line"/>
      <point x="438" y="349"/>
      <point x="548" y="332"/>
      <point x="548" y="153" type="curve" smooth="yes"/>
      <point x="548" y="30"/>
      <point x="574" y="32"/>
    </contour>
    <contour>
      <point x="146" y="374" type="line"/>
      <point x="374" y="374" type="line" smooth="yes"/>
      <point x="448" y="374"/>
      <point x="508" y="433"/>
      <point x="508" y="507" type="curve" smooth="yes"/>
      <point x="508" y="581"/>
      <point x="448" y="638"/>
      <point x="374" y="638" type="curve" smooth="yes"/>
      <point x="146" y="638" type="line"/>
    </contour>
    <contour>
      <point x="335" y="0" type="move" name="Bottom"/>
    </contour>
  </outline>
</glyph>
<glyph name="rcaron" format="1">
  <advance width="490"/>
  <unicode hex="0159"/>
  <outline>
    <contour>
      <point x="6" y="720" type="line"/>
      <point x="109" y="623" type="line"/>
      <point x="212" y="720" type="line"/>
      <point x="272" y="720" type="line"/>
      <point x="138" y="575" type="line"/>
      <point x="80" y="575" type="line"/>
      <point x="-54" y="720" type="line"/>
    </contour>
    <contour>
      <point x="388" y="328" type="line"/>
      <point x="388" y="344" type="line" smooth="yes"/>
      <point x="388" y="397"/>
      <point x="362" y="475"/>
      <point x="263" y="475" type="curve" smooth="yes"/>
      <point x="164" y="475"/>
      <point x="134" y="379"/>
      <point x="134" y="324" type="curve" smooth="yes"/>
      <point x="134" y="0" type="line"/>
      <point x="83" y="0" type="line"/>
      <point x="83" y="511" type="line"/>
      <point x="117" y="511" type="line"/>
      <point x="128" y="435" type="line"/>
      <point x="128" y="435"/>
      <point x="162" y="521"/>
      <point x="273" y="521" type="curve" smooth="yes"/>
      <point x="384" y="521"/>
      <point x="437" y="442"/>
      <point x="437" y="352" type="curve" smooth="yes"/>
      <point x="437" y="338"/>
      <point x="435" y="328"/>
      <point x="435" y="328" type="curve"/>
    </contour>
    <contour>
      <point x="109" y="0" type="move" name="Bottom"/>
    </contour>
  </outline>
</glyph>
<glyph name="Sacute" format="1">
  <advance width="627"/>
  <unicode hex="015A"/>
  <outline>
    <contour>
      <point x="359" y="895" type="line"/>
      <point x="424" y="895" type="line"/>
      <point x="424" y="892" type="line"/>
      <point x="313" y="750" type="line"/>
      <point x="263" y="750" type="line"/>
    </contour>
    <contour>
      <point x="473" y="503" type="line"/>
      <point x="473" y="525" type="line" smooth="yes"/>
      <point x="473" y="608"/>
      <point x="394" y="648"/>
      <point x="297" y="648" type="curve" smooth="yes"/>
      <point x="200" y="648"/>
      <point x="122" y="615"/>
      <point x="122" y="525" type="curve" smooth="yes"/>
      <point x="122" y="332"/>
      <point x="543" y="447"/>
      <point x="543" y="188" type="curve" smooth="yes"/>
      <point x="543" y="42"/>
      <point x="432" y="-10"/>
      <point x="300" y="-10" type="curve" smooth="yes"/>
      <point x="164" y="-10"/>
      <point x="52" y="39"/>
      <point x="52" y="187" type="curve" smooth="yes"/>
      <point x="52" y="193"/>
      <point x="53" y="205"/>
      <point x="53" y="205" type="curve"/>
      <point x="104" y="205" type="line"/>
      <point x="103" y="178" type="line" smooth="yes"/>
      <point x="103" y="74"/>
      <point x="189" y="38"/>
      <point x="296" y="38" type="curve" smooth="yes"/>
      <point x="403" y="38"/>
      <point x="490" y="72"/>
      <point x="490" y="185" type="curve" smooth="yes"/>
      <point x="490" y="396"/>
      <point x="69" y="277"/>
      <point x="69" y="528" type="curve" smooth="yes"/>
      <point x="69" y="646"/>
      <point x="175" y="696"/>
      <point x="296" y="696" type="curve" smooth="yes"/>
      <point x="421" y="696"/>
      <point x="523" y="646"/>
      <point x="523" y="516" type="curve" smooth="yes"/>
      <point x="523" y="503" type="line"/>
    </contour>
    <contour>
      <point x="314" y="0" type="move" name="Bottom"/>
    </contour>
  </outline>
</glyph>
<glyph name="Scedilla" format="1">
  <advance width="627"/>
  <unicode hex="015E"/>
  <outline>
    <contour>
      <point x="473" y="503" type="line"/>
      <point x="473" y="525" type="line" smooth="yes"/>
      <point x="473" y="608"/>
      <point x="394" y="648"/>
      <point x="297" y="648" type="curve" smooth="yes"/>
      <point x="200" y="648"/>
      <point x="122" y="615"/>
      <point x="122" y="525" type="curve" smooth="yes"/>
      <point x="122" y="332"/>
      <point x="543" y="447"/>
      <point x="543" y="188" type="curve" smooth="yes"/>
      <point x="543" y="42"/>
      <point x="432" y="-10"/>
      <point x="300" y="-10" type="curve" smooth="yes"/>
      <point x="164" y="-10"/>
      <point x="52" y="39"/>
      <point x="52" y="187" type="curve" smooth="yes"/>
      <point x="52" y="193"/>
      <point x="53" y="205"/>
      <point x="53" y="205" type="curve"/>
      <point x="104" y="205" type="line"/>
      <point x="103" y="178" type="line" smooth="yes"/>
      <point x="103" y="74"/>
      <point x="189" y="38"/>
      <point x="296" y="38" type="curve" smooth="yes"/>
      <point x="403" y="38"/>
      <point x="490" y="72"/>
      <point x="490" y="185" type="curve" smooth="yes"/>
      <point x="490" y="396"/>
      <point x="69" y="277"/>
      <point x="69" y="528" type="curve" smooth="yes"/>
      <point x="69" y="646"/>
      <point x="175" y="696"/>
      <point x="296" y="696" type="curve" smooth="yes"/>
      <point x="421" y="696"/>
      <point x="523" y="646"/>
      <point x="523" y="516" type="curve" smooth="yes"/>
      <point x="523" y="503" type="line"/>
    </contour>
    <contour>
      <point x="216" y="-184" type="curve"/>
      <point x="216" y="-138" type="line"/>
      <point x="229" y="-145"/>
      <point x="252" y="-151"/>
      <point x="285" y="-151" type="curve" smooth="yes"/>
      <point x="322" y="-151"/>
      <point x="361" y="-140"/>
      <point x="361" y="-97" type="curve" smooth="yes"/>
      <point x="361" y="-66"/>
      <point x="330" y="-51"/>
      <point x="303" y="-51" type="curve" smooth="yes"/>
      <point x="281" y="-51" type="line"/>
      <point x="281" y="-17" type="line"/>
      <point x="306" y="-17" type="line" smooth="yes"/>
      <point x="360" y="-17"/>
      <point x="412" y="-37"/>
      <point x="412" y="-106" type="curve" smooth="yes"/>
      <point x="412" y="-179"/>
      <point x="340" y="-197"/>
      <point x="294" y="-197" type="curve" smooth="yes"/>
      <point x="269" y="-197"/>
      <point x="240" y="-193"/>
    </contour>
    <contour>
      <point x="314" y="0" type="move" name="Bottom"/>
    </contour>
  </outline>
</glyph>
<glyph name="scedilla" format="1">
  <advance width="534"/>
  <unicode hex="015F"/>
  <outline>
    <contour>
      <point x="46" y="157" type="curve"/>
      <point x="96" y="157" type="line"/>
      <point x="95" y="152"/>
      <point x="95" y="148"/>
      <point x="95" y="143" type="curve" smooth="yes"/>
      <point x="95" y="74"/>
      <point x="159" y="36"/>
      <point x="261" y="36" type="curve" smooth="yes"/>
      <point x="355" y="36"/>
      <point x="406" y="78"/>
      <point x="406" y="136" type="curve" smooth="yes"/>
      <point x="406" y="293"/>
      <point x="60" y="187"/>
      <point x="60" y="381" type="curve" smooth="yes"/>
      <point x="60" y="458"/>
      <point x="121" y="521"/>
      <point x="258" y="521" type="curve" smooth="yes"/>
      <point x="394" y="521"/>
      <point x="445" y="443"/>
      <point x="445" y="383" type="curve" smooth="yes"/>
      <point x="445" y="377"/>
      <point x="444" y="369"/>
      <point x="444" y="369" type="curve"/>
      <point x="394" y="369" type="line"/>
      <point x="394" y="382" type="line" smooth="yes"/>
      <point x="394" y="405"/>
      <point x="385" y="475"/>
      <point x="249" y="475" type="curve" smooth="yes"/>
      <point x="117" y="475"/>
      <point x="111" y="408"/>
      <point x="111" y="383" type="curve" smooth="yes"/>
      <point x="111" y="246"/>
      <point x="457" y="334"/>
      <point x="457" y="146" type="curve" smooth="yes"/>
      <point x="457" y="30"/>
      <point x="367" y="-10"/>
      <point x="248" y="-10" type="curve" smooth="yes"/>
      <point x="90" y="-10"/>
      <point x="45" y="80"/>
      <point x="45" y="132" type="curve" smooth="yes"/>
      <point x="45" y="151"/>
      <point x="46" y="157"/>
    </contour>
    <contour>
      <point x="169" y="-184" type="curve"/>
      <point x="169" y="-138" type="line"/>
      <point x="182" y="-145"/>
      <point x="205" y="-151"/>
      <point x="238" y="-151" type="curve" smooth="yes"/>
      <point x="275" y="-151"/>
      <point x="314" y="-140"/>
      <point x="314" y="-97" type="curve" smooth="yes"/>
      <point x="314" y="-66"/>
      <point x="283" y="-51"/>
      <point x="256" y="-51" type="curve" smooth="yes"/>
      <point x="234" y="-51" type="line"/>
      <point x="234" y="-17" type="line"/>
      <point x="259" y="-17" type="line" smooth="yes"/>
      <point x="313" y="-17"/>
      <point x="365" y="-37"/>
      <point x="365" y="-106" type="curve" smooth="yes"/>
      <point x="365" y="-179"/>
      <point x="293" y="-197"/>
      <point x="247" y="-197" type="curve" smooth="yes"/>
      <point x="222" y="-197"/>
      <point x="193" y="-193"/>
    </contour>
    <contour>
      <point x="267" y="0" type="move" name="Bottom"/>
    </contour>
  </outline>
</glyph>
<glyph name="scaron" format="1">
  <advance width="534"/>
  <unicode hex="0161"/>
  <outline>
    <contour>
      <point x="152" y="720" type="line"/>
      <point x="255" y="623" type="line"/>
      <point x="358" y="720" type="line"/>
      <point x="418" y="720" type="line"/>
      <point x="284" y="575" type="line"/>
      <point x="226" y="575" type="line"/>
      <point x="92" y="720" type="line"/>
    </contour>
    <contour>
      <point x="46" y="157" type="curve"/>
      <point x="96" y="157" type="line"/>
      <point x="95" y="152"/>
      <point x="95" y="148"/>
      <point x="95" y="143" type="curve" smooth="yes"/>
      <point x="95" y="74"/>
      <point x="159" y="36"/>
      <point x="261" y="36" type="curve" smooth="yes"/>
      <point x="355" y="36"/>
      <point x="406" y="78"/>
      <point x="406" y="136" type="curve" smooth="yes"/>
      <point x="406" y="293"/>
      <point x="60" y="187"/>
      <point x="60" y="381" type="curve" smooth="yes"/>
      <point x="60" y="458"/>
      <point x="121" y="521"/>
      <point x="258" y="521" type="curve" smooth="yes"/>
      <point x="394" y="521"/>
      <point x="445" y="443"/>
      <point x="445" y="383" type="curve" smooth="yes"/>
      <point x="445" y="377"/>
      <point x="444" y="369"/>
      <point x="444" y="369" type="curve"/>
      <point x="394" y="369" type="line"/>
      <point x="394" y="382" type="line" smooth="yes"/>
      <point x="394" y="405"/>
      <point x="385" y="475"/>
      <point x="249" y="475" type="curve" smooth="yes"/>
      <point x="117" y="475"/>
      <point x="111" y="408"/>
      <point x="111" y="383" type="curve" smooth="yes"/>
      <point x="111" y="246"/>
      <point x="457" y="334"/>
      <point x="457" y="146" type="curve" smooth="yes"/>
      <point x="457" y="30"/>
      <point x="367" y="-10"/>
      <point x="248" y="-10" type="curve" smooth="yes"/>
      <point x="90" y="-10"/>
      <point x="45" y="80"/>
      <point x="45" y="132" type="curve" smooth="yes"/>
      <point x="45" y="151"/>
      <point x="46" y="157"/>
    </contour>
  </outline>
</glyph>
<glyph name="Tcedilla" format="1">
  <advance width="578"/>
  <unicode hex="0162"/>
  <outline>
    <contour>
      <point x="309" y="0" type="line"/>
      <point x="257" y="0" type="line"/>
      <point x="257" y="638" type="line"/>
      <point x="25" y="638" type="line"/>
      <point x="25" y="686" type="line"/>
      <point x="541" y="686" type="line"/>
      <point x="541" y="638" type="line"/>
      <point x="309" y="638" type="line"/>
    </contour>
    <contour>
      <point x="185" y="-184" type="curve"/>
      <point x="185" y="-138" type="line"/>
      <point x="198" y="-145"/>
      <point x="221" y="-151"/>
      <point x="254" y="-151" type="curve" smooth="yes"/>
      <point x="291" y="-151"/>
      <point x="330" y="-140"/>
      <point x="330" y="-97" type="curve" smooth="yes"/>
      <point x="330" y="-66"/>
      <point x="299" y="-51"/>
      <point x="272" y="-51" type="curve" smooth="yes"/>
      <point x="250" y="-51" type="line"/>
      <point x="250" y="-17" type="line"/>
      <point x="275" y="-17" type="line" smooth="yes"/>
      <point x="329" y="-17"/>
      <point x="381" y="-37"/>
      <point x="381" y="-106" type="curve" smooth="yes"/>
      <point x="381" y="-179"/>
      <point x="309" y="-197"/>
      <point x="263" y="-197" type="curve" smooth="yes"/>
      <point x="238" y="-197"/>
      <point x="209" y="-193"/>
    </contour>
    <contour>
      <point x="283" y="0" type="move" name="Bottom"/>
    </contour>
  </outline>
</glyph>
<glyph name="tcedilla" format="1">
  <advance width="346"/>
  <unicode hex="0163"/>
  <outline>
    <contour>
      <point x="269" y="52" type="curve"/>
      <point x="269" y="7" type="line"/>
      <point x="252" y="-3"/>
      <point x="226" y="-10"/>
      <point x="201" y="-10" type="curve" smooth="yes"/>
      <point x="142" y="-10"/>
      <point x="99" y="24"/>
      <point x="99" y="101" type="curve" smooth="yes"/>
      <point x="99" y="465" type="line"/>
      <point x="43" y="465" type="line"/>
      <point x="43" y="511" type="line"/>
      <point x="99" y="511" type="line"/>
      <point x="117" y="674" type="line"/>
      <point x="150" y="674" type="line"/>
      <point x="150" y="511" type="line"/>
      <point x="269" y="511" type="line"/>
      <point x="269" y="465" type="line"/>
      <point x="150" y="465" type="line"/>
      <point x="150" y="103" type="line" smooth="yes"/>
      <point x="150" y="44"/>
      <point x="179" y="36"/>
      <point x="207" y="36" type="curve" smooth="yes"/>
      <point x="222" y="36"/>
      <point x="253" y="45"/>
    </contour>
    <contour>
      <point x="75" y="-184" type="curve"/>
      <point x="75" y="-138" type="line"/>
      <point x="88" y="-145"/>
      <point x="111" y="-151"/>
      <point x="144" y="-151" type="curve" smooth="yes"/>
      <point x="181" y="-151"/>
      <point x="220" y="-140"/>
      <point x="220" y="-97" type="curve" smooth="yes"/>
      <point x="220" y="-66"/>
      <point x="189" y="-51"/>
      <point x="162" y="-51" type="curve" smooth="yes"/>
      <point x="140" y="-51" type="line"/>
      <point x="140" y="-17" type="line"/>
      <point x="165" y="-17" type="line" smooth="yes"/>
      <point x="219" y="-17"/>
      <point x="271" y="-37"/>
      <point x="271" y="-106" type="curve" smooth="yes"/>
      <point x="271" y="-179"/>
      <point x="199" y="-197"/>
      <point x="153" y="-197" type="curve" smooth="yes"/>
      <point x="128" y="-197"/>
      <point x="99" y="-193"/>
    </contour>
    <contour>
      <point x="173" y="0" type="move" name="Bottom"/>
    </contour>
  </outline>
</glyph>
